%TF.GenerationSoftware,KiCad,Pcbnew,9.0.1*%
%TF.CreationDate,2025-08-15T14:51:03+02:00*%
%TF.ProjectId,bitaxeGamma,62697461-7865-4476-916d-6d612e6b6963,rev?*%
%TF.SameCoordinates,Original*%
%TF.FileFunction,Copper,L2,Inr*%
%TF.FilePolarity,Positive*%
%FSLAX46Y46*%
G04 Gerber Fmt 4.6, Leading zero omitted, Abs format (unit mm)*
G04 Created by KiCad (PCBNEW 9.0.1) date 2025-08-15 14:51:03*
%MOMM*%
%LPD*%
G01*
G04 APERTURE LIST*
%TA.AperFunction,ComponentPad*%
%ADD10C,6.000000*%
%TD*%
%TA.AperFunction,ComponentPad*%
%ADD11C,0.800000*%
%TD*%
%TA.AperFunction,ComponentPad*%
%ADD12R,1.700000X1.700000*%
%TD*%
%TA.AperFunction,ComponentPad*%
%ADD13O,1.700000X1.700000*%
%TD*%
%TA.AperFunction,ComponentPad*%
%ADD14C,0.400000*%
%TD*%
%TA.AperFunction,ComponentPad*%
%ADD15C,1.574800*%
%TD*%
%TA.AperFunction,ComponentPad*%
%ADD16C,1.700000*%
%TD*%
%TA.AperFunction,ComponentPad*%
%ADD17O,1.800000X1.000000*%
%TD*%
%TA.AperFunction,ComponentPad*%
%ADD18O,2.100000X1.000000*%
%TD*%
%TA.AperFunction,ViaPad*%
%ADD19C,0.800000*%
%TD*%
%TA.AperFunction,ViaPad*%
%ADD20C,0.500000*%
%TD*%
%TA.AperFunction,ViaPad*%
%ADD21C,1.000000*%
%TD*%
%TA.AperFunction,ViaPad*%
%ADD22C,1.200000*%
%TD*%
%TA.AperFunction,Profile*%
%ADD23C,0.001000*%
%TD*%
G04 APERTURE END LIST*
D10*
%TO.N,GND*%
%TO.C,H6*%
X84710000Y-94910000D03*
%TD*%
%TO.N,GND*%
%TO.C,H5*%
X126450000Y-136260000D03*
%TD*%
D11*
%TO.N,GND*%
%TO.C,H1*%
X128052000Y-51054000D03*
X128711010Y-49463010D03*
X128711010Y-52644990D03*
X130302000Y-48804000D03*
D10*
X130302000Y-51054000D03*
D11*
X130302000Y-53304000D03*
X131892990Y-49463010D03*
X131892990Y-52644990D03*
X132552000Y-51054000D03*
%TD*%
%TO.N,GND*%
%TO.C,H3*%
X128052000Y-143728000D03*
X128711010Y-142137010D03*
X128711010Y-145318990D03*
X130302000Y-141478000D03*
D10*
X130302000Y-143728000D03*
D11*
X130302000Y-145978000D03*
X131892990Y-142137010D03*
X131892990Y-145318990D03*
X132552000Y-143728000D03*
%TD*%
D12*
%TO.N,/5V*%
%TO.C,J4*%
X99171505Y-51054000D03*
D13*
%TO.N,GND*%
X101711505Y-51054000D03*
%TO.N,Net-(J4-Pin_3)*%
X104251505Y-51054000D03*
%TO.N,Net-(J4-Pin_4)*%
X106791505Y-51054000D03*
%TO.N,Net-(J4-Pin_5)*%
X109331505Y-51054000D03*
%TO.N,Net-(J4-Pin_6)*%
X111871505Y-51054000D03*
%TD*%
D11*
%TO.N,GND*%
%TO.C,H4*%
X78558000Y-143728000D03*
X79217010Y-142137010D03*
X79217010Y-145318990D03*
X80808000Y-141478000D03*
D10*
X80808000Y-143728000D03*
D11*
X80808000Y-145978000D03*
X82398990Y-142137010D03*
X82398990Y-145318990D03*
X83058000Y-143728000D03*
%TD*%
D10*
%TO.N,GND*%
%TO.C,H8*%
X84700000Y-136260000D03*
%TD*%
D11*
%TO.N,GND*%
%TO.C,H2*%
X78558000Y-51054000D03*
X79217010Y-49463010D03*
X79217010Y-52644990D03*
X80808000Y-48804000D03*
D10*
X80808000Y-51054000D03*
D11*
X80808000Y-53304000D03*
X82398990Y-49463010D03*
X82398990Y-52644990D03*
X83058000Y-51054000D03*
%TD*%
D10*
%TO.N,GND*%
%TO.C,H7*%
X126450000Y-94910000D03*
%TD*%
D14*
%TO.N,GND*%
%TO.C,U2*%
X92180000Y-78870000D03*
X93580000Y-78870000D03*
X94980000Y-78870000D03*
X91180000Y-77590000D03*
X92180000Y-77590000D03*
X93580000Y-77590000D03*
X94980000Y-77590000D03*
X95980000Y-77590000D03*
X92180000Y-76310000D03*
X93580000Y-76310000D03*
X94980000Y-76310000D03*
%TD*%
D15*
%TO.N,GND*%
%TO.C,J6*%
X89621000Y-143622000D03*
%TO.N,/5V*%
X92161000Y-143622000D03*
%TO.N,/Fan/FAN_TACH*%
X94701000Y-143622000D03*
%TO.N,/Fan/FAN_PWM*%
X97241000Y-143622000D03*
%TD*%
D16*
%TO.N,GND*%
%TO.C,J3*%
X87005000Y-50292000D03*
D13*
%TO.N,/3V3*%
X87405000Y-52832000D03*
%TO.N,/SCL*%
X87005000Y-55372000D03*
%TO.N,/SDA*%
X87405000Y-57912000D03*
%TD*%
D17*
%TO.N,GND*%
%TO.C,J5*%
X79790000Y-87580000D03*
D18*
X83970000Y-87580000D03*
D17*
X79790000Y-78940000D03*
D18*
X83970000Y-78940000D03*
%TD*%
D19*
%TO.N,GND*%
X133000000Y-98000000D03*
X130000000Y-125000000D03*
X112180000Y-119260000D03*
X100000000Y-74000000D03*
X133000000Y-131000000D03*
X117000000Y-121000000D03*
X127000000Y-89000000D03*
X95500000Y-60500000D03*
X113580000Y-132650000D03*
D20*
X82850000Y-83210000D03*
D19*
X100000000Y-75500000D03*
X101500000Y-66500000D03*
X105000000Y-140500000D03*
X84000000Y-130000000D03*
X101500000Y-74000000D03*
X78000000Y-106000000D03*
X105500000Y-117500000D03*
X103000000Y-115500000D03*
X97000000Y-114000000D03*
X78000000Y-97000000D03*
X126500000Y-68000000D03*
X78000000Y-121000000D03*
X78000000Y-58000000D03*
X133000000Y-116000000D03*
X103000000Y-123700000D03*
X105500000Y-115500000D03*
X104500000Y-66500000D03*
X84000000Y-100000000D03*
X100000000Y-72520000D03*
X112180000Y-120800000D03*
X106750000Y-122500000D03*
X104250000Y-108750000D03*
X106750000Y-115500000D03*
X111000000Y-146500000D03*
X108000000Y-123750000D03*
X112000000Y-48100000D03*
X101500000Y-69500000D03*
X78000000Y-118000000D03*
X97000000Y-109000000D03*
X130000000Y-98000000D03*
X108000000Y-143500000D03*
X78000000Y-64000000D03*
X130000000Y-119000000D03*
X104250000Y-125000000D03*
X111975000Y-79925000D03*
X87000000Y-133000000D03*
X94000000Y-100000000D03*
X121000000Y-51000000D03*
X106750000Y-117500000D03*
X112000000Y-87300000D03*
X104640000Y-130470000D03*
X114000000Y-140500000D03*
X105540000Y-132550000D03*
X78000000Y-67000000D03*
D21*
X116500000Y-71000000D03*
D19*
X108000000Y-118500000D03*
X100000000Y-66500000D03*
X101500000Y-62000000D03*
X103000000Y-125000000D03*
X97000000Y-103000000D03*
X133000000Y-128000000D03*
X128500000Y-83000000D03*
X78000000Y-109000000D03*
X133000000Y-59000000D03*
X101500000Y-60500000D03*
X125600000Y-65940000D03*
X116770000Y-124080000D03*
X85000000Y-51000000D03*
X117000000Y-146500000D03*
X95500000Y-63500000D03*
X87000000Y-109000000D03*
X118000000Y-69500000D03*
X126500000Y-74000000D03*
X133000000Y-113000000D03*
X102000000Y-140500000D03*
X98500000Y-63500000D03*
X126500000Y-78500000D03*
X105000000Y-137500000D03*
X131500000Y-83000000D03*
X123000000Y-143500000D03*
X103000000Y-77000000D03*
X78000000Y-141000000D03*
X103000000Y-121250000D03*
X100000000Y-69500000D03*
X133000000Y-122000000D03*
X108000000Y-122500000D03*
X78000000Y-124000000D03*
X78000000Y-61000000D03*
X130000000Y-83000000D03*
X131500000Y-62000000D03*
X117000000Y-134500000D03*
X115350000Y-112400000D03*
X112000000Y-66500000D03*
X119500000Y-116500000D03*
X84000000Y-124000000D03*
X88000000Y-48100000D03*
X112000000Y-89200000D03*
X126500000Y-77000000D03*
X100000000Y-77000000D03*
X133000000Y-62000000D03*
X106750000Y-125000000D03*
X126500000Y-80000000D03*
X84000000Y-103000000D03*
X106750000Y-121250000D03*
X101500000Y-78500000D03*
X78000000Y-91000000D03*
X88000000Y-64000000D03*
X78000000Y-85000000D03*
X87000000Y-124000000D03*
X123000000Y-146500000D03*
X114000000Y-143500000D03*
X103000000Y-62000000D03*
X94000000Y-48100000D03*
X85000000Y-64000000D03*
X98954400Y-134128017D03*
X78000000Y-54000000D03*
X120000000Y-140500000D03*
X87000000Y-100000000D03*
X128500000Y-62000000D03*
X103000000Y-118500000D03*
X133000000Y-125000000D03*
X133000000Y-110000000D03*
X103000000Y-72500000D03*
X94000000Y-109000000D03*
X108000000Y-137500000D03*
X119500000Y-68000000D03*
X78000000Y-133000000D03*
X117000000Y-140500000D03*
X104500000Y-69500000D03*
X120175000Y-53550000D03*
X128130000Y-56090000D03*
X78000000Y-70000000D03*
X105500000Y-118500000D03*
X104250000Y-107250000D03*
X103000000Y-71000000D03*
X133000000Y-89000000D03*
X126000000Y-140500000D03*
X126500000Y-72500000D03*
X97000000Y-100000000D03*
X112980000Y-114270000D03*
D21*
X80680000Y-61050000D03*
D19*
X103000000Y-48100000D03*
X87000000Y-121000000D03*
X120000000Y-134500000D03*
X85000000Y-48100000D03*
X78000000Y-112000000D03*
X130000000Y-122000000D03*
X111000000Y-140500000D03*
X104250000Y-121250000D03*
X91790000Y-89910000D03*
X112000000Y-86100000D03*
X105500000Y-123750000D03*
X117090000Y-100360000D03*
X102000000Y-146500000D03*
X121580000Y-112400000D03*
X133000000Y-83000000D03*
X112000000Y-82900000D03*
X105000000Y-146500000D03*
X105500000Y-122500000D03*
X118000000Y-48100000D03*
X91000000Y-48100000D03*
X103000000Y-69500000D03*
X120000000Y-125000000D03*
X78000000Y-82000000D03*
X120000000Y-128500000D03*
X98500000Y-74000000D03*
X112000000Y-85000000D03*
X104500000Y-68000000D03*
X106750000Y-118500000D03*
X127000000Y-83000000D03*
X107500000Y-58000000D03*
X87000000Y-106000000D03*
X126000000Y-128500000D03*
X127000000Y-48100000D03*
X106750000Y-123750000D03*
X90000000Y-146500000D03*
X78000000Y-103000000D03*
X122640000Y-102460000D03*
X103000000Y-63500000D03*
X130000000Y-116000000D03*
X98331421Y-137649999D03*
X133000000Y-101000000D03*
X118000000Y-68000000D03*
X91000000Y-100000000D03*
X133000000Y-134000000D03*
X94000000Y-51000000D03*
X84000000Y-118000000D03*
X78000000Y-130000000D03*
X113180000Y-130220000D03*
X97000000Y-48100000D03*
D21*
X117970000Y-71010000D03*
D19*
X119440000Y-103510000D03*
X108000000Y-146500000D03*
X97000000Y-60500000D03*
X104250000Y-115500000D03*
X99370000Y-119240000D03*
X133000000Y-104000000D03*
X112000000Y-90300000D03*
X108000000Y-125000000D03*
X106750000Y-119500000D03*
X100000000Y-71000000D03*
X84000000Y-112000000D03*
X120000000Y-131500000D03*
X123710000Y-120230000D03*
X112000000Y-91500000D03*
X78000000Y-136000000D03*
X115000000Y-48100000D03*
X106750000Y-107250000D03*
X94000000Y-106000000D03*
X114000000Y-146500000D03*
X84000000Y-146500000D03*
X108000000Y-115500000D03*
X87000000Y-143500000D03*
X96500000Y-130000000D03*
X78000000Y-79000000D03*
X91000000Y-103000000D03*
D20*
X116110000Y-109210000D03*
D19*
X78000000Y-127000000D03*
X110998000Y-126492000D03*
X133000000Y-86000000D03*
X78000000Y-94000000D03*
X105000000Y-143500000D03*
X100000000Y-68000000D03*
X117000000Y-143500000D03*
X108000000Y-117500000D03*
X101500000Y-75500000D03*
X117000000Y-131500000D03*
X97000000Y-51000000D03*
X103000000Y-119500000D03*
X104250000Y-118500000D03*
X95500000Y-62000000D03*
X87000000Y-103000000D03*
X120000000Y-137500000D03*
X98500000Y-78500000D03*
X87000000Y-140500000D03*
X96500000Y-121500000D03*
X104500000Y-63500000D03*
X94000000Y-112000000D03*
X130000000Y-62000000D03*
X84000000Y-121000000D03*
X105500000Y-121250000D03*
X109000000Y-48100000D03*
X114000000Y-137500000D03*
X82000000Y-64000000D03*
X103000000Y-122500000D03*
X104250000Y-119500000D03*
X78000000Y-73000000D03*
X78000000Y-76000000D03*
X101500000Y-65000000D03*
X120000000Y-146500000D03*
X130000000Y-89000000D03*
X126000000Y-143500000D03*
X123000000Y-134500000D03*
X96000000Y-146500000D03*
X126500000Y-69500000D03*
X117000000Y-128500000D03*
X97000000Y-97000000D03*
X124000000Y-48100000D03*
X98440000Y-121490000D03*
X115000000Y-51000000D03*
X127000000Y-62000000D03*
X92680000Y-133370000D03*
X99000000Y-146500000D03*
X103000000Y-117500000D03*
X118000000Y-89000000D03*
X128690000Y-107620000D03*
X119500000Y-69500000D03*
X87000000Y-146500000D03*
X111000000Y-137500000D03*
X98500000Y-62000000D03*
X106750000Y-108750000D03*
X104250000Y-123750000D03*
X120000000Y-143500000D03*
X93000000Y-146500000D03*
X118000000Y-51000000D03*
X130000000Y-101000000D03*
X90000000Y-137500000D03*
X112512000Y-61250000D03*
X94000000Y-103000000D03*
X105500000Y-119500000D03*
X100000000Y-60500000D03*
X98500000Y-77000000D03*
X78000000Y-88000000D03*
X104560000Y-75500000D03*
X91000000Y-97000000D03*
X118000000Y-86000000D03*
X104500000Y-71000000D03*
X100000000Y-78500000D03*
X133000000Y-119000000D03*
X91000000Y-51000000D03*
X123000000Y-128500000D03*
X94000000Y-97000000D03*
X81000000Y-133000000D03*
X100000000Y-63500000D03*
X85000000Y-54000000D03*
X126000000Y-146500000D03*
X101500000Y-77000000D03*
X117000000Y-137500000D03*
X97000000Y-62000000D03*
X104500000Y-72500000D03*
X130000000Y-131000000D03*
X108000000Y-119500000D03*
X103000000Y-65000000D03*
X130000000Y-92000000D03*
X104500000Y-65000000D03*
X104250000Y-117500000D03*
X78000000Y-100000000D03*
D21*
X119500000Y-70998468D03*
D19*
X81000000Y-127000000D03*
X130000000Y-86000000D03*
X123000000Y-131500000D03*
X97000000Y-63500000D03*
X133000000Y-56000000D03*
D21*
X125800000Y-82625000D03*
D19*
X133000000Y-95000000D03*
X126500000Y-75500000D03*
X100000000Y-48100000D03*
X107500000Y-81250000D03*
X130000000Y-134000000D03*
X101500000Y-71000000D03*
X106000000Y-48100000D03*
X98500000Y-65000000D03*
X103000000Y-68000000D03*
X103000000Y-78500000D03*
X101500000Y-63500000D03*
X85000000Y-61000000D03*
X121000000Y-48100000D03*
X91000000Y-106000000D03*
X84000000Y-115000000D03*
X115440000Y-96940000D03*
X101500000Y-68000000D03*
X91000000Y-109000000D03*
X126500000Y-71000000D03*
X97000000Y-106000000D03*
X124000000Y-51000000D03*
X102000000Y-143500000D03*
X111000000Y-143500000D03*
X123000000Y-125000000D03*
X105500000Y-125000000D03*
X104250000Y-122500000D03*
X108000000Y-121250000D03*
X87000000Y-127000000D03*
X123000000Y-140500000D03*
X84000000Y-106000000D03*
X78000000Y-115000000D03*
X81000000Y-130000000D03*
X133000000Y-92000000D03*
X103000000Y-75500000D03*
X98500000Y-60500000D03*
X130000000Y-128000000D03*
X133000000Y-107000000D03*
X101500000Y-72500000D03*
X108000000Y-140500000D03*
X84000000Y-109000000D03*
X100000000Y-65000000D03*
X127000000Y-86000000D03*
X133000000Y-137000000D03*
X132297000Y-108743000D03*
X100000000Y-62000000D03*
X103000000Y-66500000D03*
X126000000Y-131500000D03*
X98500000Y-75500000D03*
%TO.N,/VDD*%
X104500000Y-81250000D03*
X108000000Y-114100000D03*
D20*
X113750000Y-76725000D03*
D19*
X106750000Y-111000000D03*
X103000000Y-111000000D03*
X108000000Y-109500000D03*
X109750000Y-103500000D03*
X101250000Y-103500000D03*
D20*
X84500000Y-76160000D03*
D19*
X105500000Y-99000000D03*
X105500000Y-111000000D03*
X103000000Y-109500000D03*
X108000000Y-106500000D03*
X105500000Y-103500000D03*
X109750000Y-105000000D03*
X103000000Y-106500000D03*
X103000000Y-114100000D03*
X103000000Y-112000000D03*
X106750000Y-112000000D03*
X105500000Y-108000000D03*
X104250000Y-114100000D03*
X108000000Y-99000000D03*
X108000000Y-112000000D03*
X103000000Y-80000000D03*
X101250000Y-99000000D03*
X105500000Y-114100000D03*
X103000000Y-113100000D03*
X102966668Y-102000000D03*
X105500000Y-106500000D03*
X102966668Y-105000000D03*
X101250000Y-105000000D03*
X109750000Y-106500000D03*
X106750000Y-113080000D03*
X105500000Y-100500000D03*
X108000000Y-105000000D03*
X108000000Y-103500000D03*
X108000000Y-100500000D03*
X108000000Y-111000000D03*
X101250000Y-100500000D03*
X103000000Y-99000000D03*
X101250000Y-108000000D03*
X108000000Y-113075000D03*
X101250000Y-102000000D03*
X109750000Y-99000000D03*
X105500000Y-105000000D03*
X109750000Y-108000000D03*
X108000000Y-102000000D03*
X104250000Y-112000000D03*
X105500000Y-112000000D03*
X109750000Y-102000000D03*
X103000000Y-103500000D03*
X101500000Y-80000000D03*
X108000000Y-108000000D03*
X106750000Y-114100000D03*
X105500000Y-102000000D03*
X103000000Y-100500000D03*
X104250000Y-113100000D03*
X101500000Y-81250000D03*
X103016668Y-108000000D03*
X105500000Y-109500000D03*
X101250000Y-106500000D03*
X104250000Y-111000000D03*
X105500000Y-113100000D03*
X109750000Y-100500000D03*
X103000000Y-81250000D03*
D20*
%TO.N,/ESP32/EN*%
X122101300Y-70905000D03*
X127228000Y-104448000D03*
D19*
%TO.N,/5V*%
X93500000Y-68500000D03*
X94750000Y-68500000D03*
X92250000Y-66000000D03*
X94750000Y-71000000D03*
X93500000Y-71000000D03*
X92250000Y-68500000D03*
X96000000Y-66000000D03*
X94750000Y-69750000D03*
D22*
X109280000Y-61185155D03*
D19*
X108290000Y-131179000D03*
X93500000Y-67250000D03*
X96000000Y-71000000D03*
X92250000Y-69750000D03*
X99710000Y-131420000D03*
X96000000Y-67250000D03*
X94750000Y-67250000D03*
X94750000Y-66000000D03*
D21*
X80680000Y-70950000D03*
D19*
X93500000Y-69750000D03*
X92250000Y-71000000D03*
X96000000Y-68500000D03*
X100900000Y-136150000D03*
X93500000Y-66000000D03*
X92250000Y-67270000D03*
%TO.N,/3V3*%
X129830000Y-56090000D03*
D21*
X124375000Y-82650000D03*
D20*
X111520000Y-71340000D03*
D19*
X123394000Y-86260000D03*
X111500000Y-74500000D03*
X96380000Y-133670000D03*
D22*
X110900000Y-56800000D03*
D19*
X122930000Y-99700000D03*
X120300000Y-56925000D03*
X127250000Y-107630000D03*
D21*
X114250000Y-61560000D03*
D19*
X95560000Y-126330000D03*
D20*
%TO.N,/TX*%
X120850000Y-78875000D03*
%TO.N,/RX*%
X120750000Y-77650000D03*
%TO.N,/RST*%
X121476817Y-70170000D03*
%TO.N,/SCL*%
X94317599Y-134229617D03*
X89000000Y-81250000D03*
X109500000Y-67000000D03*
%TO.N,Net-(U2-BP1V5)*%
X89000000Y-82000000D03*
X83660000Y-76570000D03*
%TO.N,/ESP32/P_TX*%
X124125000Y-61850000D03*
%TO.N,/ESP32/P_RX*%
X124125000Y-60375000D03*
%TO.N,/ESP32/IO0*%
X120440000Y-65250000D03*
X124830000Y-55100000D03*
X125500000Y-102500000D03*
%TO.N,Net-(U2-VDD5)*%
X92570000Y-74110000D03*
X102820000Y-73740000D03*
%TO.N,/Power/PGOOD*%
X109500000Y-73250000D03*
X90800000Y-82400000D03*
%TO.N,/SDA*%
X82130000Y-73910000D03*
X94340000Y-133580000D03*
X109500000Y-68500000D03*
X89250000Y-80500000D03*
X82390000Y-75900000D03*
D19*
%TO.N,Net-(U8-VDDIO_12_1)*%
X100770000Y-123700000D03*
%TO.N,Net-(U8-VDDIO_08_1)*%
X99180000Y-123710000D03*
D20*
%TO.N,Net-(J5-CC1)*%
X83360000Y-84520000D03*
%TO.N,Net-(J5-CC2)*%
X83380000Y-81510000D03*
%TO.N,Net-(U8-LITE_PAD)*%
X119420000Y-118020000D03*
%TO.N,Net-(U8-INV_CLKO)*%
X124540000Y-121820000D03*
%TO.N,/Fan/TEMP_N*%
X92180000Y-119960000D03*
%TO.N,/Fan/TEMP_P*%
X92940000Y-119930000D03*
%TO.N,/Power/AGND*%
X89170000Y-77830000D03*
X90050000Y-73300000D03*
X89550000Y-74800000D03*
%TO.N,/Power/PMB_ALRT*%
X93330000Y-81550000D03*
D19*
%TO.N,/BM1370/VDD3_0*%
X113125000Y-113200000D03*
%TO.N,/BM1370/1V2*%
X110950000Y-124990000D03*
X124600000Y-101830000D03*
D20*
X106050000Y-126450000D03*
D19*
X115430000Y-103510000D03*
%TO.N,/BM1370/0V8*%
X110970000Y-123700000D03*
%TO.N,/BM1370/VDD2_0*%
X112017500Y-113042500D03*
%TO.N,/BM1370/VDD1_0*%
X110892500Y-112667500D03*
%TO.N,/BM1370/VDD1_1*%
X100540000Y-112125000D03*
%TO.N,/BM1370/VDD2_1*%
X99360000Y-112350000D03*
%TO.N,/BM1370/VDD3_1*%
X98767500Y-113657500D03*
D20*
%TO.N,/BM1370/BI*%
X119420000Y-114790000D03*
%TO.N,/BM1370/RST_N*%
X114500000Y-105750000D03*
%TO.N,/BM1370/CI*%
X115250000Y-105500000D03*
%TO.N,/BM1370/RO*%
X116000000Y-105250000D03*
X118320000Y-108370000D03*
%TO.N,/BM1370/CLKI*%
X118500000Y-113660000D03*
%TO.N,/BM1370/NRSTO*%
X92480000Y-112210000D03*
%TO.N,/BM1370/CO*%
X92480000Y-113611428D03*
%TO.N,/BM1370/RI*%
X92480000Y-115012856D03*
X100450000Y-126600000D03*
%TO.N,/BM1370/CLKO*%
X92480000Y-116414284D03*
%TO.N,/BM1370/BO*%
X92480000Y-117815712D03*
%TO.N,/BM1370/PIN_MODE*%
X91400000Y-120430000D03*
%TD*%
%TA.AperFunction,Conductor*%
%TO.N,GND*%
G36*
X131195801Y-47672730D02*
G01*
X131223717Y-47674418D01*
X131472425Y-47689462D01*
X131487506Y-47691293D01*
X131756357Y-47740562D01*
X131771104Y-47744197D01*
X132032064Y-47825515D01*
X132046276Y-47830906D01*
X132295505Y-47943074D01*
X132308970Y-47950141D01*
X132542876Y-48091541D01*
X132555383Y-48100174D01*
X132770537Y-48268737D01*
X132781925Y-48278827D01*
X132975172Y-48472074D01*
X132985262Y-48483462D01*
X133153819Y-48698608D01*
X133162463Y-48711131D01*
X133303856Y-48945025D01*
X133310926Y-48958497D01*
X133423091Y-49207718D01*
X133428487Y-49221944D01*
X133509798Y-49482879D01*
X133513439Y-49497653D01*
X133562704Y-49766481D01*
X133564538Y-49781585D01*
X133581270Y-50058197D01*
X133581500Y-50065805D01*
X133581500Y-62674000D01*
X133561498Y-62742121D01*
X133507842Y-62788614D01*
X133455500Y-62800000D01*
X127200000Y-62800000D01*
X127200000Y-82400000D01*
X133455500Y-82400000D01*
X133523621Y-82420002D01*
X133570114Y-82473658D01*
X133581500Y-82526000D01*
X133581500Y-144740194D01*
X133581270Y-144747802D01*
X133564538Y-145024414D01*
X133562704Y-145039518D01*
X133513439Y-145308346D01*
X133509798Y-145323120D01*
X133428487Y-145584055D01*
X133423091Y-145598281D01*
X133310926Y-145847502D01*
X133303856Y-145860974D01*
X133162463Y-146094868D01*
X133153819Y-146107391D01*
X132985262Y-146322537D01*
X132975172Y-146333925D01*
X132781925Y-146527172D01*
X132770537Y-146537262D01*
X132555391Y-146705819D01*
X132542868Y-146714463D01*
X132308974Y-146855856D01*
X132295502Y-146862926D01*
X132046281Y-146975091D01*
X132032055Y-146980487D01*
X131771120Y-147061798D01*
X131756346Y-147065439D01*
X131487518Y-147114704D01*
X131472414Y-147116538D01*
X131195802Y-147133270D01*
X131188194Y-147133500D01*
X79732806Y-147133500D01*
X79725198Y-147133270D01*
X79448585Y-147116538D01*
X79433481Y-147114704D01*
X79164653Y-147065439D01*
X79149883Y-147061799D01*
X78888944Y-146980487D01*
X78874718Y-146975091D01*
X78625497Y-146862926D01*
X78612025Y-146855856D01*
X78442394Y-146753311D01*
X78378127Y-146714460D01*
X78365613Y-146705822D01*
X78150462Y-146537262D01*
X78139074Y-146527172D01*
X77945827Y-146333925D01*
X77935737Y-146322537D01*
X77845578Y-146207458D01*
X77767174Y-146107383D01*
X77758541Y-146094876D01*
X77617141Y-145860970D01*
X77610073Y-145847502D01*
X77540779Y-145693536D01*
X77497906Y-145598276D01*
X77492515Y-145584064D01*
X77411197Y-145323104D01*
X77407562Y-145308357D01*
X77358293Y-145039506D01*
X77356462Y-145024425D01*
X77339730Y-144747801D01*
X77339500Y-144740194D01*
X77339500Y-143520053D01*
X88325600Y-143520053D01*
X88325600Y-143723946D01*
X88357498Y-143925345D01*
X88420503Y-144119256D01*
X88420506Y-144119262D01*
X88513075Y-144300939D01*
X88513081Y-144300950D01*
X88542435Y-144341351D01*
X88542437Y-144341351D01*
X89109570Y-143774218D01*
X89123950Y-143827885D01*
X89194174Y-143949515D01*
X89293485Y-144048826D01*
X89415115Y-144119050D01*
X89468780Y-144133429D01*
X88901647Y-144700562D01*
X88942058Y-144729923D01*
X88942060Y-144729924D01*
X89123737Y-144822493D01*
X89123743Y-144822496D01*
X89317655Y-144885501D01*
X89317652Y-144885501D01*
X89519053Y-144917400D01*
X89722947Y-144917400D01*
X89924345Y-144885501D01*
X90118256Y-144822496D01*
X90118262Y-144822493D01*
X90299941Y-144729923D01*
X90340351Y-144700562D01*
X90340351Y-144700560D01*
X89773220Y-144133429D01*
X89826885Y-144119050D01*
X89948515Y-144048826D01*
X90047826Y-143949515D01*
X90118050Y-143827885D01*
X90132429Y-143774220D01*
X90699560Y-144341351D01*
X90699562Y-144341351D01*
X90728925Y-144300939D01*
X90778452Y-144203735D01*
X90827199Y-144152120D01*
X90896114Y-144135053D01*
X90963316Y-144157953D01*
X91002985Y-144203733D01*
X91002986Y-144203735D01*
X91052649Y-144301203D01*
X91172544Y-144466224D01*
X91316775Y-144610455D01*
X91316778Y-144610457D01*
X91481800Y-144730353D01*
X91663547Y-144822957D01*
X91857543Y-144885990D01*
X92059010Y-144917900D01*
X92059013Y-144917900D01*
X92262987Y-144917900D01*
X92262990Y-144917900D01*
X92464457Y-144885990D01*
X92658453Y-144822957D01*
X92840200Y-144730353D01*
X93005222Y-144610457D01*
X93149457Y-144466222D01*
X93269353Y-144301200D01*
X93318733Y-144204284D01*
X93367481Y-144152669D01*
X93436396Y-144135603D01*
X93503597Y-144158503D01*
X93543267Y-144204285D01*
X93592647Y-144301200D01*
X93712544Y-144466224D01*
X93856775Y-144610455D01*
X93856778Y-144610457D01*
X94021800Y-144730353D01*
X94191312Y-144816723D01*
X94242928Y-144865471D01*
X94259994Y-144934386D01*
X94237094Y-145001587D01*
X94204112Y-145033755D01*
X94128431Y-145084323D01*
X94128425Y-145084328D01*
X94003327Y-145209426D01*
X94003322Y-145209432D01*
X93905025Y-145356544D01*
X93837319Y-145520000D01*
X93837317Y-145520005D01*
X93802800Y-145693533D01*
X93802800Y-145693536D01*
X93802800Y-145870466D01*
X93837317Y-146043996D01*
X93905025Y-146207458D01*
X93969111Y-146303368D01*
X94003322Y-146354569D01*
X94003327Y-146354575D01*
X94128425Y-146479673D01*
X94128431Y-146479678D01*
X94275543Y-146577976D01*
X94439005Y-146645684D01*
X94612535Y-146680201D01*
X94612536Y-146680201D01*
X94789464Y-146680201D01*
X94789465Y-146680201D01*
X94962995Y-146645684D01*
X95126457Y-146577976D01*
X95273569Y-146479678D01*
X95398677Y-146354570D01*
X95496975Y-146207458D01*
X95564683Y-146043996D01*
X95599200Y-145870466D01*
X95599200Y-145693536D01*
X95564683Y-145520006D01*
X95496975Y-145356544D01*
X95398677Y-145209432D01*
X95398672Y-145209426D01*
X95273574Y-145084328D01*
X95273568Y-145084323D01*
X95245436Y-145065526D01*
X95197885Y-145033753D01*
X95152359Y-144979278D01*
X95143511Y-144908835D01*
X95174152Y-144844791D01*
X95210685Y-144816724D01*
X95380200Y-144730353D01*
X95545222Y-144610457D01*
X95689457Y-144466222D01*
X95809353Y-144301200D01*
X95858733Y-144204284D01*
X95907481Y-144152669D01*
X95976396Y-144135603D01*
X96043597Y-144158503D01*
X96083267Y-144204285D01*
X96132647Y-144301200D01*
X96252544Y-144466224D01*
X96396775Y-144610455D01*
X96396778Y-144610457D01*
X96561800Y-144730353D01*
X96743547Y-144822957D01*
X96937543Y-144885990D01*
X97139010Y-144917900D01*
X97139013Y-144917900D01*
X97342987Y-144917900D01*
X97342990Y-144917900D01*
X97544457Y-144885990D01*
X97738453Y-144822957D01*
X97920200Y-144730353D01*
X98085222Y-144610457D01*
X98229457Y-144466222D01*
X98349353Y-144301200D01*
X98441957Y-144119453D01*
X98504990Y-143925457D01*
X98536900Y-143723990D01*
X98536900Y-143520010D01*
X98504990Y-143318543D01*
X98441957Y-143124547D01*
X98349353Y-142942800D01*
X98229457Y-142777778D01*
X98229455Y-142777775D01*
X98085224Y-142633544D01*
X97920200Y-142513647D01*
X97738460Y-142421046D01*
X97738448Y-142421041D01*
X97544461Y-142358011D01*
X97544459Y-142358010D01*
X97544457Y-142358010D01*
X97342990Y-142326100D01*
X97139010Y-142326100D01*
X96937543Y-142358010D01*
X96937541Y-142358010D01*
X96937538Y-142358011D01*
X96743551Y-142421041D01*
X96743539Y-142421046D01*
X96561799Y-142513647D01*
X96396775Y-142633544D01*
X96252544Y-142777775D01*
X96132649Y-142942796D01*
X96083267Y-143039715D01*
X96034519Y-143091330D01*
X95965604Y-143108396D01*
X95898402Y-143085495D01*
X95858733Y-143039715D01*
X95809353Y-142942800D01*
X95689457Y-142777778D01*
X95689455Y-142777775D01*
X95545224Y-142633544D01*
X95380200Y-142513647D01*
X95198460Y-142421046D01*
X95198448Y-142421041D01*
X95004461Y-142358011D01*
X95004459Y-142358010D01*
X95004457Y-142358010D01*
X94802990Y-142326100D01*
X94599010Y-142326100D01*
X94397543Y-142358010D01*
X94397541Y-142358010D01*
X94397538Y-142358011D01*
X94203551Y-142421041D01*
X94203539Y-142421046D01*
X94021799Y-142513647D01*
X93856775Y-142633544D01*
X93712544Y-142777775D01*
X93592649Y-142942796D01*
X93543267Y-143039715D01*
X93494519Y-143091330D01*
X93425604Y-143108396D01*
X93358402Y-143085495D01*
X93318733Y-143039715D01*
X93269353Y-142942800D01*
X93149457Y-142777778D01*
X93149455Y-142777775D01*
X93005224Y-142633544D01*
X92840200Y-142513647D01*
X92658460Y-142421046D01*
X92658448Y-142421041D01*
X92464461Y-142358011D01*
X92464459Y-142358010D01*
X92464457Y-142358010D01*
X92262990Y-142326100D01*
X92059010Y-142326100D01*
X91857543Y-142358010D01*
X91857541Y-142358010D01*
X91857538Y-142358011D01*
X91663551Y-142421041D01*
X91663539Y-142421046D01*
X91481799Y-142513647D01*
X91316775Y-142633544D01*
X91172544Y-142777775D01*
X91052648Y-142942797D01*
X91002986Y-143040265D01*
X90954237Y-143091880D01*
X90885322Y-143108946D01*
X90818121Y-143086045D01*
X90778452Y-143040264D01*
X90728927Y-142943064D01*
X90728923Y-142943058D01*
X90699562Y-142902647D01*
X90132429Y-143469779D01*
X90118050Y-143416115D01*
X90047826Y-143294485D01*
X89948515Y-143195174D01*
X89826885Y-143124950D01*
X89773219Y-143110570D01*
X90340351Y-142543437D01*
X90340351Y-142543435D01*
X90299950Y-142514081D01*
X90299939Y-142514075D01*
X90118262Y-142421506D01*
X90118256Y-142421503D01*
X89924344Y-142358498D01*
X89924347Y-142358498D01*
X89722947Y-142326600D01*
X89519053Y-142326600D01*
X89317654Y-142358498D01*
X89123743Y-142421503D01*
X89123737Y-142421506D01*
X88942058Y-142514076D01*
X88901647Y-142543436D01*
X88901647Y-142543438D01*
X89468779Y-143110570D01*
X89415115Y-143124950D01*
X89293485Y-143195174D01*
X89194174Y-143294485D01*
X89123950Y-143416115D01*
X89109570Y-143469779D01*
X88542438Y-142902647D01*
X88542436Y-142902647D01*
X88513076Y-142943058D01*
X88420506Y-143124737D01*
X88420503Y-143124743D01*
X88357498Y-143318654D01*
X88325600Y-143520053D01*
X77339500Y-143520053D01*
X77339500Y-136087656D01*
X81192000Y-136087656D01*
X81192000Y-136432343D01*
X81225782Y-136775336D01*
X81225785Y-136775357D01*
X81293022Y-137113389D01*
X81393078Y-137443228D01*
X81524981Y-137761672D01*
X81687460Y-138065650D01*
X81878945Y-138352227D01*
X81878956Y-138352242D01*
X82045551Y-138555238D01*
X83474960Y-137125829D01*
X83555864Y-137237184D01*
X83722816Y-137404136D01*
X83834169Y-137485038D01*
X82404760Y-138914447D01*
X82607757Y-139081043D01*
X82607772Y-139081054D01*
X82894349Y-139272539D01*
X83198327Y-139435018D01*
X83516771Y-139566921D01*
X83846610Y-139666977D01*
X84184642Y-139734214D01*
X84184663Y-139734217D01*
X84527656Y-139767999D01*
X84527672Y-139768000D01*
X84872328Y-139768000D01*
X84872343Y-139767999D01*
X85215336Y-139734217D01*
X85215357Y-139734214D01*
X85553389Y-139666977D01*
X85883228Y-139566921D01*
X86201672Y-139435018D01*
X86505650Y-139272539D01*
X86792225Y-139081056D01*
X86792231Y-139081051D01*
X86995238Y-138914447D01*
X85565830Y-137485039D01*
X85677184Y-137404136D01*
X85844136Y-137237184D01*
X85925039Y-137125830D01*
X87354447Y-138555238D01*
X87521051Y-138352231D01*
X87521056Y-138352225D01*
X87712539Y-138065650D01*
X87875018Y-137761672D01*
X88006921Y-137443228D01*
X88106977Y-137113389D01*
X88174214Y-136775357D01*
X88174217Y-136775336D01*
X88207999Y-136432343D01*
X88208000Y-136432327D01*
X88208000Y-136087672D01*
X88207999Y-136087661D01*
X88205933Y-136066683D01*
X88205933Y-136066681D01*
X88205326Y-136060518D01*
X99991500Y-136060518D01*
X99991500Y-136239481D01*
X99995582Y-136260000D01*
X100026413Y-136415000D01*
X100094898Y-136580336D01*
X100194322Y-136729135D01*
X100320865Y-136855678D01*
X100469664Y-136955102D01*
X100635000Y-137023587D01*
X100810521Y-137058500D01*
X100810522Y-137058500D01*
X100989478Y-137058500D01*
X100989479Y-137058500D01*
X101165000Y-137023587D01*
X101330336Y-136955102D01*
X101479135Y-136855678D01*
X101605678Y-136729135D01*
X101705102Y-136580336D01*
X101773587Y-136415000D01*
X101808500Y-136239479D01*
X101808500Y-136087656D01*
X122942000Y-136087656D01*
X122942000Y-136432343D01*
X122975782Y-136775336D01*
X122975785Y-136775357D01*
X123043022Y-137113389D01*
X123143078Y-137443228D01*
X123274981Y-137761672D01*
X123437460Y-138065650D01*
X123628945Y-138352227D01*
X123628956Y-138352242D01*
X123795551Y-138555238D01*
X125224960Y-137125829D01*
X125305864Y-137237184D01*
X125472816Y-137404136D01*
X125584169Y-137485038D01*
X124154760Y-138914447D01*
X124357757Y-139081043D01*
X124357772Y-139081054D01*
X124644349Y-139272539D01*
X124948327Y-139435018D01*
X125266771Y-139566921D01*
X125596610Y-139666977D01*
X125934642Y-139734214D01*
X125934663Y-139734217D01*
X126277656Y-139767999D01*
X126277672Y-139768000D01*
X126622328Y-139768000D01*
X126622343Y-139767999D01*
X126965336Y-139734217D01*
X126965357Y-139734214D01*
X127303389Y-139666977D01*
X127633228Y-139566921D01*
X127951672Y-139435018D01*
X128255650Y-139272539D01*
X128542225Y-139081056D01*
X128542231Y-139081051D01*
X128745238Y-138914447D01*
X127315830Y-137485039D01*
X127427184Y-137404136D01*
X127594136Y-137237184D01*
X127675039Y-137125830D01*
X129104447Y-138555238D01*
X129271051Y-138352231D01*
X129271056Y-138352225D01*
X129462539Y-138065650D01*
X129625018Y-137761672D01*
X129756921Y-137443228D01*
X129856977Y-137113389D01*
X129924214Y-136775357D01*
X129924217Y-136775336D01*
X129957999Y-136432343D01*
X129958000Y-136432327D01*
X129958000Y-136087672D01*
X129957999Y-136087656D01*
X129924217Y-135744663D01*
X129924214Y-135744642D01*
X129856977Y-135406610D01*
X129756921Y-135076771D01*
X129625018Y-134758327D01*
X129462539Y-134454349D01*
X129271054Y-134167772D01*
X129271043Y-134167757D01*
X129104447Y-133964760D01*
X127675038Y-135394168D01*
X127594136Y-135282816D01*
X127427184Y-135115864D01*
X127315829Y-135034960D01*
X128745238Y-133605551D01*
X128542242Y-133438956D01*
X128542227Y-133438945D01*
X128255650Y-133247460D01*
X127951672Y-133084981D01*
X127633228Y-132953078D01*
X127303389Y-132853022D01*
X126965357Y-132785785D01*
X126965336Y-132785782D01*
X126622343Y-132752000D01*
X126277656Y-132752000D01*
X125934663Y-132785782D01*
X125934642Y-132785785D01*
X125596610Y-132853022D01*
X125266771Y-132953078D01*
X124948327Y-133084981D01*
X124644349Y-133247460D01*
X124357764Y-133438950D01*
X124154760Y-133605550D01*
X124154760Y-133605551D01*
X125584169Y-135034960D01*
X125472816Y-135115864D01*
X125305864Y-135282816D01*
X125224960Y-135394169D01*
X123795551Y-133964760D01*
X123795550Y-133964760D01*
X123628950Y-134167764D01*
X123437460Y-134454349D01*
X123274981Y-134758327D01*
X123143078Y-135076771D01*
X123043022Y-135406610D01*
X122975785Y-135744642D01*
X122975782Y-135744663D01*
X122942000Y-136087656D01*
X101808500Y-136087656D01*
X101808500Y-136060521D01*
X101773587Y-135885000D01*
X101705102Y-135719664D01*
X101605678Y-135570865D01*
X101479135Y-135444322D01*
X101330336Y-135344898D01*
X101180458Y-135282816D01*
X101165003Y-135276414D01*
X101165001Y-135276413D01*
X101165000Y-135276413D01*
X101076645Y-135258838D01*
X100989481Y-135241500D01*
X100989479Y-135241500D01*
X100810521Y-135241500D01*
X100810518Y-135241500D01*
X100679771Y-135267507D01*
X100635000Y-135276413D01*
X100634999Y-135276413D01*
X100634996Y-135276414D01*
X100469662Y-135344899D01*
X100320869Y-135444319D01*
X100320862Y-135444324D01*
X100194324Y-135570862D01*
X100194319Y-135570869D01*
X100094899Y-135719662D01*
X100026414Y-135884996D01*
X99991500Y-136060518D01*
X88205326Y-136060518D01*
X88174217Y-135744663D01*
X88174214Y-135744642D01*
X88106977Y-135406610D01*
X88006921Y-135076771D01*
X87875018Y-134758327D01*
X87712539Y-134454349D01*
X87555099Y-134218723D01*
X87521054Y-134167772D01*
X87521043Y-134167757D01*
X87510497Y-134154907D01*
X93559099Y-134154907D01*
X93559099Y-134304326D01*
X93588248Y-134450863D01*
X93588249Y-134450866D01*
X93626655Y-134543587D01*
X93645425Y-134588901D01*
X93728434Y-134713133D01*
X93834083Y-134818782D01*
X93958315Y-134901791D01*
X94096353Y-134958968D01*
X94242893Y-134988117D01*
X94392305Y-134988117D01*
X94538845Y-134958968D01*
X94676883Y-134901791D01*
X94801115Y-134818782D01*
X94906764Y-134713133D01*
X94989773Y-134588901D01*
X95046950Y-134450863D01*
X95076099Y-134304323D01*
X95076099Y-134154911D01*
X95046950Y-134008371D01*
X95046948Y-134008367D01*
X95046947Y-134008362D01*
X95035227Y-133980070D01*
X95027635Y-133909480D01*
X95035226Y-133883629D01*
X95069349Y-133801250D01*
X95069351Y-133801246D01*
X95098500Y-133654706D01*
X95098500Y-133580518D01*
X95471500Y-133580518D01*
X95471500Y-133759481D01*
X95479810Y-133801256D01*
X95506413Y-133935000D01*
X95574898Y-134100336D01*
X95674322Y-134249135D01*
X95800865Y-134375678D01*
X95949664Y-134475102D01*
X96115000Y-134543587D01*
X96290521Y-134578500D01*
X96290522Y-134578500D01*
X96469478Y-134578500D01*
X96469479Y-134578500D01*
X96645000Y-134543587D01*
X96810336Y-134475102D01*
X96959135Y-134375678D01*
X97085678Y-134249135D01*
X97185102Y-134100336D01*
X97253587Y-133935000D01*
X97288500Y-133759479D01*
X97288500Y-133580521D01*
X97253587Y-133405000D01*
X97185102Y-133239664D01*
X97085678Y-133090865D01*
X96959135Y-132964322D01*
X96810336Y-132864898D01*
X96693429Y-132816473D01*
X96645003Y-132796414D01*
X96645001Y-132796413D01*
X96645000Y-132796413D01*
X96556645Y-132778838D01*
X96469481Y-132761500D01*
X96469479Y-132761500D01*
X96290521Y-132761500D01*
X96290518Y-132761500D01*
X96168446Y-132785782D01*
X96115000Y-132796413D01*
X96114999Y-132796413D01*
X96114996Y-132796414D01*
X95949662Y-132864899D01*
X95800869Y-132964319D01*
X95800862Y-132964324D01*
X95674324Y-133090862D01*
X95674319Y-133090869D01*
X95574899Y-133239662D01*
X95506414Y-133404996D01*
X95471500Y-133580518D01*
X95098500Y-133580518D01*
X95098500Y-133505294D01*
X95069351Y-133358754D01*
X95012174Y-133220716D01*
X94929165Y-133096484D01*
X94823516Y-132990835D01*
X94699284Y-132907826D01*
X94595649Y-132864899D01*
X94561249Y-132850650D01*
X94561246Y-132850649D01*
X94414709Y-132821500D01*
X94414706Y-132821500D01*
X94265294Y-132821500D01*
X94265290Y-132821500D01*
X94118753Y-132850649D01*
X94118750Y-132850650D01*
X93980715Y-132907826D01*
X93856488Y-132990832D01*
X93856481Y-132990837D01*
X93750837Y-133096481D01*
X93750832Y-133096488D01*
X93667826Y-133220715D01*
X93610650Y-133358750D01*
X93610649Y-133358753D01*
X93581500Y-133505290D01*
X93581500Y-133654709D01*
X93610649Y-133801246D01*
X93610652Y-133801256D01*
X93622372Y-133829550D01*
X93629961Y-133900140D01*
X93622372Y-133925984D01*
X93588250Y-134008362D01*
X93588248Y-134008370D01*
X93559099Y-134154907D01*
X87510497Y-134154907D01*
X87354447Y-133964760D01*
X85925038Y-135394168D01*
X85844136Y-135282816D01*
X85677184Y-135115864D01*
X85565829Y-135034960D01*
X86995238Y-133605551D01*
X86792242Y-133438956D01*
X86792227Y-133438945D01*
X86505650Y-133247460D01*
X86201672Y-133084981D01*
X85883228Y-132953078D01*
X85553389Y-132853022D01*
X85215357Y-132785785D01*
X85215336Y-132785782D01*
X84872343Y-132752000D01*
X84527656Y-132752000D01*
X84184663Y-132785782D01*
X84184642Y-132785785D01*
X83846610Y-132853022D01*
X83516771Y-132953078D01*
X83198327Y-133084981D01*
X82894349Y-133247460D01*
X82607764Y-133438950D01*
X82404760Y-133605550D01*
X82404760Y-133605551D01*
X83834169Y-135034960D01*
X83722816Y-135115864D01*
X83555864Y-135282816D01*
X83474960Y-135394169D01*
X82045551Y-133964760D01*
X82045550Y-133964760D01*
X81878950Y-134167764D01*
X81687460Y-134454349D01*
X81524981Y-134758327D01*
X81393078Y-135076771D01*
X81293022Y-135406610D01*
X81225785Y-135744642D01*
X81225782Y-135744663D01*
X81192000Y-136087656D01*
X77339500Y-136087656D01*
X77339500Y-131330518D01*
X98801500Y-131330518D01*
X98801500Y-131330521D01*
X98801500Y-131509479D01*
X98836413Y-131685000D01*
X98904898Y-131850336D01*
X99004322Y-131999135D01*
X99130865Y-132125678D01*
X99279664Y-132225102D01*
X99445000Y-132293587D01*
X99620521Y-132328500D01*
X99620522Y-132328500D01*
X99799478Y-132328500D01*
X99799479Y-132328500D01*
X99975000Y-132293587D01*
X100140336Y-132225102D01*
X100289135Y-132125678D01*
X100415678Y-131999135D01*
X100515102Y-131850336D01*
X100583587Y-131685000D01*
X100618500Y-131509479D01*
X100618500Y-131330521D01*
X100583587Y-131155000D01*
X100583584Y-131154992D01*
X100573874Y-131131548D01*
X100573873Y-131131547D01*
X100556464Y-131089518D01*
X107381500Y-131089518D01*
X107381500Y-131089521D01*
X107381500Y-131268479D01*
X107416413Y-131444000D01*
X107484898Y-131609336D01*
X107584322Y-131758135D01*
X107710865Y-131884678D01*
X107859664Y-131984102D01*
X108025000Y-132052587D01*
X108200521Y-132087500D01*
X108200522Y-132087500D01*
X108379478Y-132087500D01*
X108379479Y-132087500D01*
X108555000Y-132052587D01*
X108720336Y-131984102D01*
X108869135Y-131884678D01*
X108995678Y-131758135D01*
X109095102Y-131609336D01*
X109163587Y-131444000D01*
X109198500Y-131268479D01*
X109198500Y-131089521D01*
X109163587Y-130914000D01*
X109095102Y-130748664D01*
X108995678Y-130599865D01*
X108869135Y-130473322D01*
X108720336Y-130373898D01*
X108603429Y-130325473D01*
X108555003Y-130305414D01*
X108555001Y-130305413D01*
X108555000Y-130305413D01*
X108466645Y-130287838D01*
X108379481Y-130270500D01*
X108379479Y-130270500D01*
X108200521Y-130270500D01*
X108200518Y-130270500D01*
X108069771Y-130296507D01*
X108025000Y-130305413D01*
X108024999Y-130305413D01*
X108024996Y-130305414D01*
X107859662Y-130373899D01*
X107710869Y-130473319D01*
X107710862Y-130473324D01*
X107584324Y-130599862D01*
X107584319Y-130599869D01*
X107484899Y-130748662D01*
X107416414Y-130913996D01*
X107381500Y-131089518D01*
X100556464Y-131089518D01*
X100515104Y-130989668D01*
X100515102Y-130989664D01*
X100464542Y-130913996D01*
X100415678Y-130840865D01*
X100289135Y-130714322D01*
X100140336Y-130614898D01*
X100023429Y-130566473D01*
X99975003Y-130546414D01*
X99975001Y-130546413D01*
X99975000Y-130546413D01*
X99886645Y-130528838D01*
X99799481Y-130511500D01*
X99799479Y-130511500D01*
X99620521Y-130511500D01*
X99620518Y-130511500D01*
X99489771Y-130537507D01*
X99445000Y-130546413D01*
X99444999Y-130546413D01*
X99444996Y-130546414D01*
X99279662Y-130614899D01*
X99130869Y-130714319D01*
X99130862Y-130714324D01*
X99004324Y-130840862D01*
X99004319Y-130840869D01*
X98955458Y-130913996D01*
X98904898Y-130989664D01*
X98890716Y-131023902D01*
X98836414Y-131154996D01*
X98801500Y-131330518D01*
X77339500Y-131330518D01*
X77339500Y-126240518D01*
X94651500Y-126240518D01*
X94651500Y-126240521D01*
X94651500Y-126419479D01*
X94686413Y-126595000D01*
X94754898Y-126760336D01*
X94854322Y-126909135D01*
X94980865Y-127035678D01*
X95129664Y-127135102D01*
X95295000Y-127203587D01*
X95470521Y-127238500D01*
X95470522Y-127238500D01*
X95649478Y-127238500D01*
X95649479Y-127238500D01*
X95825000Y-127203587D01*
X95990336Y-127135102D01*
X96139135Y-127035678D01*
X96265678Y-126909135D01*
X96365102Y-126760336D01*
X96433587Y-126595000D01*
X96447453Y-126525290D01*
X99691500Y-126525290D01*
X99691500Y-126674709D01*
X99720649Y-126821246D01*
X99720650Y-126821249D01*
X99767153Y-126933516D01*
X99777826Y-126959284D01*
X99860835Y-127083516D01*
X99966484Y-127189165D01*
X100090716Y-127272174D01*
X100228754Y-127329351D01*
X100375294Y-127358500D01*
X100524706Y-127358500D01*
X100671246Y-127329351D01*
X100809284Y-127272174D01*
X100933516Y-127189165D01*
X101039165Y-127083516D01*
X101122174Y-126959284D01*
X101179351Y-126821246D01*
X101208500Y-126674706D01*
X101208500Y-126525294D01*
X101179351Y-126378754D01*
X101177916Y-126375290D01*
X105291500Y-126375290D01*
X105291500Y-126524709D01*
X105320649Y-126671246D01*
X105320650Y-126671249D01*
X105377826Y-126809284D01*
X105460835Y-126933516D01*
X105566484Y-127039165D01*
X105690716Y-127122174D01*
X105828754Y-127179351D01*
X105975294Y-127208500D01*
X106124706Y-127208500D01*
X106271246Y-127179351D01*
X106409284Y-127122174D01*
X106533516Y-127039165D01*
X106639165Y-126933516D01*
X106722174Y-126809284D01*
X106779351Y-126671246D01*
X106808500Y-126524706D01*
X106808500Y-126375294D01*
X106779351Y-126228754D01*
X106722174Y-126090716D01*
X106639165Y-125966484D01*
X106533516Y-125860835D01*
X106409284Y-125777826D01*
X106344187Y-125750862D01*
X106271249Y-125720650D01*
X106271246Y-125720649D01*
X106124709Y-125691500D01*
X106124706Y-125691500D01*
X105975294Y-125691500D01*
X105975290Y-125691500D01*
X105828753Y-125720649D01*
X105828750Y-125720650D01*
X105690715Y-125777826D01*
X105566488Y-125860832D01*
X105566481Y-125860837D01*
X105460837Y-125966481D01*
X105460832Y-125966488D01*
X105377826Y-126090715D01*
X105320650Y-126228750D01*
X105320649Y-126228753D01*
X105291500Y-126375290D01*
X101177916Y-126375290D01*
X101122174Y-126240716D01*
X101039165Y-126116484D01*
X100933516Y-126010835D01*
X100809284Y-125927826D01*
X100738482Y-125898499D01*
X100671249Y-125870650D01*
X100671246Y-125870649D01*
X100524709Y-125841500D01*
X100524706Y-125841500D01*
X100375294Y-125841500D01*
X100375290Y-125841500D01*
X100228753Y-125870649D01*
X100228750Y-125870650D01*
X100090715Y-125927826D01*
X99966488Y-126010832D01*
X99966481Y-126010837D01*
X99860837Y-126116481D01*
X99860832Y-126116488D01*
X99777826Y-126240715D01*
X99720650Y-126378750D01*
X99720649Y-126378753D01*
X99691500Y-126525290D01*
X96447453Y-126525290D01*
X96468500Y-126419479D01*
X96468500Y-126240521D01*
X96433587Y-126065000D01*
X96365102Y-125899664D01*
X96265678Y-125750865D01*
X96139135Y-125624322D01*
X95990336Y-125524898D01*
X95873429Y-125476473D01*
X95825003Y-125456414D01*
X95825001Y-125456413D01*
X95825000Y-125456413D01*
X95736645Y-125438838D01*
X95649481Y-125421500D01*
X95649479Y-125421500D01*
X95470521Y-125421500D01*
X95470518Y-125421500D01*
X95339771Y-125447507D01*
X95295000Y-125456413D01*
X95294999Y-125456413D01*
X95294996Y-125456414D01*
X95129662Y-125524899D01*
X94980869Y-125624319D01*
X94980862Y-125624324D01*
X94854324Y-125750862D01*
X94854319Y-125750869D01*
X94754899Y-125899662D01*
X94686414Y-126064996D01*
X94651500Y-126240518D01*
X77339500Y-126240518D01*
X77339500Y-124900518D01*
X110041500Y-124900518D01*
X110041500Y-124900521D01*
X110041500Y-125079479D01*
X110076413Y-125255000D01*
X110144898Y-125420336D01*
X110244322Y-125569135D01*
X110370865Y-125695678D01*
X110519664Y-125795102D01*
X110685000Y-125863587D01*
X110860521Y-125898500D01*
X110860522Y-125898500D01*
X111039478Y-125898500D01*
X111039479Y-125898500D01*
X111215000Y-125863587D01*
X111380336Y-125795102D01*
X111529135Y-125695678D01*
X111655678Y-125569135D01*
X111755102Y-125420336D01*
X111823587Y-125255000D01*
X111858500Y-125079479D01*
X111858500Y-124900521D01*
X111823587Y-124725000D01*
X111755102Y-124559664D01*
X111755101Y-124559662D01*
X111755100Y-124559660D01*
X111755099Y-124559659D01*
X111668053Y-124429384D01*
X111646838Y-124361631D01*
X111665621Y-124293165D01*
X111675431Y-124279434D01*
X111675666Y-124279146D01*
X111675678Y-124279135D01*
X111775102Y-124130336D01*
X111843587Y-123965000D01*
X111878500Y-123789479D01*
X111878500Y-123610521D01*
X111843587Y-123435000D01*
X111775102Y-123269664D01*
X111675678Y-123120865D01*
X111549135Y-122994322D01*
X111400336Y-122894898D01*
X111283429Y-122846473D01*
X111235003Y-122826414D01*
X111235001Y-122826413D01*
X111235000Y-122826413D01*
X111146645Y-122808838D01*
X111059481Y-122791500D01*
X111059479Y-122791500D01*
X110880521Y-122791500D01*
X110880518Y-122791500D01*
X110749771Y-122817507D01*
X110705000Y-122826413D01*
X110704999Y-122826413D01*
X110704996Y-122826414D01*
X110539662Y-122894899D01*
X110390869Y-122994319D01*
X110390862Y-122994324D01*
X110264324Y-123120862D01*
X110264319Y-123120869D01*
X110164899Y-123269662D01*
X110096414Y-123434996D01*
X110061500Y-123610518D01*
X110061500Y-123789481D01*
X110096414Y-123965003D01*
X110164898Y-124130336D01*
X110251947Y-124260615D01*
X110273161Y-124328368D01*
X110254378Y-124396835D01*
X110244585Y-124410544D01*
X110244323Y-124410862D01*
X110144899Y-124559662D01*
X110076414Y-124724996D01*
X110041500Y-124900518D01*
X77339500Y-124900518D01*
X77339500Y-123620518D01*
X98271500Y-123620518D01*
X98271500Y-123620521D01*
X98271500Y-123799479D01*
X98306413Y-123975000D01*
X98374898Y-124140336D01*
X98474322Y-124289135D01*
X98600865Y-124415678D01*
X98749664Y-124515102D01*
X98915000Y-124583587D01*
X99090521Y-124618500D01*
X99090522Y-124618500D01*
X99269478Y-124618500D01*
X99269479Y-124618500D01*
X99445000Y-124583587D01*
X99610336Y-124515102D01*
X99759135Y-124415678D01*
X99885678Y-124289135D01*
X99885678Y-124289134D01*
X99890056Y-124284757D01*
X99891912Y-124286613D01*
X99941078Y-124253054D01*
X100012047Y-124251085D01*
X100069011Y-124283824D01*
X100190865Y-124405678D01*
X100339664Y-124505102D01*
X100505000Y-124573587D01*
X100680521Y-124608500D01*
X100680522Y-124608500D01*
X100859478Y-124608500D01*
X100859479Y-124608500D01*
X101035000Y-124573587D01*
X101200336Y-124505102D01*
X101349135Y-124405678D01*
X101475678Y-124279135D01*
X101575102Y-124130336D01*
X101643587Y-123965000D01*
X101678500Y-123789479D01*
X101678500Y-123610521D01*
X101643587Y-123435000D01*
X101575102Y-123269664D01*
X101475678Y-123120865D01*
X101349135Y-122994322D01*
X101200336Y-122894898D01*
X101083429Y-122846473D01*
X101035003Y-122826414D01*
X101035001Y-122826413D01*
X101035000Y-122826413D01*
X100946645Y-122808838D01*
X100859481Y-122791500D01*
X100859479Y-122791500D01*
X100680521Y-122791500D01*
X100680518Y-122791500D01*
X100549771Y-122817507D01*
X100505000Y-122826413D01*
X100504999Y-122826413D01*
X100504996Y-122826414D01*
X100339662Y-122894899D01*
X100190869Y-122994319D01*
X100190862Y-122994324D01*
X100059945Y-123125242D01*
X100058118Y-123123415D01*
X100008705Y-123157015D01*
X99937732Y-123158856D01*
X99880988Y-123126175D01*
X99759137Y-123004324D01*
X99759135Y-123004322D01*
X99610336Y-122904898D01*
X99493429Y-122856473D01*
X99445003Y-122836414D01*
X99445001Y-122836413D01*
X99445000Y-122836413D01*
X99356645Y-122818838D01*
X99269481Y-122801500D01*
X99269479Y-122801500D01*
X99090521Y-122801500D01*
X99090518Y-122801500D01*
X98965274Y-122826413D01*
X98915000Y-122836413D01*
X98914999Y-122836413D01*
X98914996Y-122836414D01*
X98749662Y-122904899D01*
X98600869Y-123004319D01*
X98600862Y-123004324D01*
X98474324Y-123130862D01*
X98474319Y-123130869D01*
X98374899Y-123279662D01*
X98306414Y-123444996D01*
X98271500Y-123620518D01*
X77339500Y-123620518D01*
X77339500Y-121745290D01*
X123781500Y-121745290D01*
X123781500Y-121894709D01*
X123810649Y-122041246D01*
X123867826Y-122179284D01*
X123950835Y-122303516D01*
X124056484Y-122409165D01*
X124180716Y-122492174D01*
X124318754Y-122549351D01*
X124465294Y-122578500D01*
X124614706Y-122578500D01*
X124761246Y-122549351D01*
X124899284Y-122492174D01*
X125023516Y-122409165D01*
X125129165Y-122303516D01*
X125212174Y-122179284D01*
X125269351Y-122041246D01*
X125298500Y-121894706D01*
X125298500Y-121745294D01*
X125269351Y-121598754D01*
X125212174Y-121460716D01*
X125129165Y-121336484D01*
X125023516Y-121230835D01*
X124899284Y-121147826D01*
X124789068Y-121102173D01*
X124761249Y-121090650D01*
X124761246Y-121090649D01*
X124614709Y-121061500D01*
X124614706Y-121061500D01*
X124465294Y-121061500D01*
X124465290Y-121061500D01*
X124318753Y-121090649D01*
X124318750Y-121090650D01*
X124180715Y-121147826D01*
X124056488Y-121230832D01*
X124056481Y-121230837D01*
X123950837Y-121336481D01*
X123950832Y-121336488D01*
X123867826Y-121460715D01*
X123810650Y-121598750D01*
X123810649Y-121598753D01*
X123781500Y-121745290D01*
X77339500Y-121745290D01*
X77339500Y-120355290D01*
X90641500Y-120355290D01*
X90641500Y-120504709D01*
X90670649Y-120651246D01*
X90670650Y-120651249D01*
X90698217Y-120717801D01*
X90727826Y-120789284D01*
X90810835Y-120913516D01*
X90916484Y-121019165D01*
X91040716Y-121102174D01*
X91178754Y-121159351D01*
X91325294Y-121188500D01*
X91474706Y-121188500D01*
X91621246Y-121159351D01*
X91759284Y-121102174D01*
X91883516Y-121019165D01*
X91989165Y-120913516D01*
X92072174Y-120789284D01*
X92072177Y-120789275D01*
X92074413Y-120785096D01*
X92124169Y-120734452D01*
X92185531Y-120718500D01*
X92254706Y-120718500D01*
X92401246Y-120689351D01*
X92539284Y-120632174D01*
X92539284Y-120632173D01*
X92545003Y-120629805D01*
X92545808Y-120631750D01*
X92605911Y-120619221D01*
X92644050Y-120628407D01*
X92718754Y-120659351D01*
X92865294Y-120688500D01*
X93014706Y-120688500D01*
X93161246Y-120659351D01*
X93299284Y-120602174D01*
X93423516Y-120519165D01*
X93529165Y-120413516D01*
X93612174Y-120289284D01*
X93669351Y-120151246D01*
X93698500Y-120004706D01*
X93698500Y-119855294D01*
X93669351Y-119708754D01*
X93612174Y-119570716D01*
X93529165Y-119446484D01*
X93423516Y-119340835D01*
X93299284Y-119257826D01*
X93163301Y-119201500D01*
X93161249Y-119200650D01*
X93161246Y-119200649D01*
X93014709Y-119171500D01*
X93014706Y-119171500D01*
X92865294Y-119171500D01*
X92865290Y-119171500D01*
X92718753Y-119200649D01*
X92718750Y-119200650D01*
X92646327Y-119230649D01*
X92580716Y-119257826D01*
X92580714Y-119257827D01*
X92574998Y-119260195D01*
X92574197Y-119258262D01*
X92514011Y-119270772D01*
X92475948Y-119261591D01*
X92401252Y-119230651D01*
X92401246Y-119230649D01*
X92254709Y-119201500D01*
X92254706Y-119201500D01*
X92105294Y-119201500D01*
X92105290Y-119201500D01*
X91958753Y-119230649D01*
X91958750Y-119230650D01*
X91820715Y-119287826D01*
X91696488Y-119370832D01*
X91696481Y-119370837D01*
X91590837Y-119476481D01*
X91590832Y-119476488D01*
X91507828Y-119600711D01*
X91505593Y-119604895D01*
X91455841Y-119655543D01*
X91394470Y-119671500D01*
X91325290Y-119671500D01*
X91178753Y-119700649D01*
X91178750Y-119700650D01*
X91040715Y-119757826D01*
X90916488Y-119840832D01*
X90916481Y-119840837D01*
X90810837Y-119946481D01*
X90810832Y-119946488D01*
X90727826Y-120070715D01*
X90670650Y-120208750D01*
X90670649Y-120208753D01*
X90641500Y-120355290D01*
X77339500Y-120355290D01*
X77339500Y-112135290D01*
X91721500Y-112135290D01*
X91721500Y-112284709D01*
X91750649Y-112431246D01*
X91750650Y-112431249D01*
X91776776Y-112494322D01*
X91807826Y-112569284D01*
X91890835Y-112693516D01*
X91996484Y-112799165D01*
X91996487Y-112799167D01*
X91996493Y-112799172D01*
X92006638Y-112805951D01*
X92052165Y-112860429D01*
X92061011Y-112930872D01*
X92030368Y-112994915D01*
X92006638Y-113015477D01*
X91996493Y-113022255D01*
X91996481Y-113022265D01*
X91890837Y-113127909D01*
X91890832Y-113127916D01*
X91807826Y-113252143D01*
X91750650Y-113390178D01*
X91750649Y-113390181D01*
X91721500Y-113536718D01*
X91721500Y-113686137D01*
X91750649Y-113832674D01*
X91750650Y-113832677D01*
X91756832Y-113847602D01*
X91807826Y-113970712D01*
X91890835Y-114094944D01*
X91996484Y-114200593D01*
X91996487Y-114200595D01*
X91996493Y-114200600D01*
X92006638Y-114207379D01*
X92052165Y-114261857D01*
X92061011Y-114332300D01*
X92030368Y-114396343D01*
X92006638Y-114416905D01*
X91996493Y-114423683D01*
X91996481Y-114423693D01*
X91890837Y-114529337D01*
X91890832Y-114529344D01*
X91807826Y-114653571D01*
X91750650Y-114791606D01*
X91750649Y-114791609D01*
X91721500Y-114938146D01*
X91721500Y-115087565D01*
X91750649Y-115234102D01*
X91750650Y-115234105D01*
X91807826Y-115372140D01*
X91890835Y-115496372D01*
X91996484Y-115602021D01*
X91996487Y-115602023D01*
X91996493Y-115602028D01*
X92006638Y-115608807D01*
X92052165Y-115663285D01*
X92061011Y-115733728D01*
X92030368Y-115797771D01*
X92006638Y-115818333D01*
X91996493Y-115825111D01*
X91996481Y-115825121D01*
X91890837Y-115930765D01*
X91890832Y-115930772D01*
X91807826Y-116054999D01*
X91750650Y-116193034D01*
X91750649Y-116193037D01*
X91721500Y-116339574D01*
X91721500Y-116488993D01*
X91750649Y-116635530D01*
X91807826Y-116773568D01*
X91890835Y-116897800D01*
X91996484Y-117003449D01*
X91996487Y-117003451D01*
X91996493Y-117003456D01*
X92006638Y-117010235D01*
X92052165Y-117064713D01*
X92061011Y-117135156D01*
X92030368Y-117199199D01*
X92006638Y-117219761D01*
X91996493Y-117226539D01*
X91996481Y-117226549D01*
X91890837Y-117332193D01*
X91890832Y-117332200D01*
X91807826Y-117456427D01*
X91750650Y-117594462D01*
X91750649Y-117594465D01*
X91721500Y-117741002D01*
X91721500Y-117890421D01*
X91750649Y-118036958D01*
X91807826Y-118174996D01*
X91890835Y-118299228D01*
X91996484Y-118404877D01*
X92120716Y-118487886D01*
X92258754Y-118545063D01*
X92405294Y-118574212D01*
X92554706Y-118574212D01*
X92701246Y-118545063D01*
X92839284Y-118487886D01*
X92963516Y-118404877D01*
X93069165Y-118299228D01*
X93152174Y-118174996D01*
X93209351Y-118036958D01*
X93227585Y-117945290D01*
X118661500Y-117945290D01*
X118661500Y-118094709D01*
X118677471Y-118174996D01*
X118690649Y-118241246D01*
X118747826Y-118379284D01*
X118830835Y-118503516D01*
X118936484Y-118609165D01*
X119060716Y-118692174D01*
X119198754Y-118749351D01*
X119345294Y-118778500D01*
X119494706Y-118778500D01*
X119641246Y-118749351D01*
X119779284Y-118692174D01*
X119903516Y-118609165D01*
X120009165Y-118503516D01*
X120092174Y-118379284D01*
X120149351Y-118241246D01*
X120178500Y-118094706D01*
X120178500Y-117945294D01*
X120149351Y-117798754D01*
X120092174Y-117660716D01*
X120009165Y-117536484D01*
X119903516Y-117430835D01*
X119779284Y-117347826D01*
X119641249Y-117290650D01*
X119641246Y-117290649D01*
X119494709Y-117261500D01*
X119494706Y-117261500D01*
X119345294Y-117261500D01*
X119345290Y-117261500D01*
X119198753Y-117290649D01*
X119198750Y-117290650D01*
X119060715Y-117347826D01*
X118936488Y-117430832D01*
X118936481Y-117430837D01*
X118830837Y-117536481D01*
X118830832Y-117536488D01*
X118747826Y-117660715D01*
X118690650Y-117798750D01*
X118690649Y-117798753D01*
X118661500Y-117945290D01*
X93227585Y-117945290D01*
X93238500Y-117890418D01*
X93238500Y-117741006D01*
X93209351Y-117594466D01*
X93152174Y-117456428D01*
X93069165Y-117332196D01*
X92963516Y-117226547D01*
X92953363Y-117219763D01*
X92907836Y-117165287D01*
X92898987Y-117094844D01*
X92929628Y-117030800D01*
X92953362Y-117010233D01*
X92963516Y-117003449D01*
X93069165Y-116897800D01*
X93152174Y-116773568D01*
X93209351Y-116635530D01*
X93238500Y-116488990D01*
X93238500Y-116339578D01*
X93209351Y-116193038D01*
X93152174Y-116055000D01*
X93069165Y-115930768D01*
X92963516Y-115825119D01*
X92953363Y-115818335D01*
X92907836Y-115763859D01*
X92898987Y-115693416D01*
X92929628Y-115629372D01*
X92953362Y-115608805D01*
X92963516Y-115602021D01*
X93069165Y-115496372D01*
X93152174Y-115372140D01*
X93209351Y-115234102D01*
X93238500Y-115087562D01*
X93238500Y-114938150D01*
X93209351Y-114791610D01*
X93152174Y-114653572D01*
X93069165Y-114529340D01*
X92963516Y-114423691D01*
X92953363Y-114416907D01*
X92907836Y-114362431D01*
X92898987Y-114291988D01*
X92929628Y-114227944D01*
X92953362Y-114207377D01*
X92963516Y-114200593D01*
X93069165Y-114094944D01*
X93152174Y-113970712D01*
X93209351Y-113832674D01*
X93238500Y-113686134D01*
X93238500Y-113568018D01*
X97859000Y-113568018D01*
X97859000Y-113746981D01*
X97875832Y-113831599D01*
X97893913Y-113922500D01*
X97962398Y-114087836D01*
X98061822Y-114236635D01*
X98188365Y-114363178D01*
X98337164Y-114462602D01*
X98502500Y-114531087D01*
X98678021Y-114566000D01*
X98678022Y-114566000D01*
X98856978Y-114566000D01*
X98856979Y-114566000D01*
X99032500Y-114531087D01*
X99197836Y-114462602D01*
X99346635Y-114363178D01*
X99473178Y-114236635D01*
X99572602Y-114087836D01*
X99641087Y-113922500D01*
X99676000Y-113746979D01*
X99676000Y-113568021D01*
X99641087Y-113392500D01*
X99627228Y-113359043D01*
X99619639Y-113288456D01*
X99651417Y-113224969D01*
X99695417Y-113194419D01*
X99790336Y-113155102D01*
X99939135Y-113055678D01*
X100018348Y-112976464D01*
X100080656Y-112942442D01*
X100151472Y-112947506D01*
X100155659Y-112949154D01*
X100274992Y-112998584D01*
X100274993Y-112998584D01*
X100275000Y-112998587D01*
X100450521Y-113033500D01*
X100450522Y-113033500D01*
X100629478Y-113033500D01*
X100629479Y-113033500D01*
X100805000Y-112998587D01*
X100970336Y-112930102D01*
X101119135Y-112830678D01*
X101245678Y-112704135D01*
X101345102Y-112555336D01*
X101413587Y-112390000D01*
X101448500Y-112214479D01*
X101448500Y-112035521D01*
X101413587Y-111860000D01*
X101345102Y-111694664D01*
X101245678Y-111545865D01*
X101119135Y-111419322D01*
X100970336Y-111319898D01*
X100837802Y-111265000D01*
X100805003Y-111251414D01*
X100805001Y-111251413D01*
X100805000Y-111251413D01*
X100716645Y-111233838D01*
X100629481Y-111216500D01*
X100629479Y-111216500D01*
X100450521Y-111216500D01*
X100450518Y-111216500D01*
X100319771Y-111242507D01*
X100275000Y-111251413D01*
X100274999Y-111251413D01*
X100274996Y-111251414D01*
X100109662Y-111319899D01*
X99960869Y-111419319D01*
X99960867Y-111419320D01*
X99881654Y-111498533D01*
X99819341Y-111532558D01*
X99748526Y-111527492D01*
X99744355Y-111525852D01*
X99635227Y-111480649D01*
X99625003Y-111476414D01*
X99625001Y-111476413D01*
X99625000Y-111476413D01*
X99536645Y-111458838D01*
X99449481Y-111441500D01*
X99449479Y-111441500D01*
X99270521Y-111441500D01*
X99270518Y-111441500D01*
X99139771Y-111467507D01*
X99095000Y-111476413D01*
X99094999Y-111476413D01*
X99094996Y-111476414D01*
X98929662Y-111544899D01*
X98780869Y-111644319D01*
X98780862Y-111644324D01*
X98654324Y-111770862D01*
X98654319Y-111770869D01*
X98554899Y-111919662D01*
X98486414Y-112084996D01*
X98486413Y-112084999D01*
X98486413Y-112085000D01*
X98485522Y-112089479D01*
X98451500Y-112260518D01*
X98451500Y-112439481D01*
X98486414Y-112615005D01*
X98500270Y-112648455D01*
X98507859Y-112719045D01*
X98476080Y-112782532D01*
X98432080Y-112813081D01*
X98337168Y-112852395D01*
X98337164Y-112852397D01*
X98188369Y-112951819D01*
X98188362Y-112951824D01*
X98061824Y-113078362D01*
X98061819Y-113078369D01*
X97963865Y-113224969D01*
X97962398Y-113227164D01*
X97954335Y-113246630D01*
X97893914Y-113392496D01*
X97859000Y-113568018D01*
X93238500Y-113568018D01*
X93238500Y-113536722D01*
X93209351Y-113390182D01*
X93152174Y-113252144D01*
X93069165Y-113127912D01*
X92963516Y-113022263D01*
X92953363Y-113015479D01*
X92907836Y-112961003D01*
X92898987Y-112890560D01*
X92929628Y-112826516D01*
X92953362Y-112805949D01*
X92963516Y-112799165D01*
X93069165Y-112693516D01*
X93152174Y-112569284D01*
X93209351Y-112431246D01*
X93238500Y-112284706D01*
X93238500Y-112135294D01*
X93209351Y-111988754D01*
X93152174Y-111850716D01*
X93069165Y-111726484D01*
X92963516Y-111620835D01*
X92839284Y-111537826D01*
X92826566Y-111532558D01*
X92701249Y-111480650D01*
X92701246Y-111480649D01*
X92554709Y-111451500D01*
X92554706Y-111451500D01*
X92405294Y-111451500D01*
X92405290Y-111451500D01*
X92258753Y-111480649D01*
X92258750Y-111480650D01*
X92120715Y-111537826D01*
X91996488Y-111620832D01*
X91996481Y-111620837D01*
X91890837Y-111726481D01*
X91890832Y-111726488D01*
X91807826Y-111850715D01*
X91750650Y-111988750D01*
X91750649Y-111988753D01*
X91721500Y-112135290D01*
X77339500Y-112135290D01*
X77339500Y-98910518D01*
X100341500Y-98910518D01*
X100341500Y-98910521D01*
X100341500Y-99089479D01*
X100376413Y-99265000D01*
X100444898Y-99430336D01*
X100544322Y-99579135D01*
X100626092Y-99660905D01*
X100660117Y-99723217D01*
X100655051Y-99794033D01*
X100626092Y-99839095D01*
X100544320Y-99920867D01*
X100544319Y-99920869D01*
X100444899Y-100069662D01*
X100376414Y-100234996D01*
X100341500Y-100410518D01*
X100341500Y-100410521D01*
X100341500Y-100589479D01*
X100376413Y-100765000D01*
X100444898Y-100930336D01*
X100544322Y-101079135D01*
X100589506Y-101124319D01*
X100626092Y-101160905D01*
X100660117Y-101223217D01*
X100655051Y-101294033D01*
X100626092Y-101339095D01*
X100544320Y-101420867D01*
X100544319Y-101420869D01*
X100444899Y-101569662D01*
X100376414Y-101734996D01*
X100376414Y-101734997D01*
X100376413Y-101735000D01*
X100369322Y-101770649D01*
X100341500Y-101910518D01*
X100341500Y-102089481D01*
X100358838Y-102176645D01*
X100376413Y-102265000D01*
X100444898Y-102430336D01*
X100544322Y-102579135D01*
X100600287Y-102635100D01*
X100626092Y-102660905D01*
X100660117Y-102723217D01*
X100655051Y-102794033D01*
X100626092Y-102839095D01*
X100544320Y-102920867D01*
X100544319Y-102920869D01*
X100444899Y-103069662D01*
X100376414Y-103234996D01*
X100341500Y-103410518D01*
X100341500Y-103589481D01*
X100358838Y-103676645D01*
X100376413Y-103765000D01*
X100444898Y-103930336D01*
X100544322Y-104079135D01*
X100619584Y-104154397D01*
X100626092Y-104160905D01*
X100660117Y-104223217D01*
X100655051Y-104294033D01*
X100626092Y-104339095D01*
X100544320Y-104420867D01*
X100544319Y-104420869D01*
X100444899Y-104569662D01*
X100376414Y-104734996D01*
X100376413Y-104734999D01*
X100376413Y-104735000D01*
X100370150Y-104766488D01*
X100341500Y-104910518D01*
X100341500Y-105089481D01*
X100376414Y-105265003D01*
X100377029Y-105266488D01*
X100444898Y-105430336D01*
X100544322Y-105579135D01*
X100609426Y-105644239D01*
X100626092Y-105660905D01*
X100660117Y-105723217D01*
X100655051Y-105794033D01*
X100626092Y-105839095D01*
X100544320Y-105920867D01*
X100544319Y-105920869D01*
X100444899Y-106069662D01*
X100376414Y-106234996D01*
X100341500Y-106410518D01*
X100341500Y-106410521D01*
X100341500Y-106589479D01*
X100376413Y-106765000D01*
X100444898Y-106930336D01*
X100544322Y-107079135D01*
X100617758Y-107152571D01*
X100626092Y-107160905D01*
X100660117Y-107223217D01*
X100655051Y-107294033D01*
X100626092Y-107339095D01*
X100544320Y-107420867D01*
X100544319Y-107420869D01*
X100444899Y-107569662D01*
X100376414Y-107734996D01*
X100341500Y-107910518D01*
X100341500Y-107910521D01*
X100341500Y-108089479D01*
X100376413Y-108265000D01*
X100444898Y-108430336D01*
X100544322Y-108579135D01*
X100670865Y-108705678D01*
X100819664Y-108805102D01*
X100985000Y-108873587D01*
X101160521Y-108908500D01*
X101160522Y-108908500D01*
X101339478Y-108908500D01*
X101339479Y-108908500D01*
X101515000Y-108873587D01*
X101680336Y-108805102D01*
X101829135Y-108705678D01*
X101955678Y-108579135D01*
X101982830Y-108538499D01*
X102028569Y-108470046D01*
X102083045Y-108424518D01*
X102153488Y-108415669D01*
X102217533Y-108446310D01*
X102238099Y-108470046D01*
X102310983Y-108579126D01*
X102310992Y-108579137D01*
X102384425Y-108652570D01*
X102418451Y-108714882D01*
X102413386Y-108785697D01*
X102384426Y-108830760D01*
X102294320Y-108920867D01*
X102294319Y-108920869D01*
X102194899Y-109069662D01*
X102126414Y-109234996D01*
X102091500Y-109410518D01*
X102091500Y-109410521D01*
X102091500Y-109589479D01*
X102126413Y-109765000D01*
X102194898Y-109930336D01*
X102294322Y-110079135D01*
X102336522Y-110121335D01*
X102376092Y-110160905D01*
X102410117Y-110223217D01*
X102405051Y-110294033D01*
X102376092Y-110339095D01*
X102294320Y-110420867D01*
X102294319Y-110420869D01*
X102194899Y-110569662D01*
X102126414Y-110734996D01*
X102091500Y-110910518D01*
X102091500Y-110910521D01*
X102091500Y-111089479D01*
X102126413Y-111265000D01*
X102194898Y-111430336D01*
X102194899Y-111430338D01*
X102194901Y-111430342D01*
X102197816Y-111435796D01*
X102196681Y-111436402D01*
X102215886Y-111497768D01*
X102197671Y-111564126D01*
X102197816Y-111564204D01*
X102197476Y-111564839D01*
X102197094Y-111566232D01*
X102194940Y-111569584D01*
X102194901Y-111569657D01*
X102126414Y-111734996D01*
X102091500Y-111910518D01*
X102091500Y-112089481D01*
X102107032Y-112167563D01*
X102125521Y-112260518D01*
X102126414Y-112265003D01*
X102194899Y-112430339D01*
X102228081Y-112480000D01*
X102249295Y-112547753D01*
X102230511Y-112616220D01*
X102228081Y-112620000D01*
X102194899Y-112669660D01*
X102126414Y-112834996D01*
X102091500Y-113010518D01*
X102091500Y-113189481D01*
X102103965Y-113252144D01*
X102126413Y-113365000D01*
X102194898Y-113530336D01*
X102194899Y-113530338D01*
X102194901Y-113530342D01*
X102197816Y-113535796D01*
X102196681Y-113536402D01*
X102215886Y-113597768D01*
X102197671Y-113664126D01*
X102197816Y-113664204D01*
X102197476Y-113664839D01*
X102197094Y-113666232D01*
X102194940Y-113669584D01*
X102194901Y-113669657D01*
X102126414Y-113834996D01*
X102091500Y-114010518D01*
X102091500Y-114189481D01*
X102105897Y-114261857D01*
X102119883Y-114332173D01*
X102126414Y-114365003D01*
X102139396Y-114396343D01*
X102194898Y-114530336D01*
X102294322Y-114679135D01*
X102420865Y-114805678D01*
X102569664Y-114905102D01*
X102735000Y-114973587D01*
X102910521Y-115008500D01*
X102910522Y-115008500D01*
X103089478Y-115008500D01*
X103089479Y-115008500D01*
X103265000Y-114973587D01*
X103430336Y-114905102D01*
X103555000Y-114821804D01*
X103622751Y-114800590D01*
X103691218Y-114819373D01*
X103694971Y-114821785D01*
X103819664Y-114905102D01*
X103985000Y-114973587D01*
X104160521Y-115008500D01*
X104160522Y-115008500D01*
X104339478Y-115008500D01*
X104339479Y-115008500D01*
X104515000Y-114973587D01*
X104680336Y-114905102D01*
X104805000Y-114821804D01*
X104872751Y-114800590D01*
X104941218Y-114819373D01*
X104944971Y-114821785D01*
X105069664Y-114905102D01*
X105235000Y-114973587D01*
X105410521Y-115008500D01*
X105410522Y-115008500D01*
X105589478Y-115008500D01*
X105589479Y-115008500D01*
X105765000Y-114973587D01*
X105930336Y-114905102D01*
X106055000Y-114821804D01*
X106122751Y-114800590D01*
X106191218Y-114819373D01*
X106194971Y-114821785D01*
X106319664Y-114905102D01*
X106485000Y-114973587D01*
X106660521Y-115008500D01*
X106660522Y-115008500D01*
X106839478Y-115008500D01*
X106839479Y-115008500D01*
X107015000Y-114973587D01*
X107180336Y-114905102D01*
X107305000Y-114821804D01*
X107372751Y-114800590D01*
X107441218Y-114819373D01*
X107444971Y-114821785D01*
X107569664Y-114905102D01*
X107735000Y-114973587D01*
X107910521Y-115008500D01*
X107910522Y-115008500D01*
X108089478Y-115008500D01*
X108089479Y-115008500D01*
X108265000Y-114973587D01*
X108430336Y-114905102D01*
X108579135Y-114805678D01*
X108705678Y-114679135D01*
X108805102Y-114530336D01*
X108873587Y-114365000D01*
X108908500Y-114189479D01*
X108908500Y-114010521D01*
X108873587Y-113835000D01*
X108805102Y-113669664D01*
X108796975Y-113657502D01*
X108775761Y-113589750D01*
X108794544Y-113521283D01*
X108796976Y-113517497D01*
X108805102Y-113505336D01*
X108873587Y-113340000D01*
X108908500Y-113164479D01*
X108908500Y-112985521D01*
X108873587Y-112810000D01*
X108805102Y-112644664D01*
X108780270Y-112607501D01*
X108771038Y-112578018D01*
X109984000Y-112578018D01*
X109984000Y-112756981D01*
X109998660Y-112830680D01*
X110018589Y-112930872D01*
X110018914Y-112932503D01*
X110026917Y-112951824D01*
X110087398Y-113097836D01*
X110186822Y-113246635D01*
X110313365Y-113373178D01*
X110462164Y-113472602D01*
X110627500Y-113541087D01*
X110803021Y-113576000D01*
X110803022Y-113576000D01*
X110981978Y-113576000D01*
X110981979Y-113576000D01*
X111157500Y-113541087D01*
X111157501Y-113541086D01*
X111163571Y-113539879D01*
X111164218Y-113543134D01*
X111220504Y-113541646D01*
X111281225Y-113578437D01*
X111292980Y-113593436D01*
X111311822Y-113621635D01*
X111438365Y-113748178D01*
X111587164Y-113847602D01*
X111752500Y-113916087D01*
X111928021Y-113951000D01*
X111928022Y-113951000D01*
X112106978Y-113951000D01*
X112106979Y-113951000D01*
X112282500Y-113916087D01*
X112339907Y-113892308D01*
X112398305Y-113868119D01*
X112468895Y-113860529D01*
X112532382Y-113892308D01*
X112535619Y-113895432D01*
X112545865Y-113905678D01*
X112694664Y-114005102D01*
X112860000Y-114073587D01*
X113035521Y-114108500D01*
X113035522Y-114108500D01*
X113214478Y-114108500D01*
X113214479Y-114108500D01*
X113390000Y-114073587D01*
X113555336Y-114005102D01*
X113704135Y-113905678D01*
X113830678Y-113779135D01*
X113930102Y-113630336D01*
X113948761Y-113585290D01*
X117741500Y-113585290D01*
X117741500Y-113734709D01*
X117770649Y-113881246D01*
X117770650Y-113881249D01*
X117799542Y-113951000D01*
X117827826Y-114019284D01*
X117910835Y-114143516D01*
X118016484Y-114249165D01*
X118140716Y-114332174D01*
X118278754Y-114389351D01*
X118425294Y-114418500D01*
X118567005Y-114418500D01*
X118635126Y-114438502D01*
X118681619Y-114492158D01*
X118691723Y-114562432D01*
X118690584Y-114569082D01*
X118661500Y-114715290D01*
X118661500Y-114864709D01*
X118669535Y-114905100D01*
X118690649Y-115011246D01*
X118747826Y-115149284D01*
X118830835Y-115273516D01*
X118936484Y-115379165D01*
X119060716Y-115462174D01*
X119198754Y-115519351D01*
X119345294Y-115548500D01*
X119494706Y-115548500D01*
X119641246Y-115519351D01*
X119779284Y-115462174D01*
X119903516Y-115379165D01*
X120009165Y-115273516D01*
X120092174Y-115149284D01*
X120149351Y-115011246D01*
X120178500Y-114864706D01*
X120178500Y-114715294D01*
X120149351Y-114568754D01*
X120092174Y-114430716D01*
X120009165Y-114306484D01*
X119903516Y-114200835D01*
X119779284Y-114117826D01*
X119724030Y-114094939D01*
X119641249Y-114060650D01*
X119641246Y-114060649D01*
X119494709Y-114031500D01*
X119494706Y-114031500D01*
X119352995Y-114031500D01*
X119284874Y-114011498D01*
X119238381Y-113957842D01*
X119228277Y-113887568D01*
X119229416Y-113880918D01*
X119236043Y-113847602D01*
X119258500Y-113734706D01*
X119258500Y-113585294D01*
X119229351Y-113438754D01*
X119172174Y-113300716D01*
X119089165Y-113176484D01*
X118983516Y-113070835D01*
X118859284Y-112987826D01*
X118831861Y-112976467D01*
X118721249Y-112930650D01*
X118721246Y-112930649D01*
X118574709Y-112901500D01*
X118574706Y-112901500D01*
X118425294Y-112901500D01*
X118425290Y-112901500D01*
X118278753Y-112930649D01*
X118278750Y-112930650D01*
X118140715Y-112987826D01*
X118016488Y-113070832D01*
X118016481Y-113070837D01*
X117910837Y-113176481D01*
X117910832Y-113176488D01*
X117827826Y-113300715D01*
X117770650Y-113438750D01*
X117770649Y-113438753D01*
X117741500Y-113585290D01*
X113948761Y-113585290D01*
X113971522Y-113530342D01*
X113998584Y-113465007D01*
X113998583Y-113465007D01*
X113998587Y-113465000D01*
X114033500Y-113289479D01*
X114033500Y-113110521D01*
X113998587Y-112935000D01*
X113930102Y-112769664D01*
X113830678Y-112620865D01*
X113704135Y-112494322D01*
X113555336Y-112394898D01*
X113415134Y-112336824D01*
X113390003Y-112326414D01*
X113390001Y-112326413D01*
X113390000Y-112326413D01*
X113301645Y-112308838D01*
X113214481Y-112291500D01*
X113214479Y-112291500D01*
X113035521Y-112291500D01*
X113035518Y-112291500D01*
X112931343Y-112312222D01*
X112860000Y-112326413D01*
X112859998Y-112326413D01*
X112859992Y-112326415D01*
X112744195Y-112374381D01*
X112673605Y-112381971D01*
X112610118Y-112350192D01*
X112606881Y-112347068D01*
X112596637Y-112336824D01*
X112596635Y-112336822D01*
X112447836Y-112237398D01*
X112330929Y-112188973D01*
X112282503Y-112168914D01*
X112282501Y-112168913D01*
X112282500Y-112168913D01*
X112194145Y-112151338D01*
X112106981Y-112134000D01*
X112106979Y-112134000D01*
X111928021Y-112134000D01*
X111928018Y-112134000D01*
X111838387Y-112151829D01*
X111752500Y-112168913D01*
X111752497Y-112168914D01*
X111746430Y-112170121D01*
X111745885Y-112167386D01*
X111686647Y-112167563D01*
X111626807Y-112129358D01*
X111617019Y-112116563D01*
X111598178Y-112088365D01*
X111471635Y-111961822D01*
X111322836Y-111862398D01*
X111205929Y-111813973D01*
X111157503Y-111793914D01*
X111157501Y-111793913D01*
X111157500Y-111793913D01*
X111069145Y-111776338D01*
X110981981Y-111759000D01*
X110981979Y-111759000D01*
X110803021Y-111759000D01*
X110803018Y-111759000D01*
X110672271Y-111785007D01*
X110627500Y-111793913D01*
X110627499Y-111793913D01*
X110627496Y-111793914D01*
X110496402Y-111848216D01*
X110467954Y-111860000D01*
X110462162Y-111862399D01*
X110313369Y-111961819D01*
X110313362Y-111961824D01*
X110186824Y-112088362D01*
X110186819Y-112088369D01*
X110087399Y-112237162D01*
X110018914Y-112402496D01*
X110018913Y-112402499D01*
X110018913Y-112402500D01*
X110011557Y-112439481D01*
X109984000Y-112578018D01*
X108771038Y-112578018D01*
X108759055Y-112539751D01*
X108777837Y-112471284D01*
X108780236Y-112467549D01*
X108805102Y-112430336D01*
X108873587Y-112265000D01*
X108908500Y-112089479D01*
X108908500Y-111910521D01*
X108873587Y-111735000D01*
X108805102Y-111569664D01*
X108805101Y-111569662D01*
X108805100Y-111569660D01*
X108802185Y-111564207D01*
X108803324Y-111563597D01*
X108784112Y-111502262D01*
X108802319Y-111435865D01*
X108802185Y-111435793D01*
X108802502Y-111435199D01*
X108802888Y-111433793D01*
X108805063Y-111430407D01*
X108805100Y-111430339D01*
X108805100Y-111430338D01*
X108805102Y-111430336D01*
X108873587Y-111265000D01*
X108908500Y-111089479D01*
X108908500Y-110910521D01*
X108873587Y-110735000D01*
X108805102Y-110569664D01*
X108705678Y-110420865D01*
X108623908Y-110339095D01*
X108589882Y-110276783D01*
X108594947Y-110205968D01*
X108623908Y-110160905D01*
X108663478Y-110121335D01*
X108705678Y-110079135D01*
X108805102Y-109930336D01*
X108873587Y-109765000D01*
X108908500Y-109589479D01*
X108908500Y-109410521D01*
X108873587Y-109235000D01*
X108805102Y-109069664D01*
X108705678Y-108920865D01*
X108623908Y-108839095D01*
X108589882Y-108776783D01*
X108594947Y-108705968D01*
X108623908Y-108660905D01*
X108632243Y-108652570D01*
X108705678Y-108579135D01*
X108707551Y-108576330D01*
X108770235Y-108482519D01*
X108824711Y-108436991D01*
X108895154Y-108428142D01*
X108959199Y-108458783D01*
X108979765Y-108482519D01*
X109044315Y-108579126D01*
X109044320Y-108579132D01*
X109044322Y-108579135D01*
X109170865Y-108705678D01*
X109319664Y-108805102D01*
X109485000Y-108873587D01*
X109660521Y-108908500D01*
X109660522Y-108908500D01*
X109839478Y-108908500D01*
X109839479Y-108908500D01*
X110015000Y-108873587D01*
X110180336Y-108805102D01*
X110329135Y-108705678D01*
X110455678Y-108579135D01*
X110555102Y-108430336D01*
X110611040Y-108295290D01*
X117561500Y-108295290D01*
X117561500Y-108444709D01*
X117590649Y-108591246D01*
X117590650Y-108591249D01*
X117645313Y-108723217D01*
X117647826Y-108729284D01*
X117730835Y-108853516D01*
X117836484Y-108959165D01*
X117960716Y-109042174D01*
X118098754Y-109099351D01*
X118245294Y-109128500D01*
X118394706Y-109128500D01*
X118541246Y-109099351D01*
X118679284Y-109042174D01*
X118803516Y-108959165D01*
X118909165Y-108853516D01*
X118992174Y-108729284D01*
X119049351Y-108591246D01*
X119078500Y-108444706D01*
X119078500Y-108295294D01*
X119049351Y-108148754D01*
X118992174Y-108010716D01*
X118909165Y-107886484D01*
X118803516Y-107780835D01*
X118679284Y-107697826D01*
X118565608Y-107650740D01*
X118541249Y-107640650D01*
X118541246Y-107640649D01*
X118394709Y-107611500D01*
X118394706Y-107611500D01*
X118245294Y-107611500D01*
X118245290Y-107611500D01*
X118098753Y-107640649D01*
X118098750Y-107640650D01*
X117960715Y-107697826D01*
X117836488Y-107780832D01*
X117836481Y-107780837D01*
X117730837Y-107886481D01*
X117730832Y-107886488D01*
X117647826Y-108010715D01*
X117590650Y-108148750D01*
X117590649Y-108148753D01*
X117561500Y-108295290D01*
X110611040Y-108295290D01*
X110623587Y-108265000D01*
X110658500Y-108089479D01*
X110658500Y-107910521D01*
X110623587Y-107735000D01*
X110555102Y-107569664D01*
X110535627Y-107540518D01*
X126341500Y-107540518D01*
X126341500Y-107540521D01*
X126341500Y-107719479D01*
X126376413Y-107895000D01*
X126444898Y-108060336D01*
X126544322Y-108209135D01*
X126670865Y-108335678D01*
X126819664Y-108435102D01*
X126985000Y-108503587D01*
X127160521Y-108538500D01*
X127160522Y-108538500D01*
X127339478Y-108538500D01*
X127339479Y-108538500D01*
X127515000Y-108503587D01*
X127680336Y-108435102D01*
X127829135Y-108335678D01*
X127955678Y-108209135D01*
X128055102Y-108060336D01*
X128123587Y-107895000D01*
X128158500Y-107719479D01*
X128158500Y-107540521D01*
X128123587Y-107365000D01*
X128055102Y-107199664D01*
X127955678Y-107050865D01*
X127829135Y-106924322D01*
X127680336Y-106824898D01*
X127535731Y-106765000D01*
X127515003Y-106756414D01*
X127515001Y-106756413D01*
X127515000Y-106756413D01*
X127426645Y-106738838D01*
X127339481Y-106721500D01*
X127339479Y-106721500D01*
X127160521Y-106721500D01*
X127160518Y-106721500D01*
X127029771Y-106747507D01*
X126985000Y-106756413D01*
X126984999Y-106756413D01*
X126984996Y-106756414D01*
X126819662Y-106824899D01*
X126670869Y-106924319D01*
X126670862Y-106924324D01*
X126544324Y-107050862D01*
X126544319Y-107050869D01*
X126444899Y-107199662D01*
X126376414Y-107364996D01*
X126341500Y-107540518D01*
X110535627Y-107540518D01*
X110455678Y-107420865D01*
X110373908Y-107339095D01*
X110339882Y-107276783D01*
X110344947Y-107205968D01*
X110373908Y-107160905D01*
X110382242Y-107152571D01*
X110455678Y-107079135D01*
X110555102Y-106930336D01*
X110623587Y-106765000D01*
X110658500Y-106589479D01*
X110658500Y-106410521D01*
X110623587Y-106235000D01*
X110555102Y-106069664D01*
X110455678Y-105920865D01*
X110373908Y-105839095D01*
X110369499Y-105831022D01*
X110362135Y-105825509D01*
X110352751Y-105800350D01*
X110339882Y-105776783D01*
X110340538Y-105767606D01*
X110337324Y-105758989D01*
X110343031Y-105732752D01*
X110344947Y-105705968D01*
X110350858Y-105696769D01*
X110352415Y-105689615D01*
X110363139Y-105675290D01*
X113741500Y-105675290D01*
X113741500Y-105824709D01*
X113770649Y-105971246D01*
X113770650Y-105971249D01*
X113786080Y-106008500D01*
X113827826Y-106109284D01*
X113910835Y-106233516D01*
X114016484Y-106339165D01*
X114140716Y-106422174D01*
X114278754Y-106479351D01*
X114425294Y-106508500D01*
X114574706Y-106508500D01*
X114721246Y-106479351D01*
X114859284Y-106422174D01*
X114983516Y-106339165D01*
X115034994Y-106287686D01*
X115097303Y-106253662D01*
X115148670Y-106253204D01*
X115175294Y-106258500D01*
X115175297Y-106258500D01*
X115324706Y-106258500D01*
X115471246Y-106229351D01*
X115609284Y-106172174D01*
X115733516Y-106089165D01*
X115784994Y-106037686D01*
X115847303Y-106003662D01*
X115898670Y-106003204D01*
X115925294Y-106008500D01*
X115925297Y-106008500D01*
X116074706Y-106008500D01*
X116221246Y-105979351D01*
X116359284Y-105922174D01*
X116483516Y-105839165D01*
X116589165Y-105733516D01*
X116672174Y-105609284D01*
X116729351Y-105471246D01*
X116758500Y-105324706D01*
X116758500Y-105175294D01*
X116729351Y-105028754D01*
X116672174Y-104890716D01*
X116589165Y-104766484D01*
X116483516Y-104660835D01*
X116359284Y-104577826D01*
X116339574Y-104569662D01*
X116221249Y-104520650D01*
X116221246Y-104520649D01*
X116081575Y-104492866D01*
X116081573Y-104492865D01*
X116074706Y-104491500D01*
X116010480Y-104491500D01*
X116009283Y-104491477D01*
X115976520Y-104481169D01*
X115943583Y-104471498D01*
X115942759Y-104470547D01*
X115941560Y-104470170D01*
X115919583Y-104443800D01*
X115897090Y-104417842D01*
X115896910Y-104416596D01*
X115896106Y-104415631D01*
X115891875Y-104381574D01*
X115890684Y-104373290D01*
X126469500Y-104373290D01*
X126469500Y-104522709D01*
X126490248Y-104627012D01*
X126498649Y-104669246D01*
X126555826Y-104807284D01*
X126638835Y-104931516D01*
X126744484Y-105037165D01*
X126868716Y-105120174D01*
X127006754Y-105177351D01*
X127153294Y-105206500D01*
X127302706Y-105206500D01*
X127449246Y-105177351D01*
X127587284Y-105120174D01*
X127711516Y-105037165D01*
X127817165Y-104931516D01*
X127900174Y-104807284D01*
X127957351Y-104669246D01*
X127986500Y-104522706D01*
X127986500Y-104373294D01*
X127957351Y-104226754D01*
X127900174Y-104088716D01*
X127817165Y-103964484D01*
X127711516Y-103858835D01*
X127587284Y-103775826D01*
X127543997Y-103757896D01*
X127449249Y-103718650D01*
X127449246Y-103718649D01*
X127302709Y-103689500D01*
X127302706Y-103689500D01*
X127153294Y-103689500D01*
X127153290Y-103689500D01*
X127006753Y-103718649D01*
X127006750Y-103718650D01*
X126868715Y-103775826D01*
X126744488Y-103858832D01*
X126744481Y-103858837D01*
X126638837Y-103964481D01*
X126638832Y-103964488D01*
X126555826Y-104088715D01*
X126498650Y-104226750D01*
X126498649Y-104226753D01*
X126469500Y-104373290D01*
X115890684Y-104373290D01*
X115886986Y-104347568D01*
X115887508Y-104346423D01*
X115887354Y-104345176D01*
X115902218Y-104314213D01*
X115916480Y-104282988D01*
X115917747Y-104281869D01*
X115918082Y-104281173D01*
X115919589Y-104280244D01*
X115941703Y-104260735D01*
X116009126Y-104215684D01*
X116009125Y-104215684D01*
X116009135Y-104215678D01*
X116135678Y-104089135D01*
X116235102Y-103940336D01*
X116303587Y-103775000D01*
X116338500Y-103599479D01*
X116338500Y-103420521D01*
X116303587Y-103245000D01*
X116235102Y-103079664D01*
X116135678Y-102930865D01*
X116009135Y-102804322D01*
X115860336Y-102704898D01*
X115743429Y-102656473D01*
X115695003Y-102636414D01*
X115695001Y-102636413D01*
X115695000Y-102636413D01*
X115606645Y-102618838D01*
X115519481Y-102601500D01*
X115519479Y-102601500D01*
X115340521Y-102601500D01*
X115340518Y-102601500D01*
X115209771Y-102627507D01*
X115165000Y-102636413D01*
X115164999Y-102636413D01*
X115164996Y-102636414D01*
X114999662Y-102704899D01*
X114850869Y-102804319D01*
X114850862Y-102804324D01*
X114724324Y-102930862D01*
X114724319Y-102930869D01*
X114624899Y-103079662D01*
X114556414Y-103244996D01*
X114521500Y-103420518D01*
X114521500Y-103420521D01*
X114521500Y-103599479D01*
X114556413Y-103775000D01*
X114624898Y-103940336D01*
X114724322Y-104089135D01*
X114850865Y-104215678D01*
X114999664Y-104315102D01*
X115165000Y-104383587D01*
X115340521Y-104418500D01*
X115340522Y-104418500D01*
X115463798Y-104418500D01*
X115488603Y-104425783D01*
X115514253Y-104429043D01*
X115522097Y-104435618D01*
X115531919Y-104438502D01*
X115548851Y-104458043D01*
X115568664Y-104474650D01*
X115571708Y-104484421D01*
X115578412Y-104492158D01*
X115582091Y-104517751D01*
X115589781Y-104542433D01*
X115587059Y-104552298D01*
X115588516Y-104562432D01*
X115577774Y-104585950D01*
X115570899Y-104610873D01*
X115562354Y-104619715D01*
X115559022Y-104627012D01*
X115547861Y-104638358D01*
X115541215Y-104644309D01*
X115516484Y-104660835D01*
X115462574Y-104714744D01*
X115459973Y-104717074D01*
X115430930Y-104730917D01*
X115402691Y-104746337D01*
X115398504Y-104746374D01*
X115395885Y-104747623D01*
X115386874Y-104746478D01*
X115351329Y-104746795D01*
X115324711Y-104741500D01*
X115324706Y-104741500D01*
X115175294Y-104741500D01*
X115175290Y-104741500D01*
X115028753Y-104770649D01*
X115028750Y-104770650D01*
X114890716Y-104827826D01*
X114766953Y-104910522D01*
X114766483Y-104910836D01*
X114766480Y-104910837D01*
X114715004Y-104962313D01*
X114652691Y-104996337D01*
X114601329Y-104996795D01*
X114574711Y-104991500D01*
X114574706Y-104991500D01*
X114425294Y-104991500D01*
X114425290Y-104991500D01*
X114278753Y-105020649D01*
X114278750Y-105020650D01*
X114140715Y-105077826D01*
X114016488Y-105160832D01*
X114016481Y-105160837D01*
X113910837Y-105266481D01*
X113910832Y-105266488D01*
X113827826Y-105390715D01*
X113770650Y-105528750D01*
X113770649Y-105528753D01*
X113741500Y-105675290D01*
X110363139Y-105675290D01*
X110373908Y-105660905D01*
X110454804Y-105580009D01*
X110455678Y-105579135D01*
X110555102Y-105430336D01*
X110623587Y-105265000D01*
X110658500Y-105089479D01*
X110658500Y-104910521D01*
X110623587Y-104735000D01*
X110555102Y-104569664D01*
X110455678Y-104420865D01*
X110373908Y-104339095D01*
X110339882Y-104276783D01*
X110344947Y-104205968D01*
X110373908Y-104160905D01*
X110380416Y-104154397D01*
X110455678Y-104079135D01*
X110555102Y-103930336D01*
X110623587Y-103765000D01*
X110658500Y-103589479D01*
X110658500Y-103410521D01*
X110623587Y-103235000D01*
X110555102Y-103069664D01*
X110455678Y-102920865D01*
X110373908Y-102839095D01*
X110339882Y-102776783D01*
X110344947Y-102705968D01*
X110373908Y-102660905D01*
X110399713Y-102635100D01*
X110455678Y-102579135D01*
X110555102Y-102430336D01*
X110623587Y-102265000D01*
X110658500Y-102089479D01*
X110658500Y-101910521D01*
X110624685Y-101740518D01*
X123691500Y-101740518D01*
X123691500Y-101740521D01*
X123691500Y-101919479D01*
X123726413Y-102095000D01*
X123794898Y-102260336D01*
X123894322Y-102409135D01*
X124020865Y-102535678D01*
X124169664Y-102635102D01*
X124335000Y-102703587D01*
X124510521Y-102738500D01*
X124510522Y-102738500D01*
X124693605Y-102738500D01*
X124761726Y-102758502D01*
X124808219Y-102812158D01*
X124810014Y-102816282D01*
X124827826Y-102859284D01*
X124910835Y-102983516D01*
X125016484Y-103089165D01*
X125140716Y-103172174D01*
X125278754Y-103229351D01*
X125425294Y-103258500D01*
X125574706Y-103258500D01*
X125721246Y-103229351D01*
X125859284Y-103172174D01*
X125983516Y-103089165D01*
X126089165Y-102983516D01*
X126172174Y-102859284D01*
X126229351Y-102721246D01*
X126258500Y-102574706D01*
X126258500Y-102425294D01*
X126229351Y-102278754D01*
X126172174Y-102140716D01*
X126089165Y-102016484D01*
X125983516Y-101910835D01*
X125859284Y-101827826D01*
X125721249Y-101770650D01*
X125721246Y-101770649D01*
X125588547Y-101744253D01*
X125525637Y-101711345D01*
X125490506Y-101649650D01*
X125489556Y-101645285D01*
X125473587Y-101565000D01*
X125473585Y-101564996D01*
X125450642Y-101509606D01*
X125405102Y-101399664D01*
X125305678Y-101250865D01*
X125179135Y-101124322D01*
X125030336Y-101024898D01*
X124884659Y-100964556D01*
X124865003Y-100956414D01*
X124865001Y-100956413D01*
X124865000Y-100956413D01*
X124749803Y-100933499D01*
X124689481Y-100921500D01*
X124689479Y-100921500D01*
X124510521Y-100921500D01*
X124510518Y-100921500D01*
X124379771Y-100947507D01*
X124335000Y-100956413D01*
X124334999Y-100956413D01*
X124334996Y-100956414D01*
X124169662Y-101024899D01*
X124020869Y-101124319D01*
X124020862Y-101124324D01*
X123894324Y-101250862D01*
X123894319Y-101250869D01*
X123794899Y-101399662D01*
X123726414Y-101564996D01*
X123691500Y-101740518D01*
X110624685Y-101740518D01*
X110623587Y-101735000D01*
X110623585Y-101734996D01*
X110608334Y-101698176D01*
X110555102Y-101569664D01*
X110455678Y-101420865D01*
X110373908Y-101339095D01*
X110339882Y-101276783D01*
X110344947Y-101205968D01*
X110373908Y-101160905D01*
X110410494Y-101124319D01*
X110455678Y-101079135D01*
X110555102Y-100930336D01*
X110623587Y-100765000D01*
X110658500Y-100589479D01*
X110658500Y-100410521D01*
X110623587Y-100235000D01*
X110555102Y-100069664D01*
X110455678Y-99920865D01*
X110373908Y-99839095D01*
X110371545Y-99834767D01*
X110367407Y-99832082D01*
X110354693Y-99803907D01*
X110339882Y-99776783D01*
X110340233Y-99771863D01*
X110338206Y-99767369D01*
X110342741Y-99736804D01*
X110344947Y-99705968D01*
X110348102Y-99700677D01*
X110348627Y-99697141D01*
X110359540Y-99681498D01*
X110368152Y-99667059D01*
X110370923Y-99663889D01*
X110424295Y-99610518D01*
X122021500Y-99610518D01*
X122021500Y-99789481D01*
X122022463Y-99794322D01*
X122056413Y-99965000D01*
X122124898Y-100130336D01*
X122224322Y-100279135D01*
X122350865Y-100405678D01*
X122499664Y-100505102D01*
X122665000Y-100573587D01*
X122840521Y-100608500D01*
X122840522Y-100608500D01*
X123019478Y-100608500D01*
X123019479Y-100608500D01*
X123195000Y-100573587D01*
X123360336Y-100505102D01*
X123509135Y-100405678D01*
X123635678Y-100279135D01*
X123735102Y-100130336D01*
X123803587Y-99965000D01*
X123838500Y-99789479D01*
X123838500Y-99610521D01*
X123803587Y-99435000D01*
X123735102Y-99269664D01*
X123635678Y-99120865D01*
X123509135Y-98994322D01*
X123360336Y-98894898D01*
X123243429Y-98846473D01*
X123195003Y-98826414D01*
X123195001Y-98826413D01*
X123195000Y-98826413D01*
X123106645Y-98808838D01*
X123019481Y-98791500D01*
X123019479Y-98791500D01*
X122840521Y-98791500D01*
X122840518Y-98791500D01*
X122709771Y-98817507D01*
X122665000Y-98826413D01*
X122664999Y-98826413D01*
X122664996Y-98826414D01*
X122499662Y-98894899D01*
X122350869Y-98994319D01*
X122350862Y-98994324D01*
X122224324Y-99120862D01*
X122224319Y-99120869D01*
X122124899Y-99269662D01*
X122056414Y-99434996D01*
X122021500Y-99610518D01*
X110424295Y-99610518D01*
X110455678Y-99579135D01*
X110555102Y-99430336D01*
X110623587Y-99265000D01*
X110658500Y-99089479D01*
X110658500Y-98910521D01*
X110623587Y-98735000D01*
X110555102Y-98569664D01*
X110455678Y-98420865D01*
X110329135Y-98294322D01*
X110180336Y-98194898D01*
X110063429Y-98146473D01*
X110015003Y-98126414D01*
X110015001Y-98126413D01*
X110015000Y-98126413D01*
X109926645Y-98108838D01*
X109839481Y-98091500D01*
X109839479Y-98091500D01*
X109660521Y-98091500D01*
X109660518Y-98091500D01*
X109529771Y-98117507D01*
X109485000Y-98126413D01*
X109484999Y-98126413D01*
X109484996Y-98126414D01*
X109319662Y-98194899D01*
X109170869Y-98294319D01*
X109170862Y-98294324D01*
X109044324Y-98420862D01*
X109044319Y-98420869D01*
X108979765Y-98517481D01*
X108925288Y-98563009D01*
X108854845Y-98571857D01*
X108790801Y-98541215D01*
X108770235Y-98517481D01*
X108744153Y-98478447D01*
X108705678Y-98420865D01*
X108579135Y-98294322D01*
X108430336Y-98194898D01*
X108313429Y-98146473D01*
X108265003Y-98126414D01*
X108265001Y-98126413D01*
X108265000Y-98126413D01*
X108176645Y-98108838D01*
X108089481Y-98091500D01*
X108089479Y-98091500D01*
X107910521Y-98091500D01*
X107910518Y-98091500D01*
X107779771Y-98117507D01*
X107735000Y-98126413D01*
X107734999Y-98126413D01*
X107734996Y-98126414D01*
X107569662Y-98194899D01*
X107420869Y-98294319D01*
X107420862Y-98294324D01*
X107294324Y-98420862D01*
X107294319Y-98420869D01*
X107194899Y-98569662D01*
X107126414Y-98734996D01*
X107091500Y-98910518D01*
X107091500Y-98910521D01*
X107091500Y-99089479D01*
X107126413Y-99265000D01*
X107194898Y-99430336D01*
X107294322Y-99579135D01*
X107376092Y-99660905D01*
X107410117Y-99723217D01*
X107405051Y-99794033D01*
X107376092Y-99839095D01*
X107294320Y-99920867D01*
X107294319Y-99920869D01*
X107194899Y-100069662D01*
X107126414Y-100234996D01*
X107091500Y-100410518D01*
X107091500Y-100410521D01*
X107091500Y-100589479D01*
X107126413Y-100765000D01*
X107194898Y-100930336D01*
X107294322Y-101079135D01*
X107339506Y-101124319D01*
X107376092Y-101160905D01*
X107410117Y-101223217D01*
X107405051Y-101294033D01*
X107376092Y-101339095D01*
X107294320Y-101420867D01*
X107294319Y-101420869D01*
X107194899Y-101569662D01*
X107126414Y-101734996D01*
X107126414Y-101734997D01*
X107126413Y-101735000D01*
X107119322Y-101770649D01*
X107091500Y-101910518D01*
X107091500Y-102089481D01*
X107108838Y-102176645D01*
X107126413Y-102265000D01*
X107194898Y-102430336D01*
X107294322Y-102579135D01*
X107350287Y-102635100D01*
X107376092Y-102660905D01*
X107410117Y-102723217D01*
X107405051Y-102794033D01*
X107376092Y-102839095D01*
X107294320Y-102920867D01*
X107294319Y-102920869D01*
X107194899Y-103069662D01*
X107126414Y-103234996D01*
X107091500Y-103410518D01*
X107091500Y-103589481D01*
X107108838Y-103676645D01*
X107126413Y-103765000D01*
X107194898Y-103930336D01*
X107294322Y-104079135D01*
X107369584Y-104154397D01*
X107376092Y-104160905D01*
X107410117Y-104223217D01*
X107405051Y-104294033D01*
X107376092Y-104339095D01*
X107294320Y-104420867D01*
X107294319Y-104420869D01*
X107194899Y-104569662D01*
X107126414Y-104734996D01*
X107126413Y-104734999D01*
X107126413Y-104735000D01*
X107120150Y-104766488D01*
X107091500Y-104910518D01*
X107091500Y-105089481D01*
X107126414Y-105265003D01*
X107127029Y-105266488D01*
X107194898Y-105430336D01*
X107294322Y-105579135D01*
X107359426Y-105644239D01*
X107376092Y-105660905D01*
X107410117Y-105723217D01*
X107405051Y-105794033D01*
X107376092Y-105839095D01*
X107294320Y-105920867D01*
X107294319Y-105920869D01*
X107194899Y-106069662D01*
X107126414Y-106234996D01*
X107091500Y-106410518D01*
X107091500Y-106410521D01*
X107091500Y-106589479D01*
X107126413Y-106765000D01*
X107194898Y-106930336D01*
X107294322Y-107079135D01*
X107367758Y-107152571D01*
X107376092Y-107160905D01*
X107410117Y-107223217D01*
X107405051Y-107294033D01*
X107376092Y-107339095D01*
X107294320Y-107420867D01*
X107294319Y-107420869D01*
X107194899Y-107569662D01*
X107126414Y-107734996D01*
X107091500Y-107910518D01*
X107091500Y-107910521D01*
X107091500Y-108089479D01*
X107126413Y-108265000D01*
X107194898Y-108430336D01*
X107294322Y-108579135D01*
X107367757Y-108652570D01*
X107376092Y-108660905D01*
X107410117Y-108723217D01*
X107405051Y-108794033D01*
X107376092Y-108839095D01*
X107294320Y-108920867D01*
X107294319Y-108920869D01*
X107194899Y-109069662D01*
X107126414Y-109234996D01*
X107091500Y-109410518D01*
X107091500Y-109589481D01*
X107126414Y-109765003D01*
X107194898Y-109930336D01*
X107214128Y-109959116D01*
X107235342Y-110026870D01*
X107216558Y-110095336D01*
X107163740Y-110142779D01*
X107093658Y-110154134D01*
X107061144Y-110145526D01*
X107015005Y-110126414D01*
X106839481Y-110091500D01*
X106839479Y-110091500D01*
X106660521Y-110091500D01*
X106660518Y-110091500D01*
X106556343Y-110112222D01*
X106485000Y-110126413D01*
X106484998Y-110126413D01*
X106484992Y-110126415D01*
X106438854Y-110145526D01*
X106368265Y-110153115D01*
X106304778Y-110121335D01*
X106268551Y-110060277D01*
X106271085Y-109989326D01*
X106285868Y-109959120D01*
X106305102Y-109930336D01*
X106373587Y-109765000D01*
X106408500Y-109589479D01*
X106408500Y-109410521D01*
X106373587Y-109235000D01*
X106305102Y-109069664D01*
X106205678Y-108920865D01*
X106123908Y-108839095D01*
X106089882Y-108776783D01*
X106094947Y-108705968D01*
X106123908Y-108660905D01*
X106132243Y-108652570D01*
X106205678Y-108579135D01*
X106305102Y-108430336D01*
X106373587Y-108265000D01*
X106408500Y-108089479D01*
X106408500Y-107910521D01*
X106373587Y-107735000D01*
X106305102Y-107569664D01*
X106205678Y-107420865D01*
X106123908Y-107339095D01*
X106089882Y-107276783D01*
X106094947Y-107205968D01*
X106123908Y-107160905D01*
X106132242Y-107152571D01*
X106205678Y-107079135D01*
X106305102Y-106930336D01*
X106373587Y-106765000D01*
X106408500Y-106589479D01*
X106408500Y-106410521D01*
X106373587Y-106235000D01*
X106305102Y-106069664D01*
X106205678Y-105920865D01*
X106123908Y-105839095D01*
X106089882Y-105776783D01*
X106094947Y-105705968D01*
X106123908Y-105660905D01*
X106140574Y-105644239D01*
X106205678Y-105579135D01*
X106305102Y-105430336D01*
X106373587Y-105265000D01*
X106408500Y-105089479D01*
X106408500Y-104910521D01*
X106373587Y-104735000D01*
X106305102Y-104569664D01*
X106205678Y-104420865D01*
X106123908Y-104339095D01*
X106089882Y-104276783D01*
X106094947Y-104205968D01*
X106123908Y-104160905D01*
X106130416Y-104154397D01*
X106205678Y-104079135D01*
X106305102Y-103930336D01*
X106373587Y-103765000D01*
X106408500Y-103589479D01*
X106408500Y-103410521D01*
X106373587Y-103235000D01*
X106305102Y-103069664D01*
X106205678Y-102920865D01*
X106123908Y-102839095D01*
X106089882Y-102776783D01*
X106094947Y-102705968D01*
X106123908Y-102660905D01*
X106149713Y-102635100D01*
X106205678Y-102579135D01*
X106305102Y-102430336D01*
X106373587Y-102265000D01*
X106408500Y-102089479D01*
X106408500Y-101910521D01*
X106373587Y-101735000D01*
X106305102Y-101569664D01*
X106205678Y-101420865D01*
X106123908Y-101339095D01*
X106089882Y-101276783D01*
X106094947Y-101205968D01*
X106123908Y-101160905D01*
X106160494Y-101124319D01*
X106205678Y-101079135D01*
X106305102Y-100930336D01*
X106373587Y-100765000D01*
X106408500Y-100589479D01*
X106408500Y-100410521D01*
X106373587Y-100235000D01*
X106305102Y-100069664D01*
X106205678Y-99920865D01*
X106123908Y-99839095D01*
X106089882Y-99776783D01*
X106094947Y-99705968D01*
X106123908Y-99660905D01*
X106205678Y-99579135D01*
X106305102Y-99430336D01*
X106373587Y-99265000D01*
X106408500Y-99089479D01*
X106408500Y-98910521D01*
X106373587Y-98735000D01*
X106305102Y-98569664D01*
X106205678Y-98420865D01*
X106079135Y-98294322D01*
X105930336Y-98194898D01*
X105813429Y-98146473D01*
X105765003Y-98126414D01*
X105765001Y-98126413D01*
X105765000Y-98126413D01*
X105676645Y-98108838D01*
X105589481Y-98091500D01*
X105589479Y-98091500D01*
X105410521Y-98091500D01*
X105410518Y-98091500D01*
X105279771Y-98117507D01*
X105235000Y-98126413D01*
X105234999Y-98126413D01*
X105234996Y-98126414D01*
X105069662Y-98194899D01*
X104920869Y-98294319D01*
X104920862Y-98294324D01*
X104794324Y-98420862D01*
X104794319Y-98420869D01*
X104694899Y-98569662D01*
X104626414Y-98734996D01*
X104591500Y-98910518D01*
X104591500Y-98910521D01*
X104591500Y-99089479D01*
X104626413Y-99265000D01*
X104694898Y-99430336D01*
X104794322Y-99579135D01*
X104876092Y-99660905D01*
X104910117Y-99723217D01*
X104905051Y-99794033D01*
X104876092Y-99839095D01*
X104794320Y-99920867D01*
X104794319Y-99920869D01*
X104694899Y-100069662D01*
X104626414Y-100234996D01*
X104591500Y-100410518D01*
X104591500Y-100410521D01*
X104591500Y-100589479D01*
X104626413Y-100765000D01*
X104694898Y-100930336D01*
X104794322Y-101079135D01*
X104839506Y-101124319D01*
X104876092Y-101160905D01*
X104910117Y-101223217D01*
X104905051Y-101294033D01*
X104876092Y-101339095D01*
X104794320Y-101420867D01*
X104794319Y-101420869D01*
X104694899Y-101569662D01*
X104626414Y-101734996D01*
X104626414Y-101734997D01*
X104626413Y-101735000D01*
X104619322Y-101770649D01*
X104591500Y-101910518D01*
X104591500Y-102089481D01*
X104608838Y-102176645D01*
X104626413Y-102265000D01*
X104694898Y-102430336D01*
X104794322Y-102579135D01*
X104850287Y-102635100D01*
X104876092Y-102660905D01*
X104910117Y-102723217D01*
X104905051Y-102794033D01*
X104876092Y-102839095D01*
X104794320Y-102920867D01*
X104794319Y-102920869D01*
X104694899Y-103069662D01*
X104626414Y-103234996D01*
X104591500Y-103410518D01*
X104591500Y-103589481D01*
X104608838Y-103676645D01*
X104626413Y-103765000D01*
X104694898Y-103930336D01*
X104794322Y-104079135D01*
X104869584Y-104154397D01*
X104876092Y-104160905D01*
X104910117Y-104223217D01*
X104905051Y-104294033D01*
X104876092Y-104339095D01*
X104794320Y-104420867D01*
X104794319Y-104420869D01*
X104694899Y-104569662D01*
X104626414Y-104734996D01*
X104626413Y-104734999D01*
X104626413Y-104735000D01*
X104620150Y-104766488D01*
X104591500Y-104910518D01*
X104591500Y-105089481D01*
X104626414Y-105265003D01*
X104627029Y-105266488D01*
X104694898Y-105430336D01*
X104794322Y-105579135D01*
X104859426Y-105644239D01*
X104876092Y-105660905D01*
X104910117Y-105723217D01*
X104905051Y-105794033D01*
X104876092Y-105839095D01*
X104794320Y-105920867D01*
X104794319Y-105920869D01*
X104694899Y-106069662D01*
X104626414Y-106234996D01*
X104591500Y-106410518D01*
X104591500Y-106410521D01*
X104591500Y-106589479D01*
X104626413Y-106765000D01*
X104694898Y-106930336D01*
X104794322Y-107079135D01*
X104867758Y-107152571D01*
X104876092Y-107160905D01*
X104910117Y-107223217D01*
X104905051Y-107294033D01*
X104876092Y-107339095D01*
X104794320Y-107420867D01*
X104794319Y-107420869D01*
X104694899Y-107569662D01*
X104626414Y-107734996D01*
X104591500Y-107910518D01*
X104591500Y-107910521D01*
X104591500Y-108089479D01*
X104626413Y-108265000D01*
X104694898Y-108430336D01*
X104794322Y-108579135D01*
X104867757Y-108652570D01*
X104876092Y-108660905D01*
X104910117Y-108723217D01*
X104905051Y-108794033D01*
X104876092Y-108839095D01*
X104794320Y-108920867D01*
X104794319Y-108920869D01*
X104694899Y-109069662D01*
X104626414Y-109234996D01*
X104591500Y-109410518D01*
X104591500Y-109589481D01*
X104626414Y-109765003D01*
X104694898Y-109930336D01*
X104714128Y-109959116D01*
X104735342Y-110026870D01*
X104716558Y-110095336D01*
X104663740Y-110142779D01*
X104593658Y-110154134D01*
X104561144Y-110145526D01*
X104515005Y-110126414D01*
X104339481Y-110091500D01*
X104339479Y-110091500D01*
X104160521Y-110091500D01*
X104160518Y-110091500D01*
X104056343Y-110112222D01*
X103985000Y-110126413D01*
X103984998Y-110126413D01*
X103984992Y-110126415D01*
X103938854Y-110145526D01*
X103868265Y-110153115D01*
X103804778Y-110121335D01*
X103768551Y-110060277D01*
X103771085Y-109989326D01*
X103785868Y-109959120D01*
X103805102Y-109930336D01*
X103873587Y-109765000D01*
X103908500Y-109589479D01*
X103908500Y-109410521D01*
X103873587Y-109235000D01*
X103805102Y-109069664D01*
X103705678Y-108920865D01*
X103632242Y-108847429D01*
X103598216Y-108785117D01*
X103603281Y-108714302D01*
X103632242Y-108669239D01*
X103648911Y-108652570D01*
X103722346Y-108579135D01*
X103821770Y-108430336D01*
X103890255Y-108265000D01*
X103925168Y-108089479D01*
X103925168Y-107910521D01*
X103890255Y-107735000D01*
X103821770Y-107569664D01*
X103722346Y-107420865D01*
X103632242Y-107330761D01*
X103598216Y-107268449D01*
X103603281Y-107197634D01*
X103632242Y-107152571D01*
X103705678Y-107079135D01*
X103805102Y-106930336D01*
X103873587Y-106765000D01*
X103908500Y-106589479D01*
X103908500Y-106410521D01*
X103873587Y-106235000D01*
X103805102Y-106069664D01*
X103705678Y-105920865D01*
X103607242Y-105822429D01*
X103573216Y-105760117D01*
X103578281Y-105689302D01*
X103607242Y-105644239D01*
X103672346Y-105579135D01*
X103771770Y-105430336D01*
X103840255Y-105265000D01*
X103875168Y-105089479D01*
X103875168Y-104910521D01*
X103840255Y-104735000D01*
X103771770Y-104569664D01*
X103672346Y-104420865D01*
X103607242Y-104355761D01*
X103573216Y-104293449D01*
X103578281Y-104222634D01*
X103607242Y-104177571D01*
X103630416Y-104154397D01*
X103705678Y-104079135D01*
X103805102Y-103930336D01*
X103873587Y-103765000D01*
X103908500Y-103589479D01*
X103908500Y-103410521D01*
X103873587Y-103235000D01*
X103805102Y-103069664D01*
X103705678Y-102920865D01*
X103607242Y-102822429D01*
X103573216Y-102760117D01*
X103578281Y-102689302D01*
X103607242Y-102644239D01*
X103616381Y-102635100D01*
X103672346Y-102579135D01*
X103771770Y-102430336D01*
X103840255Y-102265000D01*
X103875168Y-102089479D01*
X103875168Y-101910521D01*
X103840255Y-101735000D01*
X103771770Y-101569664D01*
X103672346Y-101420865D01*
X103607242Y-101355761D01*
X103573216Y-101293449D01*
X103578281Y-101222634D01*
X103607242Y-101177571D01*
X103630416Y-101154397D01*
X103705678Y-101079135D01*
X103805102Y-100930336D01*
X103873587Y-100765000D01*
X103908500Y-100589479D01*
X103908500Y-100410521D01*
X103873587Y-100235000D01*
X103805102Y-100069664D01*
X103705678Y-99920865D01*
X103623908Y-99839095D01*
X103589882Y-99776783D01*
X103594947Y-99705968D01*
X103623908Y-99660905D01*
X103705678Y-99579135D01*
X103805102Y-99430336D01*
X103873587Y-99265000D01*
X103908500Y-99089479D01*
X103908500Y-98910521D01*
X103873587Y-98735000D01*
X103805102Y-98569664D01*
X103705678Y-98420865D01*
X103579135Y-98294322D01*
X103430336Y-98194898D01*
X103313429Y-98146473D01*
X103265003Y-98126414D01*
X103265001Y-98126413D01*
X103265000Y-98126413D01*
X103176645Y-98108838D01*
X103089481Y-98091500D01*
X103089479Y-98091500D01*
X102910521Y-98091500D01*
X102910518Y-98091500D01*
X102779771Y-98117507D01*
X102735000Y-98126413D01*
X102734999Y-98126413D01*
X102734996Y-98126414D01*
X102569662Y-98194899D01*
X102420869Y-98294319D01*
X102420862Y-98294324D01*
X102294324Y-98420862D01*
X102294319Y-98420869D01*
X102229765Y-98517481D01*
X102175288Y-98563009D01*
X102104845Y-98571857D01*
X102040801Y-98541215D01*
X102020235Y-98517481D01*
X101994153Y-98478447D01*
X101955678Y-98420865D01*
X101829135Y-98294322D01*
X101680336Y-98194898D01*
X101563429Y-98146473D01*
X101515003Y-98126414D01*
X101515001Y-98126413D01*
X101515000Y-98126413D01*
X101426645Y-98108838D01*
X101339481Y-98091500D01*
X101339479Y-98091500D01*
X101160521Y-98091500D01*
X101160518Y-98091500D01*
X101029771Y-98117507D01*
X100985000Y-98126413D01*
X100984999Y-98126413D01*
X100984996Y-98126414D01*
X100819662Y-98194899D01*
X100670869Y-98294319D01*
X100670862Y-98294324D01*
X100544324Y-98420862D01*
X100544319Y-98420869D01*
X100444899Y-98569662D01*
X100376414Y-98734996D01*
X100341500Y-98910518D01*
X77339500Y-98910518D01*
X77339500Y-94737656D01*
X81202000Y-94737656D01*
X81202000Y-95082343D01*
X81235782Y-95425336D01*
X81235785Y-95425357D01*
X81303022Y-95763389D01*
X81403078Y-96093228D01*
X81534981Y-96411672D01*
X81697460Y-96715650D01*
X81888945Y-97002227D01*
X81888956Y-97002242D01*
X82055551Y-97205238D01*
X83484960Y-95775829D01*
X83565864Y-95887184D01*
X83732816Y-96054136D01*
X83844169Y-96135038D01*
X82414760Y-97564447D01*
X82617757Y-97731043D01*
X82617772Y-97731054D01*
X82904349Y-97922539D01*
X83208327Y-98085018D01*
X83526771Y-98216921D01*
X83856610Y-98316977D01*
X84194642Y-98384214D01*
X84194663Y-98384217D01*
X84537656Y-98417999D01*
X84537672Y-98418000D01*
X84882328Y-98418000D01*
X84882343Y-98417999D01*
X85225336Y-98384217D01*
X85225357Y-98384214D01*
X85563389Y-98316977D01*
X85893228Y-98216921D01*
X86211672Y-98085018D01*
X86515650Y-97922539D01*
X86802225Y-97731056D01*
X86802231Y-97731051D01*
X87005238Y-97564447D01*
X85575830Y-96135039D01*
X85687184Y-96054136D01*
X85854136Y-95887184D01*
X85935039Y-95775830D01*
X87364447Y-97205238D01*
X87531051Y-97002231D01*
X87531056Y-97002225D01*
X87722539Y-96715650D01*
X87885018Y-96411672D01*
X88016921Y-96093228D01*
X88116977Y-95763389D01*
X88184214Y-95425357D01*
X88184217Y-95425336D01*
X88217999Y-95082343D01*
X88218000Y-95082327D01*
X88218000Y-94737672D01*
X88217999Y-94737656D01*
X122942000Y-94737656D01*
X122942000Y-95082343D01*
X122975782Y-95425336D01*
X122975785Y-95425357D01*
X123043022Y-95763389D01*
X123143078Y-96093228D01*
X123274981Y-96411672D01*
X123437460Y-96715650D01*
X123628945Y-97002227D01*
X123628956Y-97002242D01*
X123795551Y-97205238D01*
X125224960Y-95775829D01*
X125305864Y-95887184D01*
X125472816Y-96054136D01*
X125584169Y-96135038D01*
X124154760Y-97564447D01*
X124357757Y-97731043D01*
X124357772Y-97731054D01*
X124644349Y-97922539D01*
X124948327Y-98085018D01*
X125266771Y-98216921D01*
X125596610Y-98316977D01*
X125934642Y-98384214D01*
X125934663Y-98384217D01*
X126277656Y-98417999D01*
X126277672Y-98418000D01*
X126622328Y-98418000D01*
X126622343Y-98417999D01*
X126965336Y-98384217D01*
X126965357Y-98384214D01*
X127303389Y-98316977D01*
X127633228Y-98216921D01*
X127951672Y-98085018D01*
X128255650Y-97922539D01*
X128542225Y-97731056D01*
X128542231Y-97731051D01*
X128745238Y-97564447D01*
X127315830Y-96135039D01*
X127427184Y-96054136D01*
X127594136Y-95887184D01*
X127675039Y-95775830D01*
X129104447Y-97205238D01*
X129271051Y-97002231D01*
X129271056Y-97002225D01*
X129462539Y-96715650D01*
X129625018Y-96411672D01*
X129756921Y-96093228D01*
X129856977Y-95763389D01*
X129924214Y-95425357D01*
X129924217Y-95425336D01*
X129957999Y-95082343D01*
X129958000Y-95082327D01*
X129958000Y-94737672D01*
X129957999Y-94737656D01*
X129924217Y-94394663D01*
X129924214Y-94394642D01*
X129856977Y-94056610D01*
X129756921Y-93726771D01*
X129625018Y-93408327D01*
X129462539Y-93104349D01*
X129271054Y-92817772D01*
X129271043Y-92817757D01*
X129104447Y-92614760D01*
X127675038Y-94044168D01*
X127594136Y-93932816D01*
X127427184Y-93765864D01*
X127315829Y-93684960D01*
X128745238Y-92255551D01*
X128542242Y-92088956D01*
X128542227Y-92088945D01*
X128255650Y-91897460D01*
X127951672Y-91734981D01*
X127633228Y-91603078D01*
X127303389Y-91503022D01*
X126965357Y-91435785D01*
X126965336Y-91435782D01*
X126622343Y-91402000D01*
X126277656Y-91402000D01*
X125934663Y-91435782D01*
X125934642Y-91435785D01*
X125596610Y-91503022D01*
X125266771Y-91603078D01*
X124948327Y-91734981D01*
X124644349Y-91897460D01*
X124357764Y-92088950D01*
X124154760Y-92255550D01*
X124154760Y-92255551D01*
X125584169Y-93684960D01*
X125472816Y-93765864D01*
X125305864Y-93932816D01*
X125224960Y-94044169D01*
X123795551Y-92614760D01*
X123795550Y-92614760D01*
X123628950Y-92817764D01*
X123437460Y-93104349D01*
X123274981Y-93408327D01*
X123143078Y-93726771D01*
X123043022Y-94056610D01*
X122975785Y-94394642D01*
X122975782Y-94394663D01*
X122942000Y-94737656D01*
X88217999Y-94737656D01*
X88184217Y-94394663D01*
X88184214Y-94394642D01*
X88116977Y-94056610D01*
X88016921Y-93726771D01*
X87885018Y-93408327D01*
X87722539Y-93104349D01*
X87531054Y-92817772D01*
X87531043Y-92817757D01*
X87364447Y-92614760D01*
X85935038Y-94044168D01*
X85854136Y-93932816D01*
X85687184Y-93765864D01*
X85575829Y-93684960D01*
X87005238Y-92255551D01*
X86802242Y-92088956D01*
X86802227Y-92088945D01*
X86515650Y-91897460D01*
X86211672Y-91734981D01*
X85893228Y-91603078D01*
X85563389Y-91503022D01*
X85225357Y-91435785D01*
X85225336Y-91435782D01*
X84882343Y-91402000D01*
X84537656Y-91402000D01*
X84194663Y-91435782D01*
X84194642Y-91435785D01*
X83856610Y-91503022D01*
X83526771Y-91603078D01*
X83208327Y-91734981D01*
X82904349Y-91897460D01*
X82617764Y-92088950D01*
X82414760Y-92255550D01*
X82414760Y-92255551D01*
X83844169Y-93684960D01*
X83732816Y-93765864D01*
X83565864Y-93932816D01*
X83484960Y-94044169D01*
X82055551Y-92614760D01*
X82055550Y-92614760D01*
X81888950Y-92817764D01*
X81697460Y-93104349D01*
X81534981Y-93408327D01*
X81403078Y-93726771D01*
X81303022Y-94056610D01*
X81235785Y-94394642D01*
X81235782Y-94394663D01*
X81202000Y-94737656D01*
X77339500Y-94737656D01*
X77339500Y-87325999D01*
X78412776Y-87325999D01*
X78412776Y-87326000D01*
X79229940Y-87326000D01*
X79205795Y-87339940D01*
X79149940Y-87395795D01*
X79110444Y-87464204D01*
X79090000Y-87540504D01*
X79090000Y-87619496D01*
X79110444Y-87695796D01*
X79149940Y-87764205D01*
X79205795Y-87820060D01*
X79229940Y-87834000D01*
X78412776Y-87834000D01*
X78420737Y-87874023D01*
X78420739Y-87874028D01*
X78496722Y-88057466D01*
X78607032Y-88222557D01*
X78607037Y-88222564D01*
X78747435Y-88362962D01*
X78747442Y-88362967D01*
X78912533Y-88473277D01*
X79095971Y-88549260D01*
X79095976Y-88549262D01*
X79290718Y-88587999D01*
X79290722Y-88588000D01*
X79536000Y-88588000D01*
X79536000Y-87880000D01*
X80044000Y-87880000D01*
X80044000Y-88588000D01*
X80289278Y-88588000D01*
X80289281Y-88587999D01*
X80484023Y-88549262D01*
X80484028Y-88549260D01*
X80667466Y-88473277D01*
X80832557Y-88362967D01*
X80832564Y-88362962D01*
X80972962Y-88222564D01*
X80972967Y-88222557D01*
X81083277Y-88057466D01*
X81159260Y-87874028D01*
X81159262Y-87874023D01*
X81167224Y-87834000D01*
X80350060Y-87834000D01*
X80374205Y-87820060D01*
X80430060Y-87764205D01*
X80469556Y-87695796D01*
X80490000Y-87619496D01*
X80490000Y-87540504D01*
X80469556Y-87464204D01*
X80430060Y-87395795D01*
X80374205Y-87339940D01*
X80350060Y-87326000D01*
X81167224Y-87326000D01*
X81167223Y-87325999D01*
X82442776Y-87325999D01*
X82442776Y-87326000D01*
X83259940Y-87326000D01*
X83235795Y-87339940D01*
X83179940Y-87395795D01*
X83140444Y-87464204D01*
X83120000Y-87540504D01*
X83120000Y-87619496D01*
X83140444Y-87695796D01*
X83179940Y-87764205D01*
X83235795Y-87820060D01*
X83259940Y-87834000D01*
X82442776Y-87834000D01*
X82450737Y-87874023D01*
X82450739Y-87874028D01*
X82526722Y-88057466D01*
X82637032Y-88222557D01*
X82637037Y-88222564D01*
X82777435Y-88362962D01*
X82777442Y-88362967D01*
X82942533Y-88473277D01*
X83125971Y-88549260D01*
X83125976Y-88549262D01*
X83320718Y-88587999D01*
X83320722Y-88588000D01*
X83716000Y-88588000D01*
X83716000Y-87880000D01*
X84224000Y-87880000D01*
X84224000Y-88588000D01*
X84619278Y-88588000D01*
X84619281Y-88587999D01*
X84814023Y-88549262D01*
X84814028Y-88549260D01*
X84997466Y-88473277D01*
X85162557Y-88362967D01*
X85162564Y-88362962D01*
X85302962Y-88222564D01*
X85302967Y-88222557D01*
X85413277Y-88057466D01*
X85489260Y-87874028D01*
X85489262Y-87874023D01*
X85497224Y-87834000D01*
X84680060Y-87834000D01*
X84704205Y-87820060D01*
X84760060Y-87764205D01*
X84799556Y-87695796D01*
X84820000Y-87619496D01*
X84820000Y-87540504D01*
X84799556Y-87464204D01*
X84760060Y-87395795D01*
X84704205Y-87339940D01*
X84680060Y-87326000D01*
X85497224Y-87326000D01*
X85497223Y-87325999D01*
X85489262Y-87285976D01*
X85489260Y-87285971D01*
X85413277Y-87102533D01*
X85302967Y-86937442D01*
X85302962Y-86937435D01*
X85162564Y-86797037D01*
X85162557Y-86797032D01*
X84997466Y-86686722D01*
X84814028Y-86610739D01*
X84814023Y-86610737D01*
X84619281Y-86572000D01*
X84224000Y-86572000D01*
X84224000Y-87280000D01*
X83716000Y-87280000D01*
X83716000Y-86745248D01*
X83736002Y-86677127D01*
X83778999Y-86636129D01*
X83823365Y-86610515D01*
X83930515Y-86503365D01*
X84006281Y-86372135D01*
X84045500Y-86225766D01*
X84045500Y-86170518D01*
X122485500Y-86170518D01*
X122485500Y-86349481D01*
X122490007Y-86372139D01*
X122520413Y-86525000D01*
X122588898Y-86690336D01*
X122688322Y-86839135D01*
X122814865Y-86965678D01*
X122963664Y-87065102D01*
X123129000Y-87133587D01*
X123304521Y-87168500D01*
X123304522Y-87168500D01*
X123483478Y-87168500D01*
X123483479Y-87168500D01*
X123659000Y-87133587D01*
X123824336Y-87065102D01*
X123973135Y-86965678D01*
X124099678Y-86839135D01*
X124199102Y-86690336D01*
X124267587Y-86525000D01*
X124302500Y-86349479D01*
X124302500Y-86170521D01*
X124267587Y-85995000D01*
X124199102Y-85829664D01*
X124099678Y-85680865D01*
X123973135Y-85554322D01*
X123824336Y-85454898D01*
X123707429Y-85406473D01*
X123659003Y-85386414D01*
X123659001Y-85386413D01*
X123659000Y-85386413D01*
X123570645Y-85368838D01*
X123483481Y-85351500D01*
X123483479Y-85351500D01*
X123304521Y-85351500D01*
X123304518Y-85351500D01*
X123173771Y-85377507D01*
X123129000Y-85386413D01*
X123128999Y-85386413D01*
X123128996Y-85386414D01*
X122963662Y-85454899D01*
X122814869Y-85554319D01*
X122814862Y-85554324D01*
X122688324Y-85680862D01*
X122688319Y-85680869D01*
X122588899Y-85829662D01*
X122520414Y-85994996D01*
X122485500Y-86170518D01*
X84045500Y-86170518D01*
X84045500Y-86074234D01*
X84006281Y-85927865D01*
X83983771Y-85888877D01*
X83930517Y-85796638D01*
X83930509Y-85796628D01*
X83823371Y-85689490D01*
X83823361Y-85689482D01*
X83692139Y-85613721D01*
X83692136Y-85613720D01*
X83692135Y-85613719D01*
X83692133Y-85613718D01*
X83692132Y-85613718D01*
X83652911Y-85603209D01*
X83545766Y-85574500D01*
X83394234Y-85574500D01*
X83315798Y-85595516D01*
X83247867Y-85613718D01*
X83247860Y-85613721D01*
X83116638Y-85689482D01*
X83116628Y-85689490D01*
X83009490Y-85796628D01*
X83009482Y-85796638D01*
X82933721Y-85927860D01*
X82933718Y-85927867D01*
X82915730Y-85995000D01*
X82894500Y-86074234D01*
X82894500Y-86225766D01*
X82923209Y-86332911D01*
X82933718Y-86372132D01*
X82933721Y-86372139D01*
X83010156Y-86504528D01*
X83026894Y-86573524D01*
X83003673Y-86640615D01*
X82949261Y-86683934D01*
X82942539Y-86686718D01*
X82942533Y-86686721D01*
X82777442Y-86797032D01*
X82777435Y-86797037D01*
X82637037Y-86937435D01*
X82637032Y-86937442D01*
X82526722Y-87102533D01*
X82450739Y-87285971D01*
X82450737Y-87285976D01*
X82442776Y-87325999D01*
X81167223Y-87325999D01*
X81159262Y-87285976D01*
X81159260Y-87285971D01*
X81083277Y-87102533D01*
X80972967Y-86937442D01*
X80972962Y-86937435D01*
X80832564Y-86797037D01*
X80832557Y-86797032D01*
X80667466Y-86686722D01*
X80484028Y-86610739D01*
X80484023Y-86610737D01*
X80289281Y-86572000D01*
X80044000Y-86572000D01*
X80044000Y-87280000D01*
X79536000Y-87280000D01*
X79536000Y-86572000D01*
X79290718Y-86572000D01*
X79095976Y-86610737D01*
X79095971Y-86610739D01*
X78912533Y-86686722D01*
X78747442Y-86797032D01*
X78747435Y-86797037D01*
X78607037Y-86937435D01*
X78607032Y-86937442D01*
X78496722Y-87102533D01*
X78420739Y-87285971D01*
X78420737Y-87285976D01*
X78412776Y-87325999D01*
X77339500Y-87325999D01*
X77339500Y-84445290D01*
X82601500Y-84445290D01*
X82601500Y-84594709D01*
X82630649Y-84741246D01*
X82687826Y-84879284D01*
X82770835Y-85003516D01*
X82876484Y-85109165D01*
X83000716Y-85192174D01*
X83138754Y-85249351D01*
X83285294Y-85278500D01*
X83434706Y-85278500D01*
X83581246Y-85249351D01*
X83719284Y-85192174D01*
X83843516Y-85109165D01*
X83949165Y-85003516D01*
X84032174Y-84879284D01*
X84089351Y-84741246D01*
X84118500Y-84594706D01*
X84118500Y-84445294D01*
X84089351Y-84298754D01*
X84032174Y-84160716D01*
X83949165Y-84036484D01*
X83843516Y-83930835D01*
X83719284Y-83847826D01*
X83581249Y-83790650D01*
X83581246Y-83790649D01*
X83434709Y-83761500D01*
X83434706Y-83761500D01*
X83285294Y-83761500D01*
X83285290Y-83761500D01*
X83138753Y-83790649D01*
X83138750Y-83790650D01*
X83000715Y-83847826D01*
X82876488Y-83930832D01*
X82876481Y-83930837D01*
X82770837Y-84036481D01*
X82770832Y-84036488D01*
X82687826Y-84160715D01*
X82630650Y-84298750D01*
X82630649Y-84298753D01*
X82601500Y-84445290D01*
X77339500Y-84445290D01*
X77339500Y-78685999D01*
X78412776Y-78685999D01*
X78412776Y-78686000D01*
X79229940Y-78686000D01*
X79205795Y-78699940D01*
X79149940Y-78755795D01*
X79110444Y-78824204D01*
X79090000Y-78900504D01*
X79090000Y-78979496D01*
X79110444Y-79055796D01*
X79149940Y-79124205D01*
X79205795Y-79180060D01*
X79229940Y-79194000D01*
X78412776Y-79194000D01*
X78420737Y-79234023D01*
X78420739Y-79234028D01*
X78496722Y-79417466D01*
X78607032Y-79582557D01*
X78607037Y-79582564D01*
X78747435Y-79722962D01*
X78747442Y-79722967D01*
X78912533Y-79833277D01*
X79095971Y-79909260D01*
X79095976Y-79909262D01*
X79290718Y-79947999D01*
X79290722Y-79948000D01*
X79536000Y-79948000D01*
X79536000Y-79240000D01*
X80044000Y-79240000D01*
X80044000Y-79948000D01*
X80289278Y-79948000D01*
X80289281Y-79947999D01*
X80484023Y-79909262D01*
X80484028Y-79909260D01*
X80667466Y-79833277D01*
X80832557Y-79722967D01*
X80832564Y-79722962D01*
X80972962Y-79582564D01*
X80972967Y-79582557D01*
X81083277Y-79417466D01*
X81159260Y-79234028D01*
X81159262Y-79234023D01*
X81167224Y-79194000D01*
X80350060Y-79194000D01*
X80374205Y-79180060D01*
X80430060Y-79124205D01*
X80469556Y-79055796D01*
X80490000Y-78979496D01*
X80490000Y-78900504D01*
X80469556Y-78824204D01*
X80430060Y-78755795D01*
X80374205Y-78699940D01*
X80350060Y-78686000D01*
X81167224Y-78686000D01*
X81167223Y-78685999D01*
X82442776Y-78685999D01*
X82442776Y-78686000D01*
X83259940Y-78686000D01*
X83235795Y-78699940D01*
X83179940Y-78755795D01*
X83140444Y-78824204D01*
X83120000Y-78900504D01*
X83120000Y-78979496D01*
X83140444Y-79055796D01*
X83179940Y-79124205D01*
X83235795Y-79180060D01*
X83259940Y-79194000D01*
X82442776Y-79194000D01*
X82450737Y-79234023D01*
X82450739Y-79234028D01*
X82526722Y-79417466D01*
X82637032Y-79582557D01*
X82637037Y-79582564D01*
X82777435Y-79722962D01*
X82777442Y-79722967D01*
X82942531Y-79833277D01*
X82949253Y-79836061D01*
X83004535Y-79880609D01*
X83026957Y-79947972D01*
X83010157Y-80015470D01*
X82933720Y-80147862D01*
X82933719Y-80147865D01*
X82894500Y-80294234D01*
X82894500Y-80445766D01*
X82912462Y-80512802D01*
X82933718Y-80592132D01*
X82933720Y-80592137D01*
X83001293Y-80709177D01*
X83018030Y-80778172D01*
X82994809Y-80845264D01*
X82962175Y-80876941D01*
X82896488Y-80920831D01*
X82896481Y-80920837D01*
X82790837Y-81026481D01*
X82790832Y-81026488D01*
X82707826Y-81150715D01*
X82650650Y-81288750D01*
X82650649Y-81288753D01*
X82621500Y-81435290D01*
X82621500Y-81584709D01*
X82650649Y-81731246D01*
X82650650Y-81731249D01*
X82691194Y-81829130D01*
X82707826Y-81869284D01*
X82790835Y-81993516D01*
X82896484Y-82099165D01*
X83020716Y-82182174D01*
X83158754Y-82239351D01*
X83305294Y-82268500D01*
X83454706Y-82268500D01*
X83601246Y-82239351D01*
X83739284Y-82182174D01*
X83863516Y-82099165D01*
X83969165Y-81993516D01*
X84052174Y-81869284D01*
X84109351Y-81731246D01*
X84138500Y-81584706D01*
X84138500Y-81435294D01*
X84109351Y-81288754D01*
X84062353Y-81175290D01*
X88241500Y-81175290D01*
X88241500Y-81324709D01*
X88270649Y-81471246D01*
X88270650Y-81471249D01*
X88314363Y-81576782D01*
X88321952Y-81647372D01*
X88314363Y-81673218D01*
X88270650Y-81778750D01*
X88270649Y-81778753D01*
X88241500Y-81925290D01*
X88241500Y-82074709D01*
X88270649Y-82221246D01*
X88270650Y-82221249D01*
X88313747Y-82325294D01*
X88327826Y-82359284D01*
X88410835Y-82483516D01*
X88516484Y-82589165D01*
X88640716Y-82672174D01*
X88778754Y-82729351D01*
X88925294Y-82758500D01*
X89074706Y-82758500D01*
X89221246Y-82729351D01*
X89359284Y-82672174D01*
X89483516Y-82589165D01*
X89589165Y-82483516D01*
X89672174Y-82359284D01*
X89686255Y-82325290D01*
X90041500Y-82325290D01*
X90041500Y-82474709D01*
X90070649Y-82621246D01*
X90070650Y-82621249D01*
X90091744Y-82672174D01*
X90127826Y-82759284D01*
X90210835Y-82883516D01*
X90316484Y-82989165D01*
X90440716Y-83072174D01*
X90578754Y-83129351D01*
X90725294Y-83158500D01*
X90874706Y-83158500D01*
X91021246Y-83129351D01*
X91159284Y-83072174D01*
X91283516Y-82989165D01*
X91389165Y-82883516D01*
X91472174Y-82759284D01*
X91529351Y-82621246D01*
X91543390Y-82550668D01*
X123366500Y-82550668D01*
X123366500Y-82550671D01*
X123366500Y-82749329D01*
X123405256Y-82944169D01*
X123481279Y-83127704D01*
X123591647Y-83292881D01*
X123732119Y-83433353D01*
X123897296Y-83543721D01*
X124080831Y-83619744D01*
X124275671Y-83658500D01*
X124275672Y-83658500D01*
X124474328Y-83658500D01*
X124474329Y-83658500D01*
X124669169Y-83619744D01*
X124852704Y-83543721D01*
X125017881Y-83433353D01*
X125158353Y-83292881D01*
X125268721Y-83127704D01*
X125344744Y-82944169D01*
X125383500Y-82749329D01*
X125383500Y-82550671D01*
X125344744Y-82355831D01*
X125268721Y-82172296D01*
X125158353Y-82007119D01*
X125017881Y-81866647D01*
X124852704Y-81756279D01*
X124669169Y-81680256D01*
X124633787Y-81673218D01*
X124474331Y-81641500D01*
X124474329Y-81641500D01*
X124275671Y-81641500D01*
X124275668Y-81641500D01*
X124080830Y-81680256D01*
X124080825Y-81680258D01*
X123897296Y-81756279D01*
X123732123Y-81866644D01*
X123732116Y-81866649D01*
X123591649Y-82007116D01*
X123591644Y-82007123D01*
X123481279Y-82172296D01*
X123405258Y-82355825D01*
X123405256Y-82355830D01*
X123366500Y-82550668D01*
X91543390Y-82550668D01*
X91558500Y-82474706D01*
X91558500Y-82325294D01*
X91529351Y-82178754D01*
X91472174Y-82040716D01*
X91389165Y-81916484D01*
X91283516Y-81810835D01*
X91159284Y-81727826D01*
X91044633Y-81680336D01*
X91021249Y-81670650D01*
X91021246Y-81670649D01*
X90874709Y-81641500D01*
X90874706Y-81641500D01*
X90725294Y-81641500D01*
X90725290Y-81641500D01*
X90578753Y-81670649D01*
X90578750Y-81670650D01*
X90440715Y-81727826D01*
X90316488Y-81810832D01*
X90316481Y-81810837D01*
X90210837Y-81916481D01*
X90210832Y-81916488D01*
X90127826Y-82040715D01*
X90070650Y-82178750D01*
X90070649Y-82178753D01*
X90041500Y-82325290D01*
X89686255Y-82325290D01*
X89729351Y-82221246D01*
X89758500Y-82074706D01*
X89758500Y-81925294D01*
X89729351Y-81778754D01*
X89685635Y-81673215D01*
X89682605Y-81645027D01*
X89676275Y-81617394D01*
X89678565Y-81607455D01*
X89678047Y-81602629D01*
X89683512Y-81582269D01*
X89684505Y-81579512D01*
X89727676Y-81475290D01*
X92571500Y-81475290D01*
X92571500Y-81624709D01*
X92600649Y-81771246D01*
X92600650Y-81771249D01*
X92643173Y-81873908D01*
X92657826Y-81909284D01*
X92740835Y-82033516D01*
X92846484Y-82139165D01*
X92970716Y-82222174D01*
X93108754Y-82279351D01*
X93255294Y-82308500D01*
X93404706Y-82308500D01*
X93551246Y-82279351D01*
X93689284Y-82222174D01*
X93813516Y-82139165D01*
X93919165Y-82033516D01*
X94002174Y-81909284D01*
X94059351Y-81771246D01*
X94088500Y-81624706D01*
X94088500Y-81475294D01*
X94059351Y-81328754D01*
X94002174Y-81190716D01*
X93919165Y-81066484D01*
X93813516Y-80960835D01*
X93689284Y-80877826D01*
X93646118Y-80859946D01*
X93551249Y-80820650D01*
X93551246Y-80820649D01*
X93404709Y-80791500D01*
X93404706Y-80791500D01*
X93255294Y-80791500D01*
X93255290Y-80791500D01*
X93108753Y-80820649D01*
X93108750Y-80820650D01*
X92970715Y-80877826D01*
X92846488Y-80960832D01*
X92846481Y-80960837D01*
X92740837Y-81066481D01*
X92740832Y-81066488D01*
X92657826Y-81190715D01*
X92600650Y-81328750D01*
X92600649Y-81328753D01*
X92571500Y-81475290D01*
X89727676Y-81475290D01*
X89729351Y-81471246D01*
X89758500Y-81324706D01*
X89758500Y-81175294D01*
X89753204Y-81148671D01*
X89759530Y-81077958D01*
X89787685Y-81034995D01*
X89839165Y-80983516D01*
X89922174Y-80859284D01*
X89979351Y-80721246D01*
X90008500Y-80574706D01*
X90008500Y-80425294D01*
X89979351Y-80278754D01*
X89922174Y-80140716D01*
X89839165Y-80016484D01*
X89733516Y-79910835D01*
X89733042Y-79910518D01*
X100591500Y-79910518D01*
X100591500Y-80089481D01*
X100603114Y-80147867D01*
X100626413Y-80265000D01*
X100694898Y-80430336D01*
X100694899Y-80430337D01*
X100778194Y-80554998D01*
X100799409Y-80622751D01*
X100780626Y-80691218D01*
X100778194Y-80695002D01*
X100694899Y-80819662D01*
X100626414Y-80984996D01*
X100591500Y-81160518D01*
X100591500Y-81160521D01*
X100591500Y-81339479D01*
X100626413Y-81515000D01*
X100694898Y-81680336D01*
X100794322Y-81829135D01*
X100920865Y-81955678D01*
X101069664Y-82055102D01*
X101235000Y-82123587D01*
X101410521Y-82158500D01*
X101410522Y-82158500D01*
X101589478Y-82158500D01*
X101589479Y-82158500D01*
X101765000Y-82123587D01*
X101930336Y-82055102D01*
X102079135Y-81955678D01*
X102160905Y-81873908D01*
X102223217Y-81839882D01*
X102294032Y-81844947D01*
X102339095Y-81873908D01*
X102420865Y-81955678D01*
X102569664Y-82055102D01*
X102735000Y-82123587D01*
X102910521Y-82158500D01*
X102910522Y-82158500D01*
X103089478Y-82158500D01*
X103089479Y-82158500D01*
X103265000Y-82123587D01*
X103430336Y-82055102D01*
X103579135Y-81955678D01*
X103660905Y-81873908D01*
X103723217Y-81839882D01*
X103794032Y-81844947D01*
X103839095Y-81873908D01*
X103920865Y-81955678D01*
X104069664Y-82055102D01*
X104235000Y-82123587D01*
X104410521Y-82158500D01*
X104410522Y-82158500D01*
X104589478Y-82158500D01*
X104589479Y-82158500D01*
X104765000Y-82123587D01*
X104930336Y-82055102D01*
X105079135Y-81955678D01*
X105205678Y-81829135D01*
X105305102Y-81680336D01*
X105373587Y-81515000D01*
X105408500Y-81339479D01*
X105408500Y-81160521D01*
X105373587Y-80985000D01*
X105305102Y-80819664D01*
X105205678Y-80670865D01*
X105079135Y-80544322D01*
X104930336Y-80444898D01*
X104813429Y-80396473D01*
X104765003Y-80376414D01*
X104765001Y-80376413D01*
X104765000Y-80376413D01*
X104676645Y-80358838D01*
X104589481Y-80341500D01*
X104589479Y-80341500D01*
X104410521Y-80341500D01*
X104410518Y-80341500D01*
X104279771Y-80367507D01*
X104235000Y-80376413D01*
X104234999Y-80376413D01*
X104234996Y-80376414D01*
X104069661Y-80444899D01*
X104040881Y-80464129D01*
X103973128Y-80485342D01*
X103904661Y-80466557D01*
X103857219Y-80413739D01*
X103845865Y-80343656D01*
X103854474Y-80311142D01*
X103873585Y-80265005D01*
X103873585Y-80265004D01*
X103873587Y-80265000D01*
X103908500Y-80089479D01*
X103908500Y-79910521D01*
X103873587Y-79735000D01*
X103805102Y-79569664D01*
X103705678Y-79420865D01*
X103579135Y-79294322D01*
X103430336Y-79194898D01*
X103313429Y-79146473D01*
X103265003Y-79126414D01*
X103265001Y-79126413D01*
X103265000Y-79126413D01*
X103176645Y-79108838D01*
X103089481Y-79091500D01*
X103089479Y-79091500D01*
X102910521Y-79091500D01*
X102910518Y-79091500D01*
X102779771Y-79117507D01*
X102735000Y-79126413D01*
X102734999Y-79126413D01*
X102734996Y-79126414D01*
X102569662Y-79194899D01*
X102420869Y-79294319D01*
X102420867Y-79294320D01*
X102339095Y-79376092D01*
X102276783Y-79410117D01*
X102205967Y-79405051D01*
X102160905Y-79376092D01*
X102143324Y-79358511D01*
X102079135Y-79294322D01*
X101930336Y-79194898D01*
X101813429Y-79146473D01*
X101765003Y-79126414D01*
X101765001Y-79126413D01*
X101765000Y-79126413D01*
X101676645Y-79108838D01*
X101589481Y-79091500D01*
X101589479Y-79091500D01*
X101410521Y-79091500D01*
X101410518Y-79091500D01*
X101279771Y-79117507D01*
X101235000Y-79126413D01*
X101234999Y-79126413D01*
X101234996Y-79126414D01*
X101069662Y-79194899D01*
X100920869Y-79294319D01*
X100920862Y-79294324D01*
X100794324Y-79420862D01*
X100794319Y-79420869D01*
X100750001Y-79487197D01*
X100694898Y-79569664D01*
X100689555Y-79582564D01*
X100626414Y-79734996D01*
X100591500Y-79910518D01*
X89733042Y-79910518D01*
X89609284Y-79827826D01*
X89528828Y-79794500D01*
X89471249Y-79770650D01*
X89471246Y-79770649D01*
X89324709Y-79741500D01*
X89324706Y-79741500D01*
X89175294Y-79741500D01*
X89175290Y-79741500D01*
X89028753Y-79770649D01*
X89028750Y-79770650D01*
X88890715Y-79827826D01*
X88766488Y-79910832D01*
X88766481Y-79910837D01*
X88660837Y-80016481D01*
X88660832Y-80016488D01*
X88577826Y-80140715D01*
X88520650Y-80278750D01*
X88520649Y-80278753D01*
X88491500Y-80425290D01*
X88491500Y-80574711D01*
X88496795Y-80601329D01*
X88490467Y-80672043D01*
X88462313Y-80715004D01*
X88410837Y-80766480D01*
X88410836Y-80766482D01*
X88410835Y-80766484D01*
X88374643Y-80820649D01*
X88327826Y-80890716D01*
X88270650Y-81028750D01*
X88270649Y-81028753D01*
X88241500Y-81175290D01*
X84062353Y-81175290D01*
X84052174Y-81150716D01*
X83969165Y-81026484D01*
X83887376Y-80944695D01*
X83853350Y-80882383D01*
X83858415Y-80811568D01*
X83887376Y-80766505D01*
X83930509Y-80723371D01*
X83930515Y-80723365D01*
X84006281Y-80592135D01*
X84045500Y-80445766D01*
X84045500Y-80294234D01*
X84006281Y-80147865D01*
X83930515Y-80016635D01*
X83930513Y-80016633D01*
X83930509Y-80016628D01*
X83823371Y-79909490D01*
X83823367Y-79909487D01*
X83823365Y-79909485D01*
X83778999Y-79883870D01*
X83730006Y-79832486D01*
X83716000Y-79774751D01*
X83716000Y-79240000D01*
X84224000Y-79240000D01*
X84224000Y-79948000D01*
X84619278Y-79948000D01*
X84619281Y-79947999D01*
X84814023Y-79909262D01*
X84814028Y-79909260D01*
X84997466Y-79833277D01*
X85162557Y-79722967D01*
X85162564Y-79722962D01*
X85302962Y-79582564D01*
X85302967Y-79582557D01*
X85413277Y-79417466D01*
X85489260Y-79234028D01*
X85489262Y-79234023D01*
X85497224Y-79194000D01*
X84680060Y-79194000D01*
X84704205Y-79180060D01*
X84760060Y-79124205D01*
X84799556Y-79055796D01*
X84820000Y-78979496D01*
X84820000Y-78900504D01*
X84799556Y-78824204D01*
X84760060Y-78755795D01*
X84704205Y-78699940D01*
X84680060Y-78686000D01*
X85497224Y-78686000D01*
X85497223Y-78685999D01*
X85489262Y-78645976D01*
X85489260Y-78645971D01*
X85413277Y-78462533D01*
X85302967Y-78297442D01*
X85302962Y-78297435D01*
X85162564Y-78157037D01*
X85162557Y-78157032D01*
X84997466Y-78046722D01*
X84814028Y-77970739D01*
X84814023Y-77970737D01*
X84619281Y-77932000D01*
X84224000Y-77932000D01*
X84224000Y-78640000D01*
X83716000Y-78640000D01*
X83716000Y-77932000D01*
X83320718Y-77932000D01*
X83125976Y-77970737D01*
X83125971Y-77970739D01*
X82942533Y-78046722D01*
X82777442Y-78157032D01*
X82777435Y-78157037D01*
X82637037Y-78297435D01*
X82637032Y-78297442D01*
X82526722Y-78462533D01*
X82450739Y-78645971D01*
X82450737Y-78645976D01*
X82442776Y-78685999D01*
X81167223Y-78685999D01*
X81159262Y-78645976D01*
X81159260Y-78645971D01*
X81083277Y-78462533D01*
X80972967Y-78297442D01*
X80972962Y-78297435D01*
X80832564Y-78157037D01*
X80832557Y-78157032D01*
X80667466Y-78046722D01*
X80484028Y-77970739D01*
X80484023Y-77970737D01*
X80289281Y-77932000D01*
X80044000Y-77932000D01*
X80044000Y-78640000D01*
X79536000Y-78640000D01*
X79536000Y-77932000D01*
X79290718Y-77932000D01*
X79095976Y-77970737D01*
X79095971Y-77970739D01*
X78912533Y-78046722D01*
X78747442Y-78157032D01*
X78747435Y-78157037D01*
X78607037Y-78297435D01*
X78607032Y-78297442D01*
X78496722Y-78462533D01*
X78420739Y-78645971D01*
X78420737Y-78645976D01*
X78412776Y-78685999D01*
X77339500Y-78685999D01*
X77339500Y-77755290D01*
X88411500Y-77755290D01*
X88411500Y-77904709D01*
X88424635Y-77970739D01*
X88440649Y-78051246D01*
X88497826Y-78189284D01*
X88580835Y-78313516D01*
X88686484Y-78419165D01*
X88810716Y-78502174D01*
X88948754Y-78559351D01*
X89095294Y-78588500D01*
X89244706Y-78588500D01*
X89391246Y-78559351D01*
X89529284Y-78502174D01*
X89653516Y-78419165D01*
X89759165Y-78313516D01*
X89842174Y-78189284D01*
X89899351Y-78051246D01*
X89928500Y-77904706D01*
X89928500Y-77755294D01*
X89899351Y-77608754D01*
X89885490Y-77575290D01*
X119991500Y-77575290D01*
X119991500Y-77724709D01*
X120020649Y-77871246D01*
X120020650Y-77871249D01*
X120034510Y-77904709D01*
X120077826Y-78009284D01*
X120160835Y-78133516D01*
X120160837Y-78133518D01*
X120251288Y-78223969D01*
X120285314Y-78286281D01*
X120280249Y-78357096D01*
X120263663Y-78385929D01*
X120264274Y-78386338D01*
X120260838Y-78391481D01*
X120260835Y-78391484D01*
X120177827Y-78515715D01*
X120177826Y-78515716D01*
X120120650Y-78653750D01*
X120120649Y-78653753D01*
X120091500Y-78800290D01*
X120091500Y-78949709D01*
X120120649Y-79096246D01*
X120120650Y-79096249D01*
X120133145Y-79126414D01*
X120177826Y-79234284D01*
X120260835Y-79358516D01*
X120366484Y-79464165D01*
X120490716Y-79547174D01*
X120628754Y-79604351D01*
X120775294Y-79633500D01*
X120924706Y-79633500D01*
X121071246Y-79604351D01*
X121209284Y-79547174D01*
X121333516Y-79464165D01*
X121439165Y-79358516D01*
X121522174Y-79234284D01*
X121579351Y-79096246D01*
X121608500Y-78949706D01*
X121608500Y-78800294D01*
X121579351Y-78653754D01*
X121522174Y-78515716D01*
X121439165Y-78391484D01*
X121348711Y-78301030D01*
X121314685Y-78238718D01*
X121319750Y-78167903D01*
X121336342Y-78139074D01*
X121335726Y-78138663D01*
X121344185Y-78126002D01*
X121422174Y-78009284D01*
X121479351Y-77871246D01*
X121508500Y-77724706D01*
X121508500Y-77575294D01*
X121479351Y-77428754D01*
X121422174Y-77290716D01*
X121339165Y-77166484D01*
X121233516Y-77060835D01*
X121109284Y-76977826D01*
X120992093Y-76929284D01*
X120971249Y-76920650D01*
X120971246Y-76920649D01*
X120824709Y-76891500D01*
X120824706Y-76891500D01*
X120675294Y-76891500D01*
X120675290Y-76891500D01*
X120528753Y-76920649D01*
X120528750Y-76920650D01*
X120390715Y-76977826D01*
X120266488Y-77060832D01*
X120266481Y-77060837D01*
X120160837Y-77166481D01*
X120160832Y-77166488D01*
X120077826Y-77290715D01*
X120020650Y-77428750D01*
X120020649Y-77428753D01*
X119991500Y-77575290D01*
X89885490Y-77575290D01*
X89842174Y-77470716D01*
X89759165Y-77346484D01*
X89653516Y-77240835D01*
X89529284Y-77157826D01*
X89391249Y-77100650D01*
X89391246Y-77100649D01*
X89244709Y-77071500D01*
X89244706Y-77071500D01*
X89095294Y-77071500D01*
X89095290Y-77071500D01*
X88948753Y-77100649D01*
X88948750Y-77100650D01*
X88810715Y-77157826D01*
X88686488Y-77240832D01*
X88686481Y-77240837D01*
X88580837Y-77346481D01*
X88580832Y-77346488D01*
X88497826Y-77470715D01*
X88440650Y-77608750D01*
X88440649Y-77608753D01*
X88411500Y-77755290D01*
X77339500Y-77755290D01*
X77339500Y-75825290D01*
X81631500Y-75825290D01*
X81631500Y-75974709D01*
X81660649Y-76121246D01*
X81660650Y-76121249D01*
X81666692Y-76135835D01*
X81717826Y-76259284D01*
X81800835Y-76383516D01*
X81906484Y-76489165D01*
X82030716Y-76572174D01*
X82168754Y-76629351D01*
X82315294Y-76658500D01*
X82464706Y-76658500D01*
X82611246Y-76629351D01*
X82734741Y-76578197D01*
X82805328Y-76570609D01*
X82868815Y-76602388D01*
X82905043Y-76663446D01*
X82906536Y-76670025D01*
X82930649Y-76791246D01*
X82987826Y-76929284D01*
X83070835Y-77053516D01*
X83176484Y-77159165D01*
X83300716Y-77242174D01*
X83438754Y-77299351D01*
X83585294Y-77328500D01*
X83734706Y-77328500D01*
X83881246Y-77299351D01*
X84019284Y-77242174D01*
X84143516Y-77159165D01*
X84249165Y-77053516D01*
X84302727Y-76973353D01*
X84357203Y-76927827D01*
X84419846Y-76917963D01*
X84425291Y-76918499D01*
X84425294Y-76918500D01*
X84425297Y-76918500D01*
X84574706Y-76918500D01*
X84721246Y-76889351D01*
X84859284Y-76832174D01*
X84983516Y-76749165D01*
X85082391Y-76650290D01*
X112991500Y-76650290D01*
X112991500Y-76799709D01*
X113020649Y-76946246D01*
X113020650Y-76946249D01*
X113065082Y-77053518D01*
X113077826Y-77084284D01*
X113160835Y-77208516D01*
X113266484Y-77314165D01*
X113390716Y-77397174D01*
X113528754Y-77454351D01*
X113675294Y-77483500D01*
X113824706Y-77483500D01*
X113971246Y-77454351D01*
X113971252Y-77454348D01*
X113971254Y-77454348D01*
X113975243Y-77452696D01*
X113975244Y-77452695D01*
X113977832Y-77451622D01*
X114109284Y-77397174D01*
X114233516Y-77314165D01*
X114339165Y-77208516D01*
X114422174Y-77084284D01*
X114479351Y-76946246D01*
X114508500Y-76799706D01*
X114508500Y-76650294D01*
X114479351Y-76503754D01*
X114422174Y-76365716D01*
X114339165Y-76241484D01*
X114233516Y-76135835D01*
X114109284Y-76052826D01*
X114023490Y-76017289D01*
X113971249Y-75995650D01*
X113971246Y-75995649D01*
X113824709Y-75966500D01*
X113824706Y-75966500D01*
X113675294Y-75966500D01*
X113675290Y-75966500D01*
X113528753Y-75995649D01*
X113528750Y-75995650D01*
X113390715Y-76052826D01*
X113266488Y-76135832D01*
X113266481Y-76135837D01*
X113160837Y-76241481D01*
X113160832Y-76241488D01*
X113077826Y-76365715D01*
X113020650Y-76503750D01*
X113020649Y-76503753D01*
X112991500Y-76650290D01*
X85082391Y-76650290D01*
X85089165Y-76643516D01*
X85172174Y-76519284D01*
X85229351Y-76381246D01*
X85258500Y-76234706D01*
X85258500Y-76085294D01*
X85229351Y-75938754D01*
X85172174Y-75800716D01*
X85089165Y-75676484D01*
X84983516Y-75570835D01*
X84859284Y-75487826D01*
X84821494Y-75472173D01*
X84721249Y-75430650D01*
X84721246Y-75430649D01*
X84574709Y-75401500D01*
X84574706Y-75401500D01*
X84425294Y-75401500D01*
X84425290Y-75401500D01*
X84278753Y-75430649D01*
X84278750Y-75430650D01*
X84140715Y-75487826D01*
X84016488Y-75570832D01*
X84016481Y-75570837D01*
X83910837Y-75676481D01*
X83910835Y-75676484D01*
X83857272Y-75756646D01*
X83802794Y-75802173D01*
X83740163Y-75812037D01*
X83734708Y-75811500D01*
X83734706Y-75811500D01*
X83585294Y-75811500D01*
X83585290Y-75811500D01*
X83438753Y-75840649D01*
X83438750Y-75840650D01*
X83315260Y-75891801D01*
X83244670Y-75899390D01*
X83181183Y-75867610D01*
X83144956Y-75806552D01*
X83143463Y-75799974D01*
X83119351Y-75678754D01*
X83062174Y-75540716D01*
X82979165Y-75416484D01*
X82873516Y-75310835D01*
X82749284Y-75227826D01*
X82695807Y-75205675D01*
X82611249Y-75170650D01*
X82611246Y-75170649D01*
X82464709Y-75141500D01*
X82464706Y-75141500D01*
X82315294Y-75141500D01*
X82315290Y-75141500D01*
X82168753Y-75170649D01*
X82168750Y-75170650D01*
X82030715Y-75227826D01*
X81906488Y-75310832D01*
X81906481Y-75310837D01*
X81800837Y-75416481D01*
X81800832Y-75416488D01*
X81717826Y-75540715D01*
X81660650Y-75678750D01*
X81660649Y-75678753D01*
X81631500Y-75825290D01*
X77339500Y-75825290D01*
X77339500Y-74725290D01*
X88791500Y-74725290D01*
X88791500Y-74874709D01*
X88820649Y-75021246D01*
X88877826Y-75159284D01*
X88960835Y-75283516D01*
X89066484Y-75389165D01*
X89190716Y-75472174D01*
X89328754Y-75529351D01*
X89475294Y-75558500D01*
X89624706Y-75558500D01*
X89771246Y-75529351D01*
X89909284Y-75472174D01*
X90033516Y-75389165D01*
X90139165Y-75283516D01*
X90222174Y-75159284D01*
X90279351Y-75021246D01*
X90308500Y-74874706D01*
X90308500Y-74725294D01*
X90279351Y-74578754D01*
X90222174Y-74440716D01*
X90139165Y-74316484D01*
X90088270Y-74265589D01*
X90054244Y-74203277D01*
X90059309Y-74132462D01*
X90101856Y-74075626D01*
X90152783Y-74052915D01*
X90241389Y-74035290D01*
X91811500Y-74035290D01*
X91811500Y-74184709D01*
X91819220Y-74223518D01*
X91840649Y-74331246D01*
X91897826Y-74469284D01*
X91980835Y-74593516D01*
X92086484Y-74699165D01*
X92210716Y-74782174D01*
X92348754Y-74839351D01*
X92495294Y-74868500D01*
X92644706Y-74868500D01*
X92791246Y-74839351D01*
X92929284Y-74782174D01*
X93053516Y-74699165D01*
X93159165Y-74593516D01*
X93242174Y-74469284D01*
X93299351Y-74331246D01*
X93328500Y-74184706D01*
X93328500Y-74035294D01*
X93299351Y-73888754D01*
X93242174Y-73750716D01*
X93185094Y-73665290D01*
X102061500Y-73665290D01*
X102061500Y-73814709D01*
X102090649Y-73961246D01*
X102090650Y-73961249D01*
X102123891Y-74041500D01*
X102147826Y-74099284D01*
X102230835Y-74223516D01*
X102336484Y-74329165D01*
X102460716Y-74412174D01*
X102598754Y-74469351D01*
X102745294Y-74498500D01*
X102894706Y-74498500D01*
X103041246Y-74469351D01*
X103179284Y-74412174D01*
X103181762Y-74410518D01*
X110591500Y-74410518D01*
X110591500Y-74589481D01*
X110601420Y-74639349D01*
X110626413Y-74765000D01*
X110694898Y-74930336D01*
X110794322Y-75079135D01*
X110920865Y-75205678D01*
X111069664Y-75305102D01*
X111235000Y-75373587D01*
X111410521Y-75408500D01*
X111410522Y-75408500D01*
X111589478Y-75408500D01*
X111589479Y-75408500D01*
X111765000Y-75373587D01*
X111930336Y-75305102D01*
X112079135Y-75205678D01*
X112205678Y-75079135D01*
X112305102Y-74930336D01*
X112373587Y-74765000D01*
X112408500Y-74589479D01*
X112408500Y-74410521D01*
X112373587Y-74235000D01*
X112305102Y-74069664D01*
X112205678Y-73920865D01*
X112079135Y-73794322D01*
X111930336Y-73694898D01*
X111813429Y-73646473D01*
X111765003Y-73626414D01*
X111765001Y-73626413D01*
X111765000Y-73626413D01*
X111676645Y-73608838D01*
X111589481Y-73591500D01*
X111589479Y-73591500D01*
X111410521Y-73591500D01*
X111410518Y-73591500D01*
X111279771Y-73617507D01*
X111235000Y-73626413D01*
X111234999Y-73626413D01*
X111234996Y-73626414D01*
X111103902Y-73680716D01*
X111084507Y-73688750D01*
X111069662Y-73694899D01*
X110920869Y-73794319D01*
X110920862Y-73794324D01*
X110794324Y-73920862D01*
X110794319Y-73920869D01*
X110702358Y-74058500D01*
X110694898Y-74069664D01*
X110682629Y-74099284D01*
X110626414Y-74234996D01*
X110591500Y-74410518D01*
X103181762Y-74410518D01*
X103303516Y-74329165D01*
X103409165Y-74223516D01*
X103492174Y-74099284D01*
X103549351Y-73961246D01*
X103578500Y-73814706D01*
X103578500Y-73665294D01*
X103549351Y-73518754D01*
X103492174Y-73380716D01*
X103409165Y-73256484D01*
X103327971Y-73175290D01*
X108741500Y-73175290D01*
X108741500Y-73324709D01*
X108770649Y-73471246D01*
X108770650Y-73471249D01*
X108791361Y-73521249D01*
X108827826Y-73609284D01*
X108910835Y-73733516D01*
X109016484Y-73839165D01*
X109140716Y-73922174D01*
X109278754Y-73979351D01*
X109425294Y-74008500D01*
X109574706Y-74008500D01*
X109721246Y-73979351D01*
X109859284Y-73922174D01*
X109983516Y-73839165D01*
X110089165Y-73733516D01*
X110172174Y-73609284D01*
X110229351Y-73471246D01*
X110258500Y-73324706D01*
X110258500Y-73175294D01*
X110229351Y-73028754D01*
X110172174Y-72890716D01*
X110089165Y-72766484D01*
X109983516Y-72660835D01*
X109859284Y-72577826D01*
X109771585Y-72541500D01*
X109721249Y-72520650D01*
X109721246Y-72520649D01*
X109574709Y-72491500D01*
X109574706Y-72491500D01*
X109425294Y-72491500D01*
X109425290Y-72491500D01*
X109278753Y-72520649D01*
X109278750Y-72520650D01*
X109140715Y-72577826D01*
X109016488Y-72660832D01*
X109016481Y-72660837D01*
X108910837Y-72766481D01*
X108910832Y-72766488D01*
X108827826Y-72890715D01*
X108770650Y-73028750D01*
X108770649Y-73028753D01*
X108741500Y-73175290D01*
X103327971Y-73175290D01*
X103303516Y-73150835D01*
X103179284Y-73067826D01*
X103041249Y-73010650D01*
X103041246Y-73010649D01*
X102894709Y-72981500D01*
X102894706Y-72981500D01*
X102745294Y-72981500D01*
X102745290Y-72981500D01*
X102598753Y-73010649D01*
X102598750Y-73010650D01*
X102460715Y-73067826D01*
X102336488Y-73150832D01*
X102336481Y-73150837D01*
X102230837Y-73256481D01*
X102230832Y-73256488D01*
X102147826Y-73380715D01*
X102090650Y-73518750D01*
X102090649Y-73518753D01*
X102061500Y-73665290D01*
X93185094Y-73665290D01*
X93159165Y-73626484D01*
X93053516Y-73520835D01*
X92929284Y-73437826D01*
X92791408Y-73380716D01*
X92791249Y-73380650D01*
X92791246Y-73380649D01*
X92644709Y-73351500D01*
X92644706Y-73351500D01*
X92495294Y-73351500D01*
X92495290Y-73351500D01*
X92348753Y-73380649D01*
X92348750Y-73380650D01*
X92210715Y-73437826D01*
X92086488Y-73520832D01*
X92086481Y-73520837D01*
X91980837Y-73626481D01*
X91980832Y-73626488D01*
X91897826Y-73750715D01*
X91840650Y-73888750D01*
X91840649Y-73888753D01*
X91811500Y-74035290D01*
X90241389Y-74035290D01*
X90271246Y-74029351D01*
X90409284Y-73972174D01*
X90533516Y-73889165D01*
X90639165Y-73783516D01*
X90722174Y-73659284D01*
X90779351Y-73521246D01*
X90808500Y-73374706D01*
X90808500Y-73225294D01*
X90779351Y-73078754D01*
X90722174Y-72940716D01*
X90639165Y-72816484D01*
X90533516Y-72710835D01*
X90409284Y-72627826D01*
X90288573Y-72577826D01*
X90271249Y-72570650D01*
X90271246Y-72570649D01*
X90124709Y-72541500D01*
X90124706Y-72541500D01*
X89975294Y-72541500D01*
X89975290Y-72541500D01*
X89828753Y-72570649D01*
X89828750Y-72570650D01*
X89690715Y-72627826D01*
X89566488Y-72710832D01*
X89566481Y-72710837D01*
X89460837Y-72816481D01*
X89460832Y-72816488D01*
X89377826Y-72940715D01*
X89320650Y-73078750D01*
X89320649Y-73078753D01*
X89291500Y-73225290D01*
X89291500Y-73374709D01*
X89320649Y-73521246D01*
X89320650Y-73521249D01*
X89377826Y-73659284D01*
X89460835Y-73783516D01*
X89460837Y-73783518D01*
X89511729Y-73834410D01*
X89545755Y-73896722D01*
X89540690Y-73967537D01*
X89498143Y-74024373D01*
X89447217Y-74047084D01*
X89328751Y-74070649D01*
X89328750Y-74070650D01*
X89190715Y-74127826D01*
X89066488Y-74210832D01*
X89066481Y-74210837D01*
X88960837Y-74316481D01*
X88960832Y-74316488D01*
X88877826Y-74440715D01*
X88820650Y-74578750D01*
X88820649Y-74578753D01*
X88791500Y-74725290D01*
X77339500Y-74725290D01*
X77339500Y-73835290D01*
X81371500Y-73835290D01*
X81371500Y-73984709D01*
X81400649Y-74131246D01*
X81400650Y-74131249D01*
X81438866Y-74223511D01*
X81457826Y-74269284D01*
X81540835Y-74393516D01*
X81646484Y-74499165D01*
X81770716Y-74582174D01*
X81908754Y-74639351D01*
X82055294Y-74668500D01*
X82204706Y-74668500D01*
X82351246Y-74639351D01*
X82489284Y-74582174D01*
X82613516Y-74499165D01*
X82719165Y-74393516D01*
X82802174Y-74269284D01*
X82859351Y-74131246D01*
X82888500Y-73984706D01*
X82888500Y-73835294D01*
X82859351Y-73688754D01*
X82802174Y-73550716D01*
X82719165Y-73426484D01*
X82613516Y-73320835D01*
X82489284Y-73237826D01*
X82459019Y-73225290D01*
X82351249Y-73180650D01*
X82351246Y-73180649D01*
X82204709Y-73151500D01*
X82204706Y-73151500D01*
X82055294Y-73151500D01*
X82055290Y-73151500D01*
X81908753Y-73180649D01*
X81908750Y-73180650D01*
X81770715Y-73237826D01*
X81646488Y-73320832D01*
X81646481Y-73320837D01*
X81540837Y-73426481D01*
X81540832Y-73426488D01*
X81457826Y-73550715D01*
X81400650Y-73688750D01*
X81400649Y-73688753D01*
X81371500Y-73835290D01*
X77339500Y-73835290D01*
X77339500Y-70850668D01*
X79671500Y-70850668D01*
X79671500Y-71049331D01*
X79686800Y-71126248D01*
X79710256Y-71244169D01*
X79786279Y-71427704D01*
X79896647Y-71592881D01*
X80037119Y-71733353D01*
X80202296Y-71843721D01*
X80385831Y-71919744D01*
X80580671Y-71958500D01*
X80580672Y-71958500D01*
X80779328Y-71958500D01*
X80779329Y-71958500D01*
X80974169Y-71919744D01*
X81157704Y-71843721D01*
X81322881Y-71733353D01*
X81463353Y-71592881D01*
X81573721Y-71427704D01*
X81649744Y-71244169D01*
X81688500Y-71049329D01*
X81688500Y-70850671D01*
X81649744Y-70655831D01*
X81573721Y-70472296D01*
X81463353Y-70307119D01*
X81322881Y-70166647D01*
X81157704Y-70056279D01*
X80974169Y-69980256D01*
X80918220Y-69969127D01*
X80779331Y-69941500D01*
X80779329Y-69941500D01*
X80580671Y-69941500D01*
X80580668Y-69941500D01*
X80385830Y-69980256D01*
X80385825Y-69980258D01*
X80202296Y-70056279D01*
X80037123Y-70166644D01*
X80037116Y-70166649D01*
X79896649Y-70307116D01*
X79896644Y-70307123D01*
X79786279Y-70472296D01*
X79710258Y-70655825D01*
X79710256Y-70655830D01*
X79671500Y-70850668D01*
X77339500Y-70850668D01*
X77339500Y-66516532D01*
X81279500Y-66516532D01*
X81279500Y-66723467D01*
X81298635Y-66819664D01*
X81319870Y-66926420D01*
X81399059Y-67117598D01*
X81427740Y-67160522D01*
X81514024Y-67289656D01*
X81514029Y-67289662D01*
X81660337Y-67435970D01*
X81660343Y-67435975D01*
X81660345Y-67435977D01*
X81832402Y-67550941D01*
X82023580Y-67630130D01*
X82226535Y-67670500D01*
X82226536Y-67670500D01*
X82433464Y-67670500D01*
X82433465Y-67670500D01*
X82636420Y-67630130D01*
X82827598Y-67550941D01*
X82999655Y-67435977D01*
X83145977Y-67289655D01*
X83260941Y-67117598D01*
X83340130Y-66926420D01*
X83380500Y-66723465D01*
X83380500Y-66529454D01*
X85679500Y-66529454D01*
X85679500Y-66710546D01*
X85707829Y-66889409D01*
X85707830Y-66889412D01*
X85719488Y-66925294D01*
X85763789Y-67061639D01*
X85846004Y-67222994D01*
X85952447Y-67369501D01*
X85952449Y-67369503D01*
X85952451Y-67369506D01*
X86080493Y-67497548D01*
X86080496Y-67497550D01*
X86080499Y-67497553D01*
X86227006Y-67603996D01*
X86388361Y-67686211D01*
X86560591Y-67742171D01*
X86739454Y-67770500D01*
X86739457Y-67770500D01*
X86920543Y-67770500D01*
X86920546Y-67770500D01*
X87099409Y-67742171D01*
X87271639Y-67686211D01*
X87432994Y-67603996D01*
X87579501Y-67497553D01*
X87707553Y-67369501D01*
X87813996Y-67222994D01*
X87896211Y-67061639D01*
X87952171Y-66889409D01*
X87980500Y-66710546D01*
X87980500Y-66529454D01*
X87952171Y-66350591D01*
X87896211Y-66178361D01*
X87813996Y-66017006D01*
X87807816Y-66008500D01*
X87785941Y-65978391D01*
X87785940Y-65978390D01*
X87765558Y-65950337D01*
X87736628Y-65910518D01*
X91341500Y-65910518D01*
X91341500Y-66089481D01*
X91376414Y-66265003D01*
X91444898Y-66430336D01*
X91534876Y-66564999D01*
X91556090Y-66632752D01*
X91537306Y-66701219D01*
X91534876Y-66705001D01*
X91444898Y-66839663D01*
X91376414Y-67004996D01*
X91341500Y-67180518D01*
X91341500Y-67180521D01*
X91341500Y-67359479D01*
X91372435Y-67515003D01*
X91376414Y-67535003D01*
X91444898Y-67700336D01*
X91521513Y-67814999D01*
X91542727Y-67882752D01*
X91523944Y-67951218D01*
X91521513Y-67955001D01*
X91444898Y-68069663D01*
X91376414Y-68234996D01*
X91341500Y-68410518D01*
X91341500Y-68410521D01*
X91341500Y-68589479D01*
X91376413Y-68765000D01*
X91444898Y-68930336D01*
X91444899Y-68930337D01*
X91528194Y-69054998D01*
X91549409Y-69122751D01*
X91530626Y-69191218D01*
X91528194Y-69195002D01*
X91444899Y-69319662D01*
X91376414Y-69484996D01*
X91341500Y-69660518D01*
X91341500Y-69660521D01*
X91341500Y-69839479D01*
X91376413Y-70015000D01*
X91444898Y-70180336D01*
X91444899Y-70180337D01*
X91528194Y-70304998D01*
X91549409Y-70372751D01*
X91530626Y-70441218D01*
X91528194Y-70445002D01*
X91444899Y-70569662D01*
X91376414Y-70734996D01*
X91341500Y-70910518D01*
X91341500Y-70910521D01*
X91341500Y-71089479D01*
X91376413Y-71265000D01*
X91444898Y-71430336D01*
X91544322Y-71579135D01*
X91670865Y-71705678D01*
X91819664Y-71805102D01*
X91985000Y-71873587D01*
X92160521Y-71908500D01*
X92160522Y-71908500D01*
X92339478Y-71908500D01*
X92339479Y-71908500D01*
X92515000Y-71873587D01*
X92680336Y-71805102D01*
X92805000Y-71721804D01*
X92872751Y-71700590D01*
X92941218Y-71719373D01*
X92944971Y-71721785D01*
X93069664Y-71805102D01*
X93235000Y-71873587D01*
X93410521Y-71908500D01*
X93410522Y-71908500D01*
X93589478Y-71908500D01*
X93589479Y-71908500D01*
X93765000Y-71873587D01*
X93930336Y-71805102D01*
X94055000Y-71721804D01*
X94122751Y-71700590D01*
X94191218Y-71719373D01*
X94194971Y-71721785D01*
X94319664Y-71805102D01*
X94485000Y-71873587D01*
X94660521Y-71908500D01*
X94660522Y-71908500D01*
X94839478Y-71908500D01*
X94839479Y-71908500D01*
X95015000Y-71873587D01*
X95180336Y-71805102D01*
X95305000Y-71721804D01*
X95372751Y-71700590D01*
X95441218Y-71719373D01*
X95444971Y-71721785D01*
X95569664Y-71805102D01*
X95735000Y-71873587D01*
X95910521Y-71908500D01*
X95910522Y-71908500D01*
X96089478Y-71908500D01*
X96089479Y-71908500D01*
X96265000Y-71873587D01*
X96430336Y-71805102D01*
X96579135Y-71705678D01*
X96705678Y-71579135D01*
X96805102Y-71430336D01*
X96873467Y-71265290D01*
X110761500Y-71265290D01*
X110761500Y-71414709D01*
X110790649Y-71561246D01*
X110790650Y-71561249D01*
X110820930Y-71634351D01*
X110847826Y-71699284D01*
X110930835Y-71823516D01*
X111036484Y-71929165D01*
X111160716Y-72012174D01*
X111298754Y-72069351D01*
X111445294Y-72098500D01*
X111594706Y-72098500D01*
X111741246Y-72069351D01*
X111879284Y-72012174D01*
X112003516Y-71929165D01*
X112109165Y-71823516D01*
X112192174Y-71699284D01*
X112249351Y-71561246D01*
X112278500Y-71414706D01*
X112278500Y-71265294D01*
X112249351Y-71118754D01*
X112192174Y-70980716D01*
X112109165Y-70856484D01*
X112003516Y-70750835D01*
X111879284Y-70667826D01*
X111741249Y-70610650D01*
X111741246Y-70610649D01*
X111594709Y-70581500D01*
X111594706Y-70581500D01*
X111445294Y-70581500D01*
X111445290Y-70581500D01*
X111298753Y-70610649D01*
X111298750Y-70610650D01*
X111160715Y-70667826D01*
X111036488Y-70750832D01*
X111036481Y-70750837D01*
X110930837Y-70856481D01*
X110930832Y-70856488D01*
X110847826Y-70980715D01*
X110790650Y-71118750D01*
X110790649Y-71118753D01*
X110761500Y-71265290D01*
X96873467Y-71265290D01*
X96873587Y-71265000D01*
X96908500Y-71089479D01*
X96908500Y-70910521D01*
X96873587Y-70735000D01*
X96805102Y-70569664D01*
X96705678Y-70420865D01*
X96579135Y-70294322D01*
X96430336Y-70194898D01*
X96313429Y-70146473D01*
X96265003Y-70126414D01*
X96265001Y-70126413D01*
X96265000Y-70126413D01*
X96176645Y-70108838D01*
X96108535Y-70095290D01*
X120718317Y-70095290D01*
X120718317Y-70244709D01*
X120747466Y-70391246D01*
X120747467Y-70391249D01*
X120768165Y-70441218D01*
X120804643Y-70529284D01*
X120887652Y-70653516D01*
X120993301Y-70759165D01*
X121117533Y-70842174D01*
X121255571Y-70899351D01*
X121255582Y-70899353D01*
X121259114Y-70900425D01*
X121260747Y-70901495D01*
X121261290Y-70901720D01*
X121261247Y-70901822D01*
X121318497Y-70939337D01*
X121346124Y-70996419D01*
X121371949Y-71126246D01*
X121429126Y-71264284D01*
X121512135Y-71388516D01*
X121617784Y-71494165D01*
X121742016Y-71577174D01*
X121880054Y-71634351D01*
X122026594Y-71663500D01*
X122176006Y-71663500D01*
X122322546Y-71634351D01*
X122460584Y-71577174D01*
X122584816Y-71494165D01*
X122690465Y-71388516D01*
X122773474Y-71264284D01*
X122830651Y-71126246D01*
X122859800Y-70979706D01*
X122859800Y-70830294D01*
X122830651Y-70683754D01*
X122773474Y-70545716D01*
X122690465Y-70421484D01*
X122584816Y-70315835D01*
X122460584Y-70232826D01*
X122411778Y-70212610D01*
X122322543Y-70175647D01*
X122318998Y-70174572D01*
X122317367Y-70173503D01*
X122316828Y-70173280D01*
X122316870Y-70173177D01*
X122259616Y-70135658D01*
X122231992Y-70078579D01*
X122227556Y-70056279D01*
X122206168Y-69948754D01*
X122148991Y-69810716D01*
X122065982Y-69686484D01*
X121960333Y-69580835D01*
X121836101Y-69497826D01*
X121745162Y-69460158D01*
X121698066Y-69440650D01*
X121698063Y-69440649D01*
X121551526Y-69411500D01*
X121551523Y-69411500D01*
X121402111Y-69411500D01*
X121402107Y-69411500D01*
X121255570Y-69440649D01*
X121255567Y-69440650D01*
X121117532Y-69497826D01*
X120993305Y-69580832D01*
X120993298Y-69580837D01*
X120887654Y-69686481D01*
X120887649Y-69686488D01*
X120804643Y-69810715D01*
X120747467Y-69948750D01*
X120747466Y-69948753D01*
X120718317Y-70095290D01*
X96108535Y-70095290D01*
X96089481Y-70091500D01*
X96089479Y-70091500D01*
X95910521Y-70091500D01*
X95910515Y-70091500D01*
X95780871Y-70117288D01*
X95710157Y-70110960D01*
X95654090Y-70067405D01*
X95630471Y-70000453D01*
X95632710Y-69969131D01*
X95658500Y-69839479D01*
X95658500Y-69660521D01*
X95632711Y-69530870D01*
X95639039Y-69460158D01*
X95682593Y-69404090D01*
X95749546Y-69380471D01*
X95780868Y-69382710D01*
X95910521Y-69408500D01*
X95910522Y-69408500D01*
X96089478Y-69408500D01*
X96089479Y-69408500D01*
X96265000Y-69373587D01*
X96430336Y-69305102D01*
X96579135Y-69205678D01*
X96705678Y-69079135D01*
X96805102Y-68930336D01*
X96873587Y-68765000D01*
X96908500Y-68589479D01*
X96908500Y-68410521D01*
X96873587Y-68235000D01*
X96805102Y-68069664D01*
X96721804Y-67944999D01*
X96700590Y-67877249D01*
X96719373Y-67808782D01*
X96721785Y-67805028D01*
X96805102Y-67680336D01*
X96873587Y-67515000D01*
X96908500Y-67339479D01*
X96908500Y-67160521D01*
X96873587Y-66985000D01*
X96873585Y-66984994D01*
X96866265Y-66967322D01*
X96848853Y-66925290D01*
X108741500Y-66925290D01*
X108741500Y-67074709D01*
X108770649Y-67221246D01*
X108770650Y-67221249D01*
X108819623Y-67339481D01*
X108827826Y-67359284D01*
X108910835Y-67483516D01*
X109016484Y-67589165D01*
X109061851Y-67619478D01*
X109100398Y-67645235D01*
X109145926Y-67699712D01*
X109154774Y-67770155D01*
X109124132Y-67834199D01*
X109100398Y-67854765D01*
X109016488Y-67910832D01*
X109016481Y-67910837D01*
X108910837Y-68016481D01*
X108910832Y-68016488D01*
X108827826Y-68140715D01*
X108770650Y-68278750D01*
X108770649Y-68278753D01*
X108741500Y-68425290D01*
X108741500Y-68574709D01*
X108770649Y-68721246D01*
X108827826Y-68859284D01*
X108910835Y-68983516D01*
X109016484Y-69089165D01*
X109140716Y-69172174D01*
X109278754Y-69229351D01*
X109425294Y-69258500D01*
X109574706Y-69258500D01*
X109721246Y-69229351D01*
X109859284Y-69172174D01*
X109983516Y-69089165D01*
X110089165Y-68983516D01*
X110172174Y-68859284D01*
X110229351Y-68721246D01*
X110258500Y-68574706D01*
X110258500Y-68425294D01*
X110229351Y-68278754D01*
X110172174Y-68140716D01*
X110089165Y-68016484D01*
X109983516Y-67910835D01*
X109899600Y-67854764D01*
X109854073Y-67800289D01*
X109845225Y-67729845D01*
X109875866Y-67665801D01*
X109899601Y-67645235D01*
X109922207Y-67630130D01*
X109983516Y-67589165D01*
X110089165Y-67483516D01*
X110172174Y-67359284D01*
X110229351Y-67221246D01*
X110258500Y-67074706D01*
X110258500Y-66925294D01*
X110229351Y-66778754D01*
X110172174Y-66640716D01*
X110089165Y-66516484D01*
X109983516Y-66410835D01*
X109859284Y-66327826D01*
X109824877Y-66313574D01*
X109721249Y-66270650D01*
X109721246Y-66270649D01*
X109574709Y-66241500D01*
X109574706Y-66241500D01*
X109425294Y-66241500D01*
X109425290Y-66241500D01*
X109278753Y-66270649D01*
X109278750Y-66270650D01*
X109140715Y-66327826D01*
X109016488Y-66410832D01*
X109016481Y-66410837D01*
X108910837Y-66516481D01*
X108910832Y-66516488D01*
X108827826Y-66640715D01*
X108770650Y-66778750D01*
X108770649Y-66778753D01*
X108741500Y-66925290D01*
X96848853Y-66925290D01*
X96847211Y-66921325D01*
X96805102Y-66819664D01*
X96721804Y-66694999D01*
X96700590Y-66627249D01*
X96719373Y-66558782D01*
X96721785Y-66555028D01*
X96805102Y-66430336D01*
X96873587Y-66265000D01*
X96908500Y-66089479D01*
X96908500Y-65910521D01*
X96873587Y-65735000D01*
X96805102Y-65569664D01*
X96705678Y-65420865D01*
X96579135Y-65294322D01*
X96430336Y-65194898D01*
X96382999Y-65175290D01*
X119681500Y-65175290D01*
X119681500Y-65324709D01*
X119684579Y-65340187D01*
X119710649Y-65471246D01*
X119767826Y-65609284D01*
X119850835Y-65733516D01*
X119956484Y-65839165D01*
X120080716Y-65922174D01*
X120218754Y-65979351D01*
X120365294Y-66008500D01*
X120514706Y-66008500D01*
X120661246Y-65979351D01*
X120799284Y-65922174D01*
X120923516Y-65839165D01*
X121029165Y-65733516D01*
X121112174Y-65609284D01*
X121169351Y-65471246D01*
X121198500Y-65324706D01*
X121198500Y-65175294D01*
X121169351Y-65028754D01*
X121112174Y-64890716D01*
X121029165Y-64766484D01*
X120923516Y-64660835D01*
X120799284Y-64577826D01*
X120661249Y-64520650D01*
X120661246Y-64520649D01*
X120514709Y-64491500D01*
X120514706Y-64491500D01*
X120365294Y-64491500D01*
X120365290Y-64491500D01*
X120218753Y-64520649D01*
X120218750Y-64520650D01*
X120080715Y-64577826D01*
X119956488Y-64660832D01*
X119956481Y-64660837D01*
X119850837Y-64766481D01*
X119850832Y-64766488D01*
X119767826Y-64890715D01*
X119710650Y-65028750D01*
X119710649Y-65028753D01*
X119681500Y-65175290D01*
X96382999Y-65175290D01*
X96313429Y-65146473D01*
X96265003Y-65126414D01*
X96265001Y-65126413D01*
X96265000Y-65126413D01*
X96176645Y-65108838D01*
X96089481Y-65091500D01*
X96089479Y-65091500D01*
X95910521Y-65091500D01*
X95910518Y-65091500D01*
X95779771Y-65117507D01*
X95735000Y-65126413D01*
X95734999Y-65126413D01*
X95734996Y-65126414D01*
X95569662Y-65194899D01*
X95445002Y-65278194D01*
X95377249Y-65299409D01*
X95308782Y-65280626D01*
X95304998Y-65278194D01*
X95180337Y-65194899D01*
X95180338Y-65194899D01*
X95180336Y-65194898D01*
X95063429Y-65146473D01*
X95015003Y-65126414D01*
X95015001Y-65126413D01*
X95015000Y-65126413D01*
X94926645Y-65108838D01*
X94839481Y-65091500D01*
X94839479Y-65091500D01*
X94660521Y-65091500D01*
X94660518Y-65091500D01*
X94529771Y-65117507D01*
X94485000Y-65126413D01*
X94484999Y-65126413D01*
X94484996Y-65126414D01*
X94319662Y-65194899D01*
X94195002Y-65278194D01*
X94127249Y-65299409D01*
X94058782Y-65280626D01*
X94054998Y-65278194D01*
X93930337Y-65194899D01*
X93930338Y-65194899D01*
X93930336Y-65194898D01*
X93813429Y-65146473D01*
X93765003Y-65126414D01*
X93765001Y-65126413D01*
X93765000Y-65126413D01*
X93676645Y-65108838D01*
X93589481Y-65091500D01*
X93589479Y-65091500D01*
X93410521Y-65091500D01*
X93410518Y-65091500D01*
X93279771Y-65117507D01*
X93235000Y-65126413D01*
X93234999Y-65126413D01*
X93234996Y-65126414D01*
X93069662Y-65194899D01*
X92945002Y-65278194D01*
X92877249Y-65299409D01*
X92808782Y-65280626D01*
X92804998Y-65278194D01*
X92680337Y-65194899D01*
X92680338Y-65194899D01*
X92680336Y-65194898D01*
X92563429Y-65146473D01*
X92515003Y-65126414D01*
X92515001Y-65126413D01*
X92515000Y-65126413D01*
X92426645Y-65108838D01*
X92339481Y-65091500D01*
X92339479Y-65091500D01*
X92160521Y-65091500D01*
X92160518Y-65091500D01*
X92029771Y-65117507D01*
X91985000Y-65126413D01*
X91984999Y-65126413D01*
X91984996Y-65126414D01*
X91819662Y-65194899D01*
X91670869Y-65294319D01*
X91670862Y-65294324D01*
X91544324Y-65420862D01*
X91544319Y-65420869D01*
X91444899Y-65569662D01*
X91376414Y-65734996D01*
X91341500Y-65910518D01*
X87736628Y-65910518D01*
X87707553Y-65870499D01*
X87707550Y-65870496D01*
X87707548Y-65870493D01*
X87579506Y-65742451D01*
X87579503Y-65742449D01*
X87579501Y-65742447D01*
X87432994Y-65636004D01*
X87271639Y-65553789D01*
X87271636Y-65553788D01*
X87271634Y-65553787D01*
X87099412Y-65497830D01*
X87099409Y-65497829D01*
X86920546Y-65469500D01*
X86739454Y-65469500D01*
X86560591Y-65497829D01*
X86560588Y-65497829D01*
X86560587Y-65497830D01*
X86388365Y-65553787D01*
X86388359Y-65553790D01*
X86227002Y-65636006D01*
X86080496Y-65742449D01*
X86080493Y-65742451D01*
X85952451Y-65870493D01*
X85952449Y-65870496D01*
X85846006Y-66017002D01*
X85763790Y-66178359D01*
X85763787Y-66178365D01*
X85707830Y-66350587D01*
X85707829Y-66350591D01*
X85679500Y-66529454D01*
X83380500Y-66529454D01*
X83380500Y-66516535D01*
X83340130Y-66313580D01*
X83260941Y-66122402D01*
X83145977Y-65950345D01*
X83145975Y-65950343D01*
X83145970Y-65950337D01*
X82999662Y-65804029D01*
X82999656Y-65804024D01*
X82907499Y-65742447D01*
X82827598Y-65689059D01*
X82636420Y-65609870D01*
X82633474Y-65609284D01*
X82433467Y-65569500D01*
X82433465Y-65569500D01*
X82226535Y-65569500D01*
X82226532Y-65569500D01*
X82023579Y-65609870D01*
X82023574Y-65609872D01*
X81832402Y-65689059D01*
X81660343Y-65804024D01*
X81660337Y-65804029D01*
X81514029Y-65950337D01*
X81514024Y-65950343D01*
X81399059Y-66122402D01*
X81319872Y-66313574D01*
X81319870Y-66313579D01*
X81279500Y-66516532D01*
X77339500Y-66516532D01*
X77339500Y-61097914D01*
X108171500Y-61097914D01*
X108171500Y-61272396D01*
X108198795Y-61444729D01*
X108198796Y-61444732D01*
X108213736Y-61490715D01*
X108252712Y-61610671D01*
X108331926Y-61766136D01*
X108434483Y-61907294D01*
X108434485Y-61907296D01*
X108434487Y-61907299D01*
X108557855Y-62030667D01*
X108557858Y-62030669D01*
X108557861Y-62030672D01*
X108699019Y-62133229D01*
X108854484Y-62212443D01*
X109020426Y-62266360D01*
X109192759Y-62293655D01*
X109192762Y-62293655D01*
X109367238Y-62293655D01*
X109367241Y-62293655D01*
X109539574Y-62266360D01*
X109705516Y-62212443D01*
X109860981Y-62133229D01*
X110002139Y-62030672D01*
X110125517Y-61907294D01*
X110228074Y-61766136D01*
X110307288Y-61610671D01*
X110356026Y-61460668D01*
X113241500Y-61460668D01*
X113241500Y-61659331D01*
X113264567Y-61775294D01*
X113280256Y-61854169D01*
X113356279Y-62037704D01*
X113466647Y-62202881D01*
X113607119Y-62343353D01*
X113772296Y-62453721D01*
X113955831Y-62529744D01*
X114150671Y-62568500D01*
X114150672Y-62568500D01*
X114349328Y-62568500D01*
X114349329Y-62568500D01*
X114544169Y-62529744D01*
X114727704Y-62453721D01*
X114892881Y-62343353D01*
X115033353Y-62202881D01*
X115143721Y-62037704D01*
X115219744Y-61854169D01*
X115258500Y-61659329D01*
X115258500Y-61460671D01*
X115219744Y-61265831D01*
X115143721Y-61082296D01*
X115033353Y-60917119D01*
X114892881Y-60776647D01*
X114727704Y-60666279D01*
X114544169Y-60590256D01*
X114349331Y-60551500D01*
X114349329Y-60551500D01*
X114150671Y-60551500D01*
X114150668Y-60551500D01*
X113955830Y-60590256D01*
X113955825Y-60590258D01*
X113772296Y-60666279D01*
X113607123Y-60776644D01*
X113607116Y-60776649D01*
X113466649Y-60917116D01*
X113466644Y-60917123D01*
X113356279Y-61082296D01*
X113280258Y-61265825D01*
X113280256Y-61265830D01*
X113241500Y-61460668D01*
X110356026Y-61460668D01*
X110361205Y-61444729D01*
X110388500Y-61272396D01*
X110388500Y-61097914D01*
X110361205Y-60925581D01*
X110307288Y-60759639D01*
X110228074Y-60604174D01*
X110125517Y-60463016D01*
X110125514Y-60463013D01*
X110125512Y-60463010D01*
X110002144Y-60339642D01*
X110002141Y-60339640D01*
X110002139Y-60339638D01*
X109947981Y-60300290D01*
X123366500Y-60300290D01*
X123366500Y-60449709D01*
X123395649Y-60596246D01*
X123395650Y-60596249D01*
X123452826Y-60734284D01*
X123535835Y-60858516D01*
X123641484Y-60964165D01*
X123693909Y-60999194D01*
X123706691Y-61007735D01*
X123752219Y-61062212D01*
X123761067Y-61132655D01*
X123730426Y-61196699D01*
X123706691Y-61217265D01*
X123641488Y-61260832D01*
X123641481Y-61260837D01*
X123535837Y-61366481D01*
X123535832Y-61366488D01*
X123452826Y-61490715D01*
X123395650Y-61628750D01*
X123395649Y-61628753D01*
X123366500Y-61775290D01*
X123366500Y-61924709D01*
X123387578Y-62030672D01*
X123395649Y-62071246D01*
X123452826Y-62209284D01*
X123535835Y-62333516D01*
X123641484Y-62439165D01*
X123765716Y-62522174D01*
X123903754Y-62579351D01*
X124050294Y-62608500D01*
X124199706Y-62608500D01*
X124346246Y-62579351D01*
X124484284Y-62522174D01*
X124608516Y-62439165D01*
X124714165Y-62333516D01*
X124797174Y-62209284D01*
X124854351Y-62071246D01*
X124883500Y-61924706D01*
X124883500Y-61775294D01*
X124854351Y-61628754D01*
X124797174Y-61490716D01*
X124714165Y-61366484D01*
X124608516Y-61260835D01*
X124543307Y-61217264D01*
X124497781Y-61162789D01*
X124488932Y-61092346D01*
X124519573Y-61028302D01*
X124543304Y-61007737D01*
X124608516Y-60964165D01*
X124714165Y-60858516D01*
X124797174Y-60734284D01*
X124854351Y-60596246D01*
X124883500Y-60449706D01*
X124883500Y-60300294D01*
X124854351Y-60153754D01*
X124797174Y-60015716D01*
X124714165Y-59891484D01*
X124608516Y-59785835D01*
X124484284Y-59702826D01*
X124346249Y-59645650D01*
X124346246Y-59645649D01*
X124199709Y-59616500D01*
X124199706Y-59616500D01*
X124050294Y-59616500D01*
X124050290Y-59616500D01*
X123903753Y-59645649D01*
X123903750Y-59645650D01*
X123765715Y-59702826D01*
X123641488Y-59785832D01*
X123641481Y-59785837D01*
X123535837Y-59891481D01*
X123535832Y-59891488D01*
X123452826Y-60015715D01*
X123395650Y-60153750D01*
X123395649Y-60153753D01*
X123366500Y-60300290D01*
X109947981Y-60300290D01*
X109860981Y-60237081D01*
X109705516Y-60157867D01*
X109705513Y-60157866D01*
X109705511Y-60157865D01*
X109539577Y-60103951D01*
X109539574Y-60103950D01*
X109367241Y-60076655D01*
X109192759Y-60076655D01*
X109020426Y-60103950D01*
X109020423Y-60103950D01*
X109020422Y-60103951D01*
X108854488Y-60157865D01*
X108854482Y-60157868D01*
X108699015Y-60237083D01*
X108557858Y-60339640D01*
X108557855Y-60339642D01*
X108434487Y-60463010D01*
X108434485Y-60463013D01*
X108331928Y-60604170D01*
X108252713Y-60759637D01*
X108252710Y-60759643D01*
X108201545Y-60917116D01*
X108198795Y-60925581D01*
X108171500Y-61097914D01*
X77339500Y-61097914D01*
X77339500Y-55265084D01*
X85646500Y-55265084D01*
X85646500Y-55478916D01*
X85679801Y-55689167D01*
X85679952Y-55690121D01*
X85732526Y-55851928D01*
X85746028Y-55893483D01*
X85843106Y-56084009D01*
X85968794Y-56257004D01*
X85968796Y-56257006D01*
X85968798Y-56257009D01*
X86119990Y-56408201D01*
X86119993Y-56408203D01*
X86119996Y-56408206D01*
X86292991Y-56533894D01*
X86483517Y-56630972D01*
X86506379Y-56638400D01*
X86564982Y-56678471D01*
X86592620Y-56743867D01*
X86580514Y-56813824D01*
X86541505Y-56860166D01*
X86519993Y-56875796D01*
X86519990Y-56875798D01*
X86368798Y-57026990D01*
X86368796Y-57026993D01*
X86243108Y-57199987D01*
X86146029Y-57390515D01*
X86146026Y-57390521D01*
X86079952Y-57593878D01*
X86079951Y-57593883D01*
X86079951Y-57593884D01*
X86046500Y-57805084D01*
X86046500Y-58018916D01*
X86079951Y-58230116D01*
X86079952Y-58230121D01*
X86132787Y-58392731D01*
X86146028Y-58433483D01*
X86243106Y-58624009D01*
X86368794Y-58797004D01*
X86368796Y-58797006D01*
X86368798Y-58797009D01*
X86519990Y-58948201D01*
X86519993Y-58948203D01*
X86519996Y-58948206D01*
X86692991Y-59073894D01*
X86883517Y-59170972D01*
X87086878Y-59237047D01*
X87086879Y-59237047D01*
X87086884Y-59237049D01*
X87298084Y-59270500D01*
X87298087Y-59270500D01*
X87511913Y-59270500D01*
X87511916Y-59270500D01*
X87723116Y-59237049D01*
X87926483Y-59170972D01*
X88117009Y-59073894D01*
X88290004Y-58948206D01*
X88441206Y-58797004D01*
X88531635Y-58672539D01*
X124844200Y-58672539D01*
X124844200Y-58819460D01*
X124864671Y-58922374D01*
X124872860Y-58963542D01*
X124929080Y-59099269D01*
X124976989Y-59170970D01*
X125010698Y-59221419D01*
X125010703Y-59221425D01*
X125114574Y-59325296D01*
X125114580Y-59325301D01*
X125236731Y-59406920D01*
X125372458Y-59463140D01*
X125496521Y-59487817D01*
X125516539Y-59491799D01*
X125516542Y-59491799D01*
X125516545Y-59491800D01*
X125516546Y-59491800D01*
X125663454Y-59491800D01*
X125663455Y-59491800D01*
X125807542Y-59463140D01*
X125943269Y-59406920D01*
X126065420Y-59325301D01*
X126169301Y-59221420D01*
X126250920Y-59099269D01*
X126307140Y-58963542D01*
X126335800Y-58819455D01*
X126335800Y-58672545D01*
X126307140Y-58528458D01*
X126250920Y-58392731D01*
X126169301Y-58270580D01*
X126169296Y-58270574D01*
X126065425Y-58166703D01*
X126065419Y-58166698D01*
X126024887Y-58139615D01*
X125943269Y-58085080D01*
X125807542Y-58028860D01*
X125757529Y-58018912D01*
X125663460Y-58000200D01*
X125663455Y-58000200D01*
X125516545Y-58000200D01*
X125516539Y-58000200D01*
X125393041Y-58024765D01*
X125372458Y-58028860D01*
X125372455Y-58028860D01*
X125372452Y-58028862D01*
X125236731Y-58085080D01*
X125114580Y-58166698D01*
X125114574Y-58166703D01*
X125010703Y-58270574D01*
X125010698Y-58270580D01*
X124929080Y-58392731D01*
X124872862Y-58528452D01*
X124872860Y-58528459D01*
X124844200Y-58672539D01*
X88531635Y-58672539D01*
X88566894Y-58624009D01*
X88663972Y-58433483D01*
X88730049Y-58230116D01*
X88763500Y-58018916D01*
X88763500Y-57805084D01*
X88730049Y-57593884D01*
X88663972Y-57390517D01*
X88566894Y-57199991D01*
X88441206Y-57026996D01*
X88441203Y-57026993D01*
X88441201Y-57026990D01*
X88290009Y-56875798D01*
X88290006Y-56875796D01*
X88290004Y-56875794D01*
X88217286Y-56822961D01*
X88199094Y-56809744D01*
X88117012Y-56750108D01*
X88117011Y-56750107D01*
X88117009Y-56750106D01*
X88043712Y-56712759D01*
X109791500Y-56712759D01*
X109791500Y-56887241D01*
X109818795Y-57059574D01*
X109818796Y-57059577D01*
X109864418Y-57199991D01*
X109872712Y-57225516D01*
X109951926Y-57380981D01*
X110054483Y-57522139D01*
X110054485Y-57522141D01*
X110054487Y-57522144D01*
X110177855Y-57645512D01*
X110177858Y-57645514D01*
X110177861Y-57645517D01*
X110319019Y-57748074D01*
X110474484Y-57827288D01*
X110640426Y-57881205D01*
X110812759Y-57908500D01*
X110812762Y-57908500D01*
X110987238Y-57908500D01*
X110987241Y-57908500D01*
X111159574Y-57881205D01*
X111325516Y-57827288D01*
X111480981Y-57748074D01*
X111622139Y-57645517D01*
X111745517Y-57522139D01*
X111848074Y-57380981D01*
X111927288Y-57225516D01*
X111981205Y-57059574D01*
X112008500Y-56887241D01*
X112008500Y-56835518D01*
X119391500Y-56835518D01*
X119391500Y-57014481D01*
X119400470Y-57059574D01*
X119426413Y-57190000D01*
X119494898Y-57355336D01*
X119594322Y-57504135D01*
X119720865Y-57630678D01*
X119869664Y-57730102D01*
X120035000Y-57798587D01*
X120210521Y-57833500D01*
X120210522Y-57833500D01*
X120389478Y-57833500D01*
X120389479Y-57833500D01*
X120565000Y-57798587D01*
X120730336Y-57730102D01*
X120879135Y-57630678D01*
X121005678Y-57504135D01*
X121105102Y-57355336D01*
X121173587Y-57190000D01*
X121208500Y-57014479D01*
X121208500Y-56835521D01*
X121173587Y-56660000D01*
X121165526Y-56640539D01*
X124844200Y-56640539D01*
X124844200Y-56787460D01*
X124861771Y-56875794D01*
X124872860Y-56931542D01*
X124929080Y-57067269D01*
X124983615Y-57148887D01*
X125010698Y-57189419D01*
X125010703Y-57189425D01*
X125114574Y-57293296D01*
X125114580Y-57293301D01*
X125236731Y-57374920D01*
X125372458Y-57431140D01*
X125496521Y-57455817D01*
X125516539Y-57459799D01*
X125516542Y-57459799D01*
X125516545Y-57459800D01*
X125516546Y-57459800D01*
X125663454Y-57459800D01*
X125663455Y-57459800D01*
X125807542Y-57431140D01*
X125943269Y-57374920D01*
X126065420Y-57293301D01*
X126169301Y-57189420D01*
X126250920Y-57067269D01*
X126307140Y-56931542D01*
X126335800Y-56787455D01*
X126335800Y-56640545D01*
X126333895Y-56630970D01*
X126328834Y-56605526D01*
X126307140Y-56496458D01*
X126250920Y-56360731D01*
X126169301Y-56238580D01*
X126169296Y-56238574D01*
X126065425Y-56134703D01*
X126065419Y-56134698D01*
X126012137Y-56099096D01*
X125943269Y-56053080D01*
X125816373Y-56000518D01*
X128921500Y-56000518D01*
X128921500Y-56179481D01*
X128933256Y-56238580D01*
X128954595Y-56345862D01*
X128956414Y-56355003D01*
X128964485Y-56374488D01*
X129024898Y-56520336D01*
X129124322Y-56669135D01*
X129250865Y-56795678D01*
X129399664Y-56895102D01*
X129565000Y-56963587D01*
X129740521Y-56998500D01*
X129740522Y-56998500D01*
X129919478Y-56998500D01*
X129919479Y-56998500D01*
X130045494Y-56973434D01*
X130116206Y-56979762D01*
X130172274Y-57023316D01*
X130195893Y-57090268D01*
X130179566Y-57159362D01*
X130159170Y-57186108D01*
X130090698Y-57254580D01*
X130009080Y-57376731D01*
X129952862Y-57512452D01*
X129952860Y-57512459D01*
X129924200Y-57656539D01*
X129924200Y-57803460D01*
X129939665Y-57881205D01*
X129952860Y-57947542D01*
X130009080Y-58083269D01*
X130063615Y-58164887D01*
X130090698Y-58205419D01*
X130090703Y-58205425D01*
X130194574Y-58309296D01*
X130194580Y-58309301D01*
X130316731Y-58390920D01*
X130452458Y-58447140D01*
X130576521Y-58471817D01*
X130596539Y-58475799D01*
X130596542Y-58475799D01*
X130596545Y-58475800D01*
X130596546Y-58475800D01*
X130743454Y-58475800D01*
X130743455Y-58475800D01*
X130887542Y-58447140D01*
X131023269Y-58390920D01*
X131145420Y-58309301D01*
X131249301Y-58205420D01*
X131330920Y-58083269D01*
X131387140Y-57947542D01*
X131415800Y-57803455D01*
X131415800Y-57656545D01*
X131413606Y-57645517D01*
X131403335Y-57593878D01*
X131387140Y-57512458D01*
X131330920Y-57376731D01*
X131249301Y-57254580D01*
X131249296Y-57254574D01*
X131145425Y-57150703D01*
X131145419Y-57150698D01*
X131104887Y-57123615D01*
X131023269Y-57069080D01*
X130907423Y-57021095D01*
X130887547Y-57012862D01*
X130887546Y-57012861D01*
X130887542Y-57012860D01*
X130846374Y-57004671D01*
X130743460Y-56984200D01*
X130743455Y-56984200D01*
X130596545Y-56984200D01*
X130596537Y-56984200D01*
X130534651Y-56996510D01*
X130463937Y-56990181D01*
X130407870Y-56946626D01*
X130384252Y-56879673D01*
X130400580Y-56810580D01*
X130420969Y-56783843D01*
X130535678Y-56669135D01*
X130635102Y-56520336D01*
X130703587Y-56355000D01*
X130738500Y-56179479D01*
X130738500Y-56000521D01*
X130703587Y-55825000D01*
X130635102Y-55659664D01*
X130535678Y-55510865D01*
X130409135Y-55384322D01*
X130260336Y-55284898D01*
X130143429Y-55236473D01*
X130095003Y-55216414D01*
X130095001Y-55216413D01*
X130095000Y-55216413D01*
X130006645Y-55198838D01*
X129919481Y-55181500D01*
X129919479Y-55181500D01*
X129740521Y-55181500D01*
X129740518Y-55181500D01*
X129609771Y-55207507D01*
X129565000Y-55216413D01*
X129564999Y-55216413D01*
X129564996Y-55216414D01*
X129399662Y-55284899D01*
X129250869Y-55384319D01*
X129250862Y-55384324D01*
X129124324Y-55510862D01*
X129124319Y-55510869D01*
X129024899Y-55659662D01*
X128956414Y-55824996D01*
X128956413Y-55824999D01*
X128956413Y-55825000D01*
X128947507Y-55869771D01*
X128921500Y-56000518D01*
X125816373Y-56000518D01*
X125807547Y-55996862D01*
X125807546Y-55996861D01*
X125807542Y-55996860D01*
X125766374Y-55988671D01*
X125663460Y-55968200D01*
X125663455Y-55968200D01*
X125516545Y-55968200D01*
X125516539Y-55968200D01*
X125393041Y-55992765D01*
X125372458Y-55996860D01*
X125372455Y-55996860D01*
X125372452Y-55996862D01*
X125236731Y-56053080D01*
X125114580Y-56134698D01*
X125114574Y-56134703D01*
X125010703Y-56238574D01*
X125010698Y-56238580D01*
X124929080Y-56360731D01*
X124872862Y-56496452D01*
X124872860Y-56496459D01*
X124844200Y-56640539D01*
X121165526Y-56640539D01*
X121105102Y-56494664D01*
X121005678Y-56345865D01*
X120879135Y-56219322D01*
X120730336Y-56119898D01*
X120613429Y-56071473D01*
X120565003Y-56051414D01*
X120565001Y-56051413D01*
X120565000Y-56051413D01*
X120476645Y-56033838D01*
X120389481Y-56016500D01*
X120389479Y-56016500D01*
X120210521Y-56016500D01*
X120210518Y-56016500D01*
X120079771Y-56042507D01*
X120035000Y-56051413D01*
X120034999Y-56051413D01*
X120034996Y-56051414D01*
X119869662Y-56119899D01*
X119720869Y-56219319D01*
X119720862Y-56219324D01*
X119594324Y-56345862D01*
X119594319Y-56345869D01*
X119542228Y-56423830D01*
X119494898Y-56494664D01*
X119484264Y-56520336D01*
X119426414Y-56659996D01*
X119391500Y-56835518D01*
X112008500Y-56835518D01*
X112008500Y-56712759D01*
X111981205Y-56540426D01*
X111927288Y-56374484D01*
X111848074Y-56219019D01*
X111745517Y-56077861D01*
X111745514Y-56077858D01*
X111745512Y-56077855D01*
X111622144Y-55954487D01*
X111622141Y-55954485D01*
X111622139Y-55954483D01*
X111515882Y-55877283D01*
X111480984Y-55851928D01*
X111480983Y-55851927D01*
X111480981Y-55851926D01*
X111325516Y-55772712D01*
X111325513Y-55772711D01*
X111325511Y-55772710D01*
X111159577Y-55718796D01*
X111159574Y-55718795D01*
X110987241Y-55691500D01*
X110812759Y-55691500D01*
X110640426Y-55718795D01*
X110640423Y-55718795D01*
X110640422Y-55718796D01*
X110474488Y-55772710D01*
X110474482Y-55772713D01*
X110319015Y-55851928D01*
X110177858Y-55954485D01*
X110177855Y-55954487D01*
X110054487Y-56077855D01*
X110054485Y-56077858D01*
X109951928Y-56219015D01*
X109872713Y-56374482D01*
X109872710Y-56374488D01*
X109825322Y-56520337D01*
X109818795Y-56540426D01*
X109791500Y-56712759D01*
X88043712Y-56712759D01*
X87926483Y-56653028D01*
X87903620Y-56645599D01*
X87845015Y-56605526D01*
X87817379Y-56540129D01*
X87829486Y-56470172D01*
X87868499Y-56423830D01*
X87890004Y-56408206D01*
X88041206Y-56257004D01*
X88166894Y-56084009D01*
X88263972Y-55893483D01*
X88330049Y-55690116D01*
X88363500Y-55478916D01*
X88363500Y-55265084D01*
X88330049Y-55053884D01*
X88330047Y-55053878D01*
X88330047Y-55053876D01*
X88330046Y-55053875D01*
X88320758Y-55025290D01*
X124071500Y-55025290D01*
X124071500Y-55174709D01*
X124100649Y-55321246D01*
X124100650Y-55321249D01*
X124126776Y-55384322D01*
X124157826Y-55459284D01*
X124240835Y-55583516D01*
X124346484Y-55689165D01*
X124470716Y-55772174D01*
X124608754Y-55829351D01*
X124755294Y-55858500D01*
X124904706Y-55858500D01*
X125051246Y-55829351D01*
X125189284Y-55772174D01*
X125313516Y-55689165D01*
X125419165Y-55583516D01*
X125502174Y-55459284D01*
X125559351Y-55321246D01*
X125588500Y-55174706D01*
X125588500Y-55025294D01*
X125559351Y-54878754D01*
X125502174Y-54740716D01*
X125419165Y-54616484D01*
X125313516Y-54510835D01*
X125189284Y-54427826D01*
X125051249Y-54370650D01*
X125051246Y-54370649D01*
X124904709Y-54341500D01*
X124904706Y-54341500D01*
X124755294Y-54341500D01*
X124755290Y-54341500D01*
X124608753Y-54370649D01*
X124608750Y-54370650D01*
X124470715Y-54427826D01*
X124346488Y-54510832D01*
X124346481Y-54510837D01*
X124240837Y-54616481D01*
X124240832Y-54616488D01*
X124157826Y-54740715D01*
X124100650Y-54878750D01*
X124100649Y-54878753D01*
X124071500Y-55025290D01*
X88320758Y-55025290D01*
X88263972Y-54850517D01*
X88166894Y-54659991D01*
X88041206Y-54486996D01*
X88041203Y-54486993D01*
X88041201Y-54486990D01*
X87890009Y-54335798D01*
X87890003Y-54335793D01*
X87868496Y-54320167D01*
X87825143Y-54263944D01*
X87819068Y-54193208D01*
X87852200Y-54130417D01*
X87903621Y-54098399D01*
X87926483Y-54090972D01*
X88117009Y-53993894D01*
X88290004Y-53868206D01*
X88441206Y-53717004D01*
X88566894Y-53544009D01*
X88663972Y-53353483D01*
X88730049Y-53150116D01*
X88763500Y-52938916D01*
X88763500Y-52725084D01*
X88730049Y-52513884D01*
X88663972Y-52310517D01*
X88566894Y-52119991D01*
X88441206Y-51946996D01*
X88441203Y-51946993D01*
X88441201Y-51946990D01*
X88290009Y-51795798D01*
X88290006Y-51795796D01*
X88290004Y-51795794D01*
X88117009Y-51670106D01*
X87926483Y-51573028D01*
X87926480Y-51573027D01*
X87926478Y-51573026D01*
X87867920Y-51554000D01*
X87855460Y-51549951D01*
X87796855Y-51509879D01*
X87769218Y-51444482D01*
X87768785Y-51420234D01*
X87769167Y-51415376D01*
X87129948Y-50776157D01*
X87197993Y-50757925D01*
X87312007Y-50692099D01*
X87405099Y-50599007D01*
X87470925Y-50484993D01*
X87489157Y-50416948D01*
X88128376Y-51056167D01*
X88128378Y-51056167D01*
X88166463Y-51003750D01*
X88263506Y-50813292D01*
X88263509Y-50813286D01*
X88329559Y-50610003D01*
X88363000Y-50398873D01*
X88363000Y-50185122D01*
X88360874Y-50171701D01*
X88360873Y-50171699D01*
X88358283Y-50155350D01*
X97813005Y-50155350D01*
X97813005Y-51952649D01*
X97819514Y-52013196D01*
X97819516Y-52013204D01*
X97870615Y-52150202D01*
X97870617Y-52150207D01*
X97958243Y-52267261D01*
X98075297Y-52354887D01*
X98075299Y-52354888D01*
X98075301Y-52354889D01*
X98134380Y-52376924D01*
X98212300Y-52405988D01*
X98212308Y-52405990D01*
X98272855Y-52412499D01*
X98272860Y-52412499D01*
X98272867Y-52412500D01*
X98272873Y-52412500D01*
X100070137Y-52412500D01*
X100070143Y-52412500D01*
X100070150Y-52412499D01*
X100070154Y-52412499D01*
X100130701Y-52405990D01*
X100130704Y-52405989D01*
X100130706Y-52405989D01*
X100267709Y-52354889D01*
X100323704Y-52312972D01*
X100384766Y-52267261D01*
X100472391Y-52150208D01*
X100472390Y-52150208D01*
X100472394Y-52150204D01*
X100516567Y-52031771D01*
X100559112Y-51974940D01*
X100625632Y-51950129D01*
X100695007Y-51965221D01*
X100723716Y-51986713D01*
X100826825Y-52089822D01*
X100999754Y-52215463D01*
X101190212Y-52312506D01*
X101190218Y-52312509D01*
X101393503Y-52378560D01*
X101457505Y-52388696D01*
X101457505Y-51484702D01*
X101518512Y-51519925D01*
X101645679Y-51554000D01*
X101777331Y-51554000D01*
X101904498Y-51519925D01*
X101965505Y-51484702D01*
X101965505Y-52388696D01*
X102029506Y-52378560D01*
X102232791Y-52312509D01*
X102232797Y-52312506D01*
X102423255Y-52215463D01*
X102596184Y-52089822D01*
X102747327Y-51938679D01*
X102872965Y-51765754D01*
X102873766Y-51764448D01*
X102874200Y-51764054D01*
X102875881Y-51761742D01*
X102876366Y-51762094D01*
X102926405Y-51716807D01*
X102996445Y-51705188D01*
X103061647Y-51733280D01*
X103086602Y-51762075D01*
X103086701Y-51762004D01*
X103087530Y-51763145D01*
X103088641Y-51764427D01*
X103089608Y-51766006D01*
X103165023Y-51869806D01*
X103215299Y-51939004D01*
X103215301Y-51939006D01*
X103215303Y-51939009D01*
X103366495Y-52090201D01*
X103366498Y-52090203D01*
X103366501Y-52090206D01*
X103539496Y-52215894D01*
X103730022Y-52312972D01*
X103933383Y-52379047D01*
X103933384Y-52379047D01*
X103933389Y-52379049D01*
X104144589Y-52412500D01*
X104144592Y-52412500D01*
X104358418Y-52412500D01*
X104358421Y-52412500D01*
X104569621Y-52379049D01*
X104772988Y-52312972D01*
X104963514Y-52215894D01*
X105136509Y-52090206D01*
X105287711Y-51939004D01*
X105413399Y-51766009D01*
X105413404Y-51765997D01*
X105414066Y-51764920D01*
X105414429Y-51764591D01*
X105416309Y-51762004D01*
X105416852Y-51762398D01*
X105466709Y-51717283D01*
X105536749Y-51705670D01*
X105601950Y-51733766D01*
X105626526Y-51762130D01*
X105626701Y-51762004D01*
X105628173Y-51764030D01*
X105628944Y-51764920D01*
X105629609Y-51766006D01*
X105629611Y-51766009D01*
X105755299Y-51939004D01*
X105755301Y-51939006D01*
X105755303Y-51939009D01*
X105906495Y-52090201D01*
X105906498Y-52090203D01*
X105906501Y-52090206D01*
X106079496Y-52215894D01*
X106270022Y-52312972D01*
X106473383Y-52379047D01*
X106473384Y-52379047D01*
X106473389Y-52379049D01*
X106684589Y-52412500D01*
X106684592Y-52412500D01*
X106898418Y-52412500D01*
X106898421Y-52412500D01*
X107109621Y-52379049D01*
X107312988Y-52312972D01*
X107503514Y-52215894D01*
X107676509Y-52090206D01*
X107827711Y-51939004D01*
X107953399Y-51766009D01*
X107953404Y-51765997D01*
X107954066Y-51764920D01*
X107954429Y-51764591D01*
X107956309Y-51762004D01*
X107956852Y-51762398D01*
X108006709Y-51717283D01*
X108076749Y-51705670D01*
X108141950Y-51733766D01*
X108166526Y-51762130D01*
X108166701Y-51762004D01*
X108168173Y-51764030D01*
X108168944Y-51764920D01*
X108169609Y-51766006D01*
X108169611Y-51766009D01*
X108295299Y-51939004D01*
X108295301Y-51939006D01*
X108295303Y-51939009D01*
X108446495Y-52090201D01*
X108446498Y-52090203D01*
X108446501Y-52090206D01*
X108619496Y-52215894D01*
X108810022Y-52312972D01*
X109013383Y-52379047D01*
X109013384Y-52379047D01*
X109013389Y-52379049D01*
X109224589Y-52412500D01*
X109224592Y-52412500D01*
X109438418Y-52412500D01*
X109438421Y-52412500D01*
X109649621Y-52379049D01*
X109852988Y-52312972D01*
X110043514Y-52215894D01*
X110216509Y-52090206D01*
X110367711Y-51939004D01*
X110493399Y-51766009D01*
X110493404Y-51765997D01*
X110494066Y-51764920D01*
X110494429Y-51764591D01*
X110496309Y-51762004D01*
X110496852Y-51762398D01*
X110546709Y-51717283D01*
X110616749Y-51705670D01*
X110681950Y-51733766D01*
X110706526Y-51762130D01*
X110706701Y-51762004D01*
X110708173Y-51764030D01*
X110708944Y-51764920D01*
X110709609Y-51766006D01*
X110709611Y-51766009D01*
X110835299Y-51939004D01*
X110835301Y-51939006D01*
X110835303Y-51939009D01*
X110986495Y-52090201D01*
X110986498Y-52090203D01*
X110986501Y-52090206D01*
X111159496Y-52215894D01*
X111350022Y-52312972D01*
X111553383Y-52379047D01*
X111553384Y-52379047D01*
X111553389Y-52379049D01*
X111764589Y-52412500D01*
X111764592Y-52412500D01*
X111978418Y-52412500D01*
X111978421Y-52412500D01*
X112189621Y-52379049D01*
X112392988Y-52312972D01*
X112583514Y-52215894D01*
X112756509Y-52090206D01*
X112907711Y-51939004D01*
X113033399Y-51766009D01*
X113130477Y-51575483D01*
X113196554Y-51372116D01*
X113230005Y-51160916D01*
X113230005Y-50947084D01*
X113196554Y-50735884D01*
X113130477Y-50532517D01*
X113033399Y-50341991D01*
X112907711Y-50168996D01*
X112907708Y-50168993D01*
X112907706Y-50168990D01*
X112756514Y-50017798D01*
X112756511Y-50017796D01*
X112756509Y-50017794D01*
X112583514Y-49892106D01*
X112392988Y-49795028D01*
X112392985Y-49795027D01*
X112392983Y-49795026D01*
X112189625Y-49728952D01*
X112189628Y-49728952D01*
X112128700Y-49719302D01*
X111978421Y-49695500D01*
X111764589Y-49695500D01*
X111553389Y-49728951D01*
X111553383Y-49728952D01*
X111350026Y-49795026D01*
X111350020Y-49795029D01*
X111159492Y-49892108D01*
X110986498Y-50017796D01*
X110986495Y-50017798D01*
X110835303Y-50168990D01*
X110835301Y-50168993D01*
X110709613Y-50341987D01*
X110708939Y-50343088D01*
X110708573Y-50343418D01*
X110706701Y-50345996D01*
X110706159Y-50345602D01*
X110656292Y-50390721D01*
X110586250Y-50402328D01*
X110521052Y-50374226D01*
X110496481Y-50345870D01*
X110496309Y-50345996D01*
X110494846Y-50343982D01*
X110494071Y-50343088D01*
X110493401Y-50341996D01*
X110493399Y-50341991D01*
X110367711Y-50168996D01*
X110367708Y-50168993D01*
X110367706Y-50168990D01*
X110216514Y-50017798D01*
X110216511Y-50017796D01*
X110216509Y-50017794D01*
X110043514Y-49892106D01*
X109852988Y-49795028D01*
X109852985Y-49795027D01*
X109852983Y-49795026D01*
X109649625Y-49728952D01*
X109649628Y-49728952D01*
X109588700Y-49719302D01*
X109438421Y-49695500D01*
X109224589Y-49695500D01*
X109013389Y-49728951D01*
X109013383Y-49728952D01*
X108810026Y-49795026D01*
X108810020Y-49795029D01*
X108619492Y-49892108D01*
X108446498Y-50017796D01*
X108446495Y-50017798D01*
X108295303Y-50168990D01*
X108295301Y-50168993D01*
X108169613Y-50341987D01*
X108168939Y-50343088D01*
X108168573Y-50343418D01*
X108166701Y-50345996D01*
X108166159Y-50345602D01*
X108116292Y-50390721D01*
X108046250Y-50402328D01*
X107981052Y-50374226D01*
X107956481Y-50345870D01*
X107956309Y-50345996D01*
X107954846Y-50343982D01*
X107954071Y-50343088D01*
X107953401Y-50341996D01*
X107953399Y-50341991D01*
X107827711Y-50168996D01*
X107827708Y-50168993D01*
X107827706Y-50168990D01*
X107676514Y-50017798D01*
X107676511Y-50017796D01*
X107676509Y-50017794D01*
X107503514Y-49892106D01*
X107312988Y-49795028D01*
X107312985Y-49795027D01*
X107312983Y-49795026D01*
X107109625Y-49728952D01*
X107109628Y-49728952D01*
X107048700Y-49719302D01*
X106898421Y-49695500D01*
X106684589Y-49695500D01*
X106473389Y-49728951D01*
X106473383Y-49728952D01*
X106270026Y-49795026D01*
X106270020Y-49795029D01*
X106079492Y-49892108D01*
X105906498Y-50017796D01*
X105906495Y-50017798D01*
X105755303Y-50168990D01*
X105755301Y-50168993D01*
X105629613Y-50341987D01*
X105628939Y-50343088D01*
X105628573Y-50343418D01*
X105626701Y-50345996D01*
X105626159Y-50345602D01*
X105576292Y-50390721D01*
X105506250Y-50402328D01*
X105441052Y-50374226D01*
X105416481Y-50345870D01*
X105416309Y-50345996D01*
X105414846Y-50343982D01*
X105414071Y-50343088D01*
X105413401Y-50341996D01*
X105413399Y-50341991D01*
X105287711Y-50168996D01*
X105287708Y-50168993D01*
X105287706Y-50168990D01*
X105136514Y-50017798D01*
X105136511Y-50017796D01*
X105136509Y-50017794D01*
X104963514Y-49892106D01*
X104772988Y-49795028D01*
X104772985Y-49795027D01*
X104772983Y-49795026D01*
X104569625Y-49728952D01*
X104569628Y-49728952D01*
X104508700Y-49719302D01*
X104358421Y-49695500D01*
X104144589Y-49695500D01*
X103933389Y-49728951D01*
X103933383Y-49728952D01*
X103730026Y-49795026D01*
X103730020Y-49795029D01*
X103539492Y-49892108D01*
X103366498Y-50017796D01*
X103366495Y-50017798D01*
X103215303Y-50168990D01*
X103215301Y-50168993D01*
X103089605Y-50341998D01*
X103088636Y-50343580D01*
X103088111Y-50344054D01*
X103086701Y-50345996D01*
X103086292Y-50345699D01*
X103035984Y-50391206D01*
X102965942Y-50402807D01*
X102900747Y-50374697D01*
X102876020Y-50346156D01*
X102875881Y-50346258D01*
X102874699Y-50344631D01*
X102873771Y-50343560D01*
X102872965Y-50342244D01*
X102747327Y-50169320D01*
X102596184Y-50018177D01*
X102423255Y-49892536D01*
X102232797Y-49795493D01*
X102232791Y-49795490D01*
X102029509Y-49729440D01*
X101965505Y-49719302D01*
X101965505Y-50623297D01*
X101904498Y-50588075D01*
X101777331Y-50554000D01*
X101645679Y-50554000D01*
X101518512Y-50588075D01*
X101457505Y-50623297D01*
X101457505Y-49719302D01*
X101393500Y-49729440D01*
X101190218Y-49795490D01*
X101190212Y-49795493D01*
X100999754Y-49892536D01*
X100826827Y-50018176D01*
X100723716Y-50121287D01*
X100661404Y-50155312D01*
X100590588Y-50150246D01*
X100533752Y-50107700D01*
X100516566Y-50076224D01*
X100472394Y-49957796D01*
X100472392Y-49957792D01*
X100384766Y-49840738D01*
X100267712Y-49753112D01*
X100267707Y-49753110D01*
X100130709Y-49702011D01*
X100130701Y-49702009D01*
X100070154Y-49695500D01*
X100070143Y-49695500D01*
X98272867Y-49695500D01*
X98272855Y-49695500D01*
X98212308Y-49702009D01*
X98212300Y-49702011D01*
X98075302Y-49753110D01*
X98075297Y-49753112D01*
X97958243Y-49840738D01*
X97870617Y-49957792D01*
X97870615Y-49957797D01*
X97819516Y-50094795D01*
X97819514Y-50094803D01*
X97813005Y-50155350D01*
X88358283Y-50155350D01*
X88329559Y-49973996D01*
X88263509Y-49770713D01*
X88263506Y-49770707D01*
X88166464Y-49580251D01*
X88166463Y-49580249D01*
X88128378Y-49527831D01*
X87489157Y-50167051D01*
X87470925Y-50099007D01*
X87405099Y-49984993D01*
X87312007Y-49891901D01*
X87197993Y-49826075D01*
X87129947Y-49807841D01*
X87769168Y-49168621D01*
X87769167Y-49168620D01*
X87716750Y-49130536D01*
X87716748Y-49130535D01*
X87526292Y-49033493D01*
X87526286Y-49033490D01*
X87323003Y-48967440D01*
X87111874Y-48934000D01*
X86898126Y-48934000D01*
X86686996Y-48967440D01*
X86483713Y-49033490D01*
X86483707Y-49033493D01*
X86293253Y-49130534D01*
X86240831Y-49168621D01*
X86240831Y-49168622D01*
X86880051Y-49807842D01*
X86812007Y-49826075D01*
X86697993Y-49891901D01*
X86604901Y-49984993D01*
X86539075Y-50099007D01*
X86520842Y-50167051D01*
X85881622Y-49527831D01*
X85881621Y-49527831D01*
X85843534Y-49580253D01*
X85746493Y-49770707D01*
X85746490Y-49770713D01*
X85680440Y-49973996D01*
X85647000Y-50185126D01*
X85647000Y-50398873D01*
X85680440Y-50610003D01*
X85746490Y-50813286D01*
X85746493Y-50813292D01*
X85843535Y-51003748D01*
X85843536Y-51003750D01*
X85881620Y-51056167D01*
X85881621Y-51056168D01*
X86520841Y-50416947D01*
X86539075Y-50484993D01*
X86604901Y-50599007D01*
X86697993Y-50692099D01*
X86812007Y-50757925D01*
X86880051Y-50776157D01*
X86240831Y-51415378D01*
X86293249Y-51453463D01*
X86293251Y-51453464D01*
X86483707Y-51550506D01*
X86483711Y-51550508D01*
X86506875Y-51558034D01*
X86565482Y-51598106D01*
X86593120Y-51663502D01*
X86581016Y-51733459D01*
X86542006Y-51779802D01*
X86519993Y-51795796D01*
X86519990Y-51795798D01*
X86368798Y-51946990D01*
X86368796Y-51946993D01*
X86243108Y-52119987D01*
X86146029Y-52310515D01*
X86146026Y-52310521D01*
X86079952Y-52513878D01*
X86079951Y-52513883D01*
X86079951Y-52513884D01*
X86046500Y-52725084D01*
X86046500Y-52938916D01*
X86079951Y-53150116D01*
X86079952Y-53150121D01*
X86146026Y-53353478D01*
X86146028Y-53353483D01*
X86243106Y-53544009D01*
X86368794Y-53717004D01*
X86368796Y-53717006D01*
X86368798Y-53717009D01*
X86519993Y-53868204D01*
X86541502Y-53883831D01*
X86584856Y-53940054D01*
X86590931Y-54010790D01*
X86557799Y-54073582D01*
X86506380Y-54105599D01*
X86483522Y-54113026D01*
X86483515Y-54113029D01*
X86292987Y-54210108D01*
X86119993Y-54335796D01*
X86119990Y-54335798D01*
X85968798Y-54486990D01*
X85968796Y-54486993D01*
X85843108Y-54659987D01*
X85746029Y-54850515D01*
X85746026Y-54850521D01*
X85679952Y-55053878D01*
X85679951Y-55053883D01*
X85679951Y-55053884D01*
X85646500Y-55265084D01*
X77339500Y-55265084D01*
X77339500Y-50065805D01*
X77339730Y-50058198D01*
X77345803Y-49957792D01*
X77356462Y-49781572D01*
X77358293Y-49766495D01*
X77407563Y-49497638D01*
X77411196Y-49482898D01*
X77492517Y-49221929D01*
X77497904Y-49207728D01*
X77610078Y-48958487D01*
X77617137Y-48945035D01*
X77758546Y-48711115D01*
X77767168Y-48698624D01*
X77935745Y-48483452D01*
X77945819Y-48472082D01*
X78139082Y-48278819D01*
X78150452Y-48268745D01*
X78365624Y-48100168D01*
X78378115Y-48091546D01*
X78612035Y-47950137D01*
X78625487Y-47943078D01*
X78874728Y-47830904D01*
X78888929Y-47825517D01*
X79149898Y-47744196D01*
X79164638Y-47740563D01*
X79433495Y-47691293D01*
X79448572Y-47689462D01*
X79699185Y-47674303D01*
X79725199Y-47672730D01*
X79732806Y-47672500D01*
X79763351Y-47672500D01*
X131157649Y-47672500D01*
X131188194Y-47672500D01*
X131195801Y-47672730D01*
G37*
%TD.AperFunction*%
%TD*%
D23*
X79729000Y-47522000D02*
X131192000Y-47522000D01*
X133732000Y-144744000D02*
G75*
G02*
X131192000Y-147284000I-2540000J0D01*
G01*
X131192000Y-47522000D02*
G75*
G02*
X133732000Y-50062000I0J-2540000D01*
G01*
X77189000Y-50062000D02*
G75*
G02*
X79729000Y-47522000I2540000J0D01*
G01*
X131192000Y-147284000D02*
X79729000Y-147284000D01*
X133732000Y-50062000D02*
X133732000Y-144744000D01*
X79729000Y-147284000D02*
G75*
G02*
X77189000Y-144744000I0J2540000D01*
G01*
X77189000Y-144744000D02*
X77189000Y-50062000D01*
M02*
