%TF.GenerationSoftware,KiCad,Pcbnew,9.0.1*%
%TF.CreationDate,2025-08-15T14:51:03+02:00*%
%TF.ProjectId,bitaxeGamma,62697461-7865-4476-916d-6d612e6b6963,rev?*%
%TF.SameCoordinates,Original*%
%TF.FileFunction,Paste,Bot*%
%TF.FilePolarity,Positive*%
%FSLAX46Y46*%
G04 Gerber Fmt 4.6, Leading zero omitted, Abs format (unit mm)*
G04 Created by KiCad (PCBNEW 9.0.1) date 2025-08-15 14:51:03*
%MOMM*%
%LPD*%
G01*
G04 APERTURE LIST*
G04 Aperture macros list*
%AMRoundRect*
0 Rectangle with rounded corners*
0 $1 Rounding radius*
0 $2 $3 $4 $5 $6 $7 $8 $9 X,Y pos of 4 corners*
0 Add a 4 corners polygon primitive as box body*
4,1,4,$2,$3,$4,$5,$6,$7,$8,$9,$2,$3,0*
0 Add four circle primitives for the rounded corners*
1,1,$1+$1,$2,$3*
1,1,$1+$1,$4,$5*
1,1,$1+$1,$6,$7*
1,1,$1+$1,$8,$9*
0 Add four rect primitives between the rounded corners*
20,1,$1+$1,$2,$3,$4,$5,0*
20,1,$1+$1,$4,$5,$6,$7,0*
20,1,$1+$1,$6,$7,$8,$9,0*
20,1,$1+$1,$8,$9,$2,$3,0*%
G04 Aperture macros list end*
%ADD10C,0.001000*%
%ADD11R,0.900000X1.500000*%
%ADD12R,1.500000X0.900000*%
%ADD13R,0.900000X0.900000*%
%ADD14RoundRect,0.150000X0.425000X-0.150000X0.425000X0.150000X-0.425000X0.150000X-0.425000X-0.150000X0*%
%ADD15RoundRect,0.075000X0.500000X-0.075000X0.500000X0.075000X-0.500000X0.075000X-0.500000X-0.075000X0*%
%ADD16O,1.800000X1.000000*%
%ADD17O,2.100000X1.000000*%
%ADD18RoundRect,0.055250X0.340750X0.055250X-0.340750X0.055250X-0.340750X-0.055250X0.340750X-0.055250X0*%
%ADD19R,2.000000X2.000000*%
%ADD20R,0.900000X1.800000*%
%TA.AperFunction,Profile*%
%ADD21C,0.001000*%
%TD*%
G04 APERTURE END LIST*
%TO.C,U8*%
D10*
X102700000Y-116100000D02*
X103900000Y-116100000D01*
X103900000Y-115150000D01*
X102700000Y-115150000D01*
X102700000Y-116100000D01*
G36*
X102700000Y-116100000D02*
G01*
X103900000Y-116100000D01*
X103900000Y-115150000D01*
X102700000Y-115150000D01*
X102700000Y-116100000D01*
G37*
X102700000Y-120050000D02*
X103900000Y-120050000D01*
X103900000Y-119100000D01*
X102700000Y-119100000D01*
X102700000Y-120050000D01*
G36*
X102700000Y-120050000D02*
G01*
X103900000Y-120050000D01*
X103900000Y-119100000D01*
X102700000Y-119100000D01*
X102700000Y-120050000D01*
G37*
X102702500Y-114080000D02*
X103902500Y-114080000D01*
X103902500Y-112970000D01*
X102702500Y-112970000D01*
X102702500Y-114080000D01*
G36*
X102702500Y-114080000D02*
G01*
X103902500Y-114080000D01*
X103902500Y-112970000D01*
X102702500Y-112970000D01*
X102702500Y-114080000D01*
G37*
X102710000Y-118080000D02*
X103910000Y-118080000D01*
X103910000Y-117130000D01*
X102710000Y-117130000D01*
X102710000Y-118080000D01*
G36*
X102710000Y-118080000D02*
G01*
X103910000Y-118080000D01*
X103910000Y-117130000D01*
X102710000Y-117130000D01*
X102710000Y-118080000D01*
G37*
X104850000Y-114085000D02*
X106050000Y-114085000D01*
X106050000Y-112975000D01*
X104850000Y-112975000D01*
X104850000Y-114085000D01*
G36*
X104850000Y-114085000D02*
G01*
X106050000Y-114085000D01*
X106050000Y-112975000D01*
X104850000Y-112975000D01*
X104850000Y-114085000D01*
G37*
X104850000Y-116100000D02*
X106050000Y-116100000D01*
X106050000Y-115150000D01*
X104850000Y-115150000D01*
X104850000Y-116100000D01*
G36*
X104850000Y-116100000D02*
G01*
X106050000Y-116100000D01*
X106050000Y-115150000D01*
X104850000Y-115150000D01*
X104850000Y-116100000D01*
G37*
X104850000Y-120050000D02*
X106050000Y-120050000D01*
X106050000Y-119100000D01*
X104850000Y-119100000D01*
X104850000Y-120050000D01*
G36*
X104850000Y-120050000D02*
G01*
X106050000Y-120050000D01*
X106050000Y-119100000D01*
X104850000Y-119100000D01*
X104850000Y-120050000D01*
G37*
X104860000Y-118080000D02*
X106060000Y-118080000D01*
X106060000Y-117130000D01*
X104860000Y-117130000D01*
X104860000Y-118080000D01*
G36*
X104860000Y-118080000D02*
G01*
X106060000Y-118080000D01*
X106060000Y-117130000D01*
X104860000Y-117130000D01*
X104860000Y-118080000D01*
G37*
X107125000Y-116100000D02*
X108325000Y-116100000D01*
X108325000Y-115150000D01*
X107125000Y-115150000D01*
X107125000Y-116100000D01*
G36*
X107125000Y-116100000D02*
G01*
X108325000Y-116100000D01*
X108325000Y-115150000D01*
X107125000Y-115150000D01*
X107125000Y-116100000D01*
G37*
X107125000Y-118075000D02*
X108325000Y-118075000D01*
X108325000Y-117125000D01*
X107125000Y-117125000D01*
X107125000Y-118075000D01*
G36*
X107125000Y-118075000D02*
G01*
X108325000Y-118075000D01*
X108325000Y-117125000D01*
X107125000Y-117125000D01*
X107125000Y-118075000D01*
G37*
X107125000Y-120050000D02*
X108325000Y-120050000D01*
X108325000Y-119100000D01*
X107125000Y-119100000D01*
X107125000Y-120050000D01*
G36*
X107125000Y-120050000D02*
G01*
X108325000Y-120050000D01*
X108325000Y-119100000D01*
X107125000Y-119100000D01*
X107125000Y-120050000D01*
G37*
X107127500Y-114080000D02*
X108327500Y-114080000D01*
X108327500Y-112960000D01*
X107127500Y-112960000D01*
X107127500Y-114080000D01*
G36*
X107127500Y-114080000D02*
G01*
X108327500Y-114080000D01*
X108327500Y-112960000D01*
X107127500Y-112960000D01*
X107127500Y-114080000D01*
G37*
%TD*%
D11*
%TO.C,U4*%
X125690000Y-81360000D03*
X124420000Y-81360000D03*
X123150000Y-81360000D03*
X121880000Y-81360000D03*
X120610000Y-81360000D03*
X119340000Y-81360000D03*
X118070000Y-81360000D03*
X116800000Y-81360000D03*
X115530000Y-81360000D03*
X114260000Y-81360000D03*
X112990000Y-81360000D03*
X111720000Y-81360000D03*
X110450000Y-81360000D03*
X109180000Y-81360000D03*
D12*
X107930000Y-79595000D03*
X107930000Y-78325000D03*
X107930000Y-77055000D03*
X107930000Y-75785000D03*
X107930000Y-74515000D03*
X107930000Y-73245000D03*
X107930000Y-71975000D03*
X107930000Y-70705000D03*
X107930000Y-69435000D03*
X107930000Y-68165000D03*
X107930000Y-66895000D03*
X107930000Y-65625000D03*
D11*
X109180000Y-63860000D03*
X110450000Y-63860000D03*
X111720000Y-63860000D03*
X112990000Y-63860000D03*
X114260000Y-63860000D03*
X115530000Y-63860000D03*
X116800000Y-63860000D03*
X118070000Y-63860000D03*
X119340000Y-63860000D03*
X120610000Y-63860000D03*
X121880000Y-63860000D03*
X123150000Y-63860000D03*
X124420000Y-63860000D03*
X125690000Y-63860000D03*
D13*
X116570000Y-75510000D03*
X117970000Y-75510000D03*
X119370000Y-75510000D03*
X116570000Y-74110000D03*
X117970000Y-74110000D03*
X119370000Y-74110000D03*
X116570000Y-72710000D03*
X117970000Y-72710000D03*
X119370000Y-72710000D03*
%TD*%
D14*
%TO.C,J5*%
X84545000Y-86460000D03*
X84545000Y-85660000D03*
D15*
X84545000Y-84510000D03*
X84545000Y-83510000D03*
X84545000Y-83010000D03*
X84545000Y-82010000D03*
D14*
X84545000Y-80060000D03*
X84545000Y-80860000D03*
D15*
X84545000Y-81510000D03*
X84545000Y-82510000D03*
X84545000Y-84010000D03*
X84545000Y-85010000D03*
D16*
X79790000Y-87580000D03*
D17*
X83970000Y-87580000D03*
D16*
X79790000Y-78940000D03*
D17*
X83970000Y-78940000D03*
%TD*%
D18*
%TO.C,U8*%
X109416000Y-113000000D03*
X109416000Y-113500000D03*
X109416000Y-114000000D03*
X109416000Y-114500000D03*
X109416000Y-115000000D03*
X109416000Y-115500000D03*
X109416000Y-116000000D03*
X109416000Y-116500000D03*
X109416000Y-117000000D03*
X109416000Y-117500000D03*
X109416000Y-118000000D03*
X109416000Y-118500000D03*
X109416000Y-119000000D03*
X109416000Y-119500000D03*
X109416000Y-120000000D03*
X101584000Y-120000000D03*
X101584000Y-119500000D03*
X101584000Y-119000000D03*
X101584000Y-118500000D03*
X101584000Y-118000000D03*
X101584000Y-117500000D03*
X101584000Y-117000000D03*
X101584000Y-116500000D03*
X101584000Y-116000000D03*
X101584000Y-115500000D03*
X101584000Y-115000000D03*
X101584000Y-114500000D03*
X101584000Y-114000000D03*
X101584000Y-113500000D03*
X101584000Y-113000000D03*
%TD*%
D19*
%TO.C,J1*%
X82330000Y-72120000D03*
X88530000Y-72120000D03*
X82330000Y-61120000D03*
X88530000Y-61120000D03*
%TD*%
D20*
%TO.C,SW1*%
X132246000Y-104448000D03*
X128136000Y-104448000D03*
%TD*%
%TO.C,SW2*%
X132142000Y-113155000D03*
X128032000Y-113155000D03*
%TD*%
D21*
X79729000Y-47522000D02*
X131192000Y-47522000D01*
X133732000Y-144744000D02*
G75*
G02*
X131192000Y-147284000I-2540000J0D01*
G01*
X131192000Y-47522000D02*
G75*
G02*
X133732000Y-50062000I0J-2540000D01*
G01*
X77189000Y-50062000D02*
G75*
G02*
X79729000Y-47522000I2540000J0D01*
G01*
X131192000Y-147284000D02*
X79729000Y-147284000D01*
X133732000Y-50062000D02*
X133732000Y-144744000D01*
X79729000Y-147284000D02*
G75*
G02*
X77189000Y-144744000I0J2540000D01*
G01*
X77189000Y-144744000D02*
X77189000Y-50062000D01*
M02*
